<?xml version="1.0" encoding="utf-8"?>
<!-- Generator: Adobe Illustrator 24.3.0, SVG Export Plug-In . SVG Version: 6.00 Build 0)  -->
<svg version="1.1" id="Layer_1" xmlns="http://www.w3.org/2000/svg" xmlns:xlink="http://www.w3.org/1999/xlink" x="0px" y="0px"
	 viewBox="0 0 376 325" style="enable-background:new 0 0 376 325;" xml:space="preserve">
<path d="M46.8,280.9c2.9,11,11.6,19.7,22.6,22.6c14.5,3.9,37,8.5,63.4,9L38,217.7C38.5,244,43,266.4,46.8,280.9z"/>
<path d="M40.5,179.1l130.8,131c80.1-11.7,150.5-71.8,164.2-164.2l-130.8-131C124.6,26.7,54.2,86.7,40.5,179.1z M232.5,104.3
	c1.9-1.9,5-1.9,6.8,0l6.8,6.8c1.9,1.9,1.9,5,0,6.8L229,135.1l17.1,17.1c1.9,1.9,1.9,5,0,6.8l-6.8,6.8c-1.9,1.9-5,1.9-6.8,0
	l-17.1-17.1l-13.7,13.7l17.1,17.1c1.9,1.9,1.9,5,0,6.8l-6.8,6.8c-1.9,1.9-5,1.9-6.8,0L188,176.2l-13.7,13.7l17.1,17.1
	c1.9,1.9,1.9,5,0,6.8l-6.8,6.8c-1.9,1.9-5,1.9-6.8,0l-17.1-17.1l-17.1,17.1c-1.9,1.9-5,1.9-6.8,0l-6.8-6.8c-1.9-1.9-1.9-5,0-6.8
	l17.1-17.1l-17.1-17.1c-1.9-1.9-1.9-5,0-6.8l6.8-6.8c1.9-1.9,5-1.9,6.8,0l17.1,17.1l13.7-13.7l-17.1-17.1c-1.9-1.9-1.9-5,0-6.8
	l6.8-6.8c1.9-1.9,5-1.9,6.8,0l17.1,17.1l13.7-13.7l-17.1-17.1c-1.9-1.9-1.9-5,0-6.8l6.8-6.8c1.9-1.9,5-1.9,6.8,0l17.1,17.1
	L232.5,104.3z"/>
<path d="M329.2,44.1L329.2,44.1c-2.9-11-11.6-19.7-22.6-22.6c-14.5-3.9-37-8.5-63.4-9l94.7,94.8C337.5,81,333,58.6,329.2,44.1z"/>
</svg>
