<?xml version="1.0" encoding="utf-8"?>
<!-- Generator: Adobe Illustrator 24.3.0, SVG Export Plug-In . SVG Version: 6.00 Build 0)  -->
<svg version="1.1" id="Layer_1" xmlns="http://www.w3.org/2000/svg" xmlns:xlink="http://www.w3.org/1999/xlink" x="0px" y="0px"
	 viewBox="0 0 343.1 325" style="enable-background:new 0 0 343.1 325;" xml:space="preserve">
<g>
	<path d="M171.5,313.2c-37,0-74,0-111,0c-27.9,0-48-20-48-47.9c0-68.5,0-137,0-205.6c0-27.8,20-47.8,47.7-47.8
		c74.3,0,148.5,0,222.8,0c27.5,0,47.6,20,47.6,47.5c0.1,68.8,0.1,137.6,0,206.3c0,27.4-20.3,47.5-47.7,47.5
		C245.8,313.2,208.7,313.2,171.5,313.2z M37.6,87.4c0,1.5,0,2.6,0,3.8c0,58,0,116.1,0,174.1c0,14.4,8.6,22.8,23.1,22.8
		c73.7,0,147.5,0,221.2,0c15.5,0,23.7-8.2,23.7-23.7c0-57.5,0-115,0-172.5c0-1.4,0-2.8,0-4.4C216.1,87.4,127.2,87.4,37.6,87.4z
		 M217.9,62.1c22.1,0,44.2,0,66.3,0c7.4,0,12.9-5.4,13-12.4c0.1-7-5.4-12.6-12.7-12.6c-44.6-0.1-89.1,0-133.7,0
		c-4.3,0-7.9,1.8-10.3,5.4c-2.7,4-3.1,8.3-0.9,12.6c2.4,4.7,6.4,7,11.8,7C173.4,62.1,195.6,62.1,217.9,62.1z M71.1,49.6
		c0-6.8-5.6-12.5-12.4-12.6c-6.9-0.1-12.5,5.5-12.7,12.3c-0.1,7,5.6,12.8,12.6,12.8C65.4,62,71.1,56.4,71.1,49.6z M112.9,49.6
		c0-6.9-5.5-12.5-12.3-12.6c-7-0.1-12.8,5.7-12.7,12.7c0.1,6.8,5.8,12.4,12.6,12.4C107.3,62,112.9,56.4,112.9,49.6z"/>
	<path d="M163.1,188c0,20.8,0.1,41.6,0,62.3c0,6.6-4.3,11.6-10.2,12.5c-6,1-11.9-2.2-13.8-7.8c-0.8-2.3-1-4.9-1-7.3
		c-0.1-31.8,0-63.5,0-95.3c0-9-0.1-18,0-27.1c0.1-7.3,4.8-12.7,11.3-13.2c7.9-0.6,13.7,4.8,13.7,13.1
		C163.2,146.2,163.1,167.1,163.1,188C163.1,188,163.1,188,163.1,188z"/>
	<path d="M180,204.2c0-15.3-0.1-30.6,0-45.9c0.1-8.8,7.8-14.6,16.1-12.2c5.6,1.6,9,6.6,9,13.6c0,20,0,40,0,60
		c0,10.1,0.2,20.1-0.1,30.2c-0.2,9.8-9.2,15.9-17.6,12c-5.1-2.4-7.5-6.6-7.4-12.3C180,234.6,180,219.4,180,204.2z"/>
	<path d="M246.9,220.9c0,9.5,0,19.1,0,28.6c0,8-5.2,13.5-12.6,13.5c-7.3,0-12.5-5.5-12.5-13.6c0-18.9,0-37.9,0-56.8
		c0-7.9,5.4-13.6,12.6-13.6c7.3,0,12.4,5.7,12.5,13.7C246.9,202.1,246.9,211.5,246.9,220.9z"/>
	<path d="M121.3,229.2c0,6.9,0.1,13.9,0,20.8c-0.1,7.7-5.4,13.1-12.7,13c-7.1-0.1-12.3-5.5-12.4-12.9c-0.1-13.7-0.1-27.5,0-41.2
		c0-7.6,5.6-13.2,12.7-13.1c7,0.1,12.3,5.5,12.4,13C121.4,215.6,121.3,222.4,121.3,229.2z"/>
</g>
</svg>
