<?xml version="1.0" encoding="utf-8"?>
<!-- Generator: Adobe Illustrator 24.3.0, SVG Export Plug-In . SVG Version: 6.00 Build 0)  -->
<svg version="1.1" id="Layer_1" xmlns="http://www.w3.org/2000/svg" xmlns:xlink="http://www.w3.org/1999/xlink" x="0px" y="0px"
	 viewBox="0 0 318.3 325" style="enable-background:new 0 0 318.3 325;" xml:space="preserve">
<style type="text/css">
	.st0{fill:#E38700;}
	.st1{fill:url(#SVGID_1_);}
	.st2{fill:#4C0000;}
</style>
<g>
	<circle class="st0" cx="159.1" cy="162.1" r="150.5"/>
	<linearGradient id="SVGID_1_" gradientUnits="userSpaceOnUse" x1="155.3467" y1="22.4127" x2="158.6581" y2="292.619">
		<stop  offset="0" style="stop-color:#DA041A"/>
		<stop  offset="0.5251" style="stop-color:#E37139"/>
		<stop  offset="1" style="stop-color:#E5D255"/>
	</linearGradient>
	<ellipse class="st1" cx="157" cy="157" rx="148.5" ry="145.4"/>
	<ellipse class="st2" cx="160.3" cy="246.8" rx="59.1" ry="15.8"/>
	<path class="st2" d="M137.1,164.2c-48-5.6-79.1-29.6-79.1-29.6c0,0,0,0-0.1,0c-4.2-2.4-9.3-0.5-10.9,4.1c-2,5.7,1.7,8.4,1.7,8.4
		c12.2,9.4,26.1,16.2,39.3,21.1c-4.9,3.8-8,9.7-7.8,16.4c0.2,10.4,8.6,19.1,19,19.6c11.7,0.6,21.3-8.6,21.3-20.1
		c0-2.4-0.4-4.7-1.2-6.8c10.6,2.3,17.6,3,17.6,3s7.1,0.8,8.2-7.5C146,164.5,137.1,164.2,137.1,164.2z"/>
	<path class="st2" d="M178.7,164.7c48-5.6,79.1-29.6,79.1-29.6c0,0,0,0,0.1,0c4.2-2.4,9.3-0.5,10.9,4.1c2,5.7-1.7,8.4-1.7,8.4
		c-12.2,9.4-26.1,16.2-39.3,21.1c4.9,3.8,8,9.7,7.8,16.4c-0.2,10.4-8.6,19.1-19,19.6c-11.7,0.6-21.3-8.6-21.3-20.1
		c0-2.4,0.4-4.7,1.2-6.8c-10.6,2.3-17.6,3-17.6,3s-7.1,0.8-8.2-7.5C169.8,165,178.7,164.7,178.7,164.7z"/>
</g>
</svg>
