<?xml version="1.0" encoding="utf-8"?>
<!-- Generator: Adobe Illustrator 24.3.0, SVG Export Plug-In . SVG Version: 6.00 Build 0)  -->
<svg version="1.1" id="Layer_1" xmlns="http://www.w3.org/2000/svg" xmlns:xlink="http://www.w3.org/1999/xlink" x="0px" y="0px"
	 viewBox="0 0 317 325" style="enable-background:new 0 0 317 325;" xml:space="preserve">
<path d="M259.2,66.1c-27.3-27.3-63.5-42.3-101.8-42.3c-38.4,0-74.6,15-101.8,42.3c-56.1,56.1-56.1,147.5,0,203.7
	c27.3,27.3,63.4,42.3,101.8,42.3s74.6-15,101.8-42.3C315.4,213.7,315.4,122.3,259.2,66.1z M238.8,249.5
	c-15.4,15.4-34.4,25.8-55,30.7c0-0.2,0-0.3,0-0.5c0-11.3,2.1-22.3,6.1-32.5l-26.8-10.5c-5.3,13.6-8,28.1-8,43c0,1.2,0,2.4,0.1,3.6
	c-29.9-0.6-57.9-12.5-79.3-33.8c-21.9-21.9-33-50.5-33.6-79.3c1.2,0,2.3,0.1,3.5,0.1c15,0,29.4-2.7,43-8l-10.5-26.8
	c-10.3,4.1-21.5,6-32.9,5.9c4.7-20.1,14.8-39.2,30.5-54.9c16-16,35.7-26.6,57.2-31.2c-0.1,9.4-1.8,18.8-5.1,28.1l27.1,9.8
	c4.6-12.7,6.9-25.8,6.9-38.9c0-0.5-0.1-0.9-0.1-1.4c29,1.1,56.2,12.9,76.9,33.6c21.3,21.3,32.4,49,33.5,77c-13.4-0.1-27,2-40.1,6.8
	l9.9,27.1c9.2-3.3,18.6-5.1,27.9-5.2C265.4,213.2,255.1,233.2,238.8,249.5z"/>
<path d="M106.5,117.1c-3.7,3.6-7.7,6.9-11.9,9.8l16.1,23.9c5.7-3.9,11.2-8.4,16.2-13.3c6.7-6.7,12.6-14.2,17.5-22.2l-24.5-15.1
	C116,106.3,111.5,112,106.5,117.1z"/>
<path d="M187.9,198.5c-4.9,4.9-9.4,10.4-13.3,16.1l23.9,16.1c2.9-4.3,6.2-8.3,9.8-11.9c5.1-5.1,10.8-9.6,17-13.4L210.1,181
	C202.1,186,194.6,191.9,187.9,198.5z"/>
</svg>
