<svg id="Layer_1" data-name="Layer 1" xmlns="http://www.w3.org/2000/svg" viewBox="0 0 496 496"><path d="M328.3,302.3C373.6,265.2,432,244.9,496,243.6A247.17,247.17,0,0,0,439.9,98.1L282,256Z" transform="translate(0 -8)"/><path d="M328.5,370.5c-27.7,35.7-43.2,81.2-44.8,131.2a246.53,246.53,0,0,0,122.2-53.8Z" transform="translate(0 -8)"/><path d="M439.9,413.9a246.53,246.53,0,0,0,53.8-122.2c-50.1,1.6-95.5,17.1-131.2,44.8Z" transform="translate(0 -8)"/><path d="M248,290,90.1,447.9A247.82,247.82,0,0,0,235.6,504c1.3-64,21.6-122.4,58.7-167.7Z" transform="translate(0 -8)"/><path d="M248,222,405.9,64.1A247.17,247.17,0,0,0,260.4,8c-1.2,63.9-21.5,122.3-58.7,167.7Z" transform="translate(0 -8)"/><path d="M167.7,209.7C122.3,246.9,63.9,267.3,0,268.4A247.17,247.17,0,0,0,56.1,413.9L214,256Z" transform="translate(0 -8)"/><path d="M212.3,10.3A246.53,246.53,0,0,0,90.1,64.1l77.4,77.4C195.3,105.7,210.8,60.3,212.3,10.3Z" transform="translate(0 -8)"/><path d="M56.1,98.1A246.53,246.53,0,0,0,2.3,220.3c50-1.5,95.5-17,131.2-44.8Z" transform="translate(0 -8)"/></svg>