<?xml version="1.0" encoding="utf-8"?>
<!-- Generator: Adobe Illustrator 24.3.0, SVG Export Plug-In . SVG Version: 6.00 Build 0)  -->
<svg version="1.1" id="Layer_1" xmlns="http://www.w3.org/2000/svg" xmlns:xlink="http://www.w3.org/1999/xlink" x="0px" y="0px"
	 viewBox="0 0 451.4 450" style="enable-background:new 0 0 451.4 450;" xml:space="preserve">
<style type="text/css">
	.st0{fill:url(#SVGID_1_);}
	.st1{fill:#FFFFFF;}
	.st2{fill:url(#SVGID_2_);}
	.st3{fill:#606060;}
	.st4{fill:url(#SVGID_3_);}
	.st5{fill:url(#SVGID_4_);}
	.st6{fill:url(#SVGID_5_);}
	.st7{fill:url(#SVGID_6_);}
	.st8{fill:url(#SVGID_7_);}
	.st9{display:none;fill:url(#SVGID_8_);}
	.st10{display:none;fill:url(#SVGID_9_);}
	.st11{fill:url(#SVGID_10_);}
	.st12{fill:url(#SVGID_11_);}
	.st13{fill:url(#SVGID_12_);}
	.st14{fill:url(#SVGID_13_);}
	.st15{fill:url(#SVGID_14_);}
	.st16{fill:url(#SVGID_15_);}
	.st17{fill:url(#SVGID_16_);}
	.st18{fill:url(#SVGID_17_);}
	.st19{fill:none;}
	.st20{fill:url(#SVGID_18_);}
	.st21{fill:url(#SVGID_19_);}
	.st22{fill:url(#SVGID_20_);}
	.st23{fill:url(#SVGID_21_);}
	.st24{fill:url(#SVGID_22_);}
	.st25{fill:url(#SVGID_23_);}
	.st26{fill:url(#SVGID_24_);}
	.st27{fill:url(#SVGID_25_);}
	.st28{display:none;fill:url(#SVGID_26_);}
	.st29{fill:url(#SVGID_27_);}
	.st30{fill:url(#SVGID_28_);}
</style>
<g>
	<linearGradient id="SVGID_1_" gradientUnits="userSpaceOnUse" x1="74.5532" y1="728.8644" x2="367.9149" y2="728.8644">
		<stop  offset="0" style="stop-color:#03B08E"/>
		<stop  offset="0.4778" style="stop-color:#3BBB71"/>
		<stop  offset="1" style="stop-color:#73C754"/>
	</linearGradient>
	<path class="st0" d="M75.3,762.5l33.7-20.7l3.1-98c0,0,17.6-15.3,53.6-10.7l54.4-44.4l17.6,17.6l24.5-19.1l42.9,42.9l35.2,5.4
		l14.6,26l-0.8,35.2l13.8,5.4l-1.5,55.1l-12.3,2.3l0.8,38.3c0,0-2.3,31.4-26.8,31.4c-24.5,0-129.4-2.3-129.4-2.3s-31.4,45.2-62,43.7
		s-62-42.1-62-67.4S75.3,762.5,75.3,762.5z"/>
	<g>
		<path class="st1" d="M373.4,700.5c0-5.1-2.6-7.7-7.7-7.9c-3-0.1-3.7-1.2-3.6-4c0.1-9.5,0.2-19.1,0-28.6c-0.4-19-15.1-33.7-34-34.3
			c-3.7-0.1-7.3-0.2-11,0c-3,0.2-5-0.9-7.1-3c-13.9-14-27.8-28-41.8-41.9c-4.8-4.7-8.3-4.7-13.1,0c-4.7,4.6-9.3,9.1-13.8,13.9
			c-1.8,1.9-3.1,2.1-5,0c-3.5-3.7-7.2-7.2-10.8-10.8c-7-7-9.4-7-16.5,0.1c-12.8,12.8-25.7,25.6-38.4,38.5c-2.3,2.4-4.7,3.3-7.9,3.2
			c-9.2-0.2-18.5-0.2-27.7,0.1c-17.2,0.6-32.2,15.4-32.4,32.7c-0.3,25.4,0,50.9,0,76.4c-8.6,5.8-18,10.1-27.5,14.2
			c-6,2.6-8.8,6.8-8.8,13.3c0.1,11.1-0.1,22.3,0.1,33.4c0.2,10.1,1.9,19.9,6.1,29.2c12.6,27.1,35.2,42.2,62.5,51.5
			c2.1,0.7,4.1,0.4,6.1-0.3c24.1-8.1,44.8-21,58.9-42.9l0,0l0,0c42.6,0,85.3,0.2,127.9,0c17-0.1,30.8-11.9,33.5-28.9
			c1.8-11.2,0.4-22.5,0.7-33.8c0-2.6,0.3-4,3.5-4.1c5.1-0.2,7.7-2.7,7.8-7.7C373.6,739.3,373.6,719.9,373.4,700.5z M253.7,603.5
			c1-1,2-2,3-3c5.1-5.1,5.1-5.1,10.1,0.5c7.9,8.2,15.8,16.4,23.9,24.8c-7.4,0-14.6,0-21.9,0c-1.4,0-2.3-0.8-3.2-1.7
			c-3.8-3.9-7.5-7.7-11.3-11.6C249.2,608,249.2,608,253.7,603.5z M191.8,622.7c7-7.1,14.2-14.2,21.2-21.3c4.5-4.5,4.5-4.5,9,0.5
			c7.9,7.4,15.7,15,22.9,23l0,0c0.2,1.7-1.2,0.9-1.7,0.9c-17.7,0.1-35.3,0-53,0C189.5,624,191.1,623.5,191.8,622.7z M197.1,766.1
			c-0.2,5.4-0.1,10.8-0.1,17.4c-0.3,5.8,0.5,12.8-0.5,19.8c-3.5,23.4-18,38.6-37.4,50.1c-1.2,0.7-2.5,1.5-3.8,2.1
			c-20.2,9.5-15.8,10-35.8-0.7c-18-9.5-31.7-23.4-37.3-43.8c-1.2-4.5-1.9-9-1.9-13.6c0-10.7,0-21.3-0.1-32c0-2.5,0.6-4,3.1-5.1
			c18.6-8.4,36.3-18.5,52.8-30.5c2.1-1.5,3.4-1.2,5.3,0.2c16.3,11.8,33.5,21.9,51.9,30C196.4,761.4,197.3,763,197.1,766.1z
			 M347.2,771c-0.3,8.6-0.1,17.2-0.1,25.8c0,13.6-8,21.7-21.6,21.7c-32.6,0-65.3,0-97.9,0c-6.7,0-13.4,0-20.1,0
			c4.8-18.8,2.4-37.9,3.1-56.9c0.2-6-2.4-9.9-7.9-12.2c-18.7-8.1-36.4-18.1-53-30.1c-10.2-7.3-11.3-7.4-21.5-0.8l0,0
			c-3.2,2.8-6.8,5.1-10.5,7.2l0,0c0-22.3-0.2-44.5,0-66.8c0.1-8.9,7-16.4,15.8-17.7c3.4-0.5,7-0.7,10.5-0.7c60.2,0,120.3,0,180.5,0
			c1.9,0,3.8-0.4,5.6,0.6c9.3,1.1,16.7,8.4,17,17.6c0.3,10.2,0,20.4,0.2,30.5c0.1,3.1-1.5,3.2-3.8,3.2c-13.2,0-26.4-0.3-39.6,0.1
			c-28.6,1-45.1,32.8-29.5,56.9c6.8,10.5,16.7,16.6,29.4,16.9c13,0.3,26.1,0.3,39.2,0.1C346.3,766.4,347.3,767.5,347.2,771z
			 M358.5,748.6c0,2.5-0.8,3.3-3.3,3.3c-16.7-0.1-33.4,0.1-50.1-0.1c-10.9-0.2-19.2-7.5-21.2-17.8l0,0c-3.7-12.9,6.9-26.3,21.7-26.6
			c16.5-0.4,33.1-0.1,49.6-0.1c2.4,0,3.5,0.7,3.3,3.2c-0.2,2.4-0.1,4.8-0.2,7.1C358.3,728,358.3,738.3,358.5,748.6z"/>
		<path class="st1" d="M316.5,717.7c-0.1,0-0.2,0-0.3,0c-9.3-5.1-14.7-4.4-22.3,2.9c0,0-0.1,0-0.1,0.1v0.1c-0.5,1.1-1.1,2.2-1.5,3.3
			c-3.1,7.9,0.7,16.6,8.5,19.7c8,3.2,17-0.8,19.8-9c2.2-6.5,0.2-12-4.2-16.8C316.4,717.8,316.4,717.7,316.5,717.7z M306.6,736.6
			c-3.7,0.2-7.1-2.8-7.3-6.6c-0.3-3.9,3.1-7.5,6.9-7.5c3.7,0,7,3.2,7.2,6.9C313.5,733,310.3,736.4,306.6,736.6z"/>
		<path class="st1" d="M151.5,793.2c0,0-9.8-15.9-25.3-12c-15.6,4-19.2,15.9-20.7,23.2l-11,3.4l2.4,5.2l8.2-2.4c0,0,0,4.6,1.2,7.6
			l-6.4,2.4l2.1,5.2l6.4-2.4c0,0,7.3,15.3,23.5,14.3c0,0,12.5-0.5,19.5-12.9v9.9l11-3.4v-78.1l-11,2.7L151.5,793.2z M152,813.7
			c-1.4,4.9-4.9,9-9.4,11.2c-2.4,1.2-5.4,2.1-8.9,1.8c-2.8-0.2-5.5-1.1-7.9-2.6c-1.7-1.1-3.8-2.6-5.3-4.7l15.9-5.5l-3.4-4.3
			l-15.3,5.2c0,0-1.2-4.9-0.6-8.2l14.6-4.6l-3.2-4.4l-9.6,2.9c0,0,4.2-8.1,13.9-9.2c9.6-1.1,15.4,5.9,15.4,5.9
			S154.7,804.2,152,813.7z"/>
	</g>
</g>
<image style="overflow:visible;" width="512" height="512" xlink:href="C:\Users\suppo\Downloads\ewallet.png"  transform="matrix(0.75 0 0 0.75 422.8085 514.6326)">
</image>
<g>
	<linearGradient id="SVGID_2_" gradientUnits="userSpaceOnUse" x1="518.7613" y1="232.204" x2="792.7076" y2="232.204">
		<stop  offset="0" style="stop-color:#01BFFF"/>
		<stop  offset="0.4778" style="stop-color:#12AAFF"/>
		<stop  offset="1" style="stop-color:#4D62FF"/>
	</linearGradient>
	<path class="st2" d="M518.8,110.8l2.7,176.2c0,0,25.6,45.7,60.3,70.3c34.7,24.7,73.1,40.2,73.1,40.2s55.3-27.4,68.3-48.4
		c0,0,63.7-78,57.1-213.4l12.5-13.9l-8.2-11c0,0-64.8,21-116.9-43.8h-32.9C634.7,66.9,588.2,135.4,518.8,110.8z"/>
	<g>
		<g>
			<path class="st3" d="M660.1,384.8c-4.1,1.9-8.1,1.6-12.2-0.4c-21.1-10-41.6-21-60.8-34.4c-17.6-12.3-34.2-25.7-46.6-43.6
				c-7.6-10.9-12-22.7-12-36.4c0.3-48.2,0.1-96.3,0.1-144.5c0-1.4,0-2.8,0-4.2c0.8-0.1,1-0.2,1.2-0.2c1.1,0.2,2.2,0.5,3.3,0.7
				c15.7,3.7,31.3,3.5,46.8-0.7c24.1-6.4,43-20.3,56.5-41.2c2.6-4,5.7-5.9,10.4-5.6c5.4,0.3,10.8,0.2,16.1,0c4-0.1,6.7,1.4,8.7,4.8
				c5,8.3,11.3,15.6,18.7,21.8c21,17.6,45.1,25.4,72.4,22.8c5.6-0.5,11.2-1.7,17.3-2.6c0,1.2,0,2.4,0,3.6c0,3.6,0,7.1,0,10.7h19.7
				c0-6.4,0-12.8-0.1-19.2c-0.1-10.9-9.6-18.4-20-15.7c-11.1,2.8-22.2,5-33.8,3.7c-14.8-1.7-28-6.9-39.8-16
				c-7.8-6-13.8-13.6-19.2-21.7c-4.3-6.4-10.3-10.7-18-11.2c-9.2-0.6-18.5-0.7-27.7-0.2c-8.5,0.4-15,5-19.7,12.1
				c-1.5,2.3-3.1,4.6-4.7,6.7c-9.1,12.1-20.7,20.9-35,26c-16.5,6-33.2,6.3-50.1,1.3c-13-3.9-22.7,3.5-22.7,16.9
				c0,51.6,0,103.2,0,154.8c0,11,2.5,21.3,7.3,31.1c8.1,16.7,20,30.4,34,42.2c30.4,25.7,63.7,46.6,101.5,59.9c1.8,0,3.7,0,5.5,0
				c3.9-1.2,8-2,11.7-3.7c19.6-9.1,38.7-19.2,56.7-31.1c10.4-6.9,20.5-14.1,29.9-22.1h-32.4C703.3,363,682,374.4,660.1,384.8z"/>
			<linearGradient id="SVGID_3_" gradientUnits="userSpaceOnUse" x1="507.1746" y1="230.4675" x2="801.6599" y2="230.4675">
				<stop  offset="0" style="stop-color:#01BFFF"/>
				<stop  offset="0.4778" style="stop-color:#12AAFF"/>
				<stop  offset="1" style="stop-color:#4D62FF"/>
			</linearGradient>
			<path class="st4" d="M657.4,407.8h-6.1l-0.3-0.1c-35.5-12.5-68.9-32.2-102-60.2c-15.7-13.3-26.9-27.2-34.4-42.8
				c-4.9-10.2-7.4-21-7.4-31.8c0-31.4,0-62.8,0-94.2c0-20.2,0-40.4,0-60.5c0-7.1,2.6-12.9,7.2-16.4c4.6-3.5,10.9-4.3,17.7-2.2
				c16.6,4.9,33.1,4.5,49-1.2c13.7-4.9,25.1-13.5,34.1-25.4c1.4-1.9,2.8-3.9,4.7-6.7c5.3-8,12.6-12.4,21.1-12.9
				c9.1-0.5,18.5-0.4,27.9,0.2c7.7,0.5,14.4,4.7,19.4,12c4.4,6.6,10.5,14.9,18.8,21.3c11.5,8.9,24.2,14,38.9,15.6
				c10.8,1.2,21-0.6,33.2-3.6c5.4-1.4,11-0.3,15.3,3c4.4,3.4,6.9,8.6,7,14.4c0.1,7,0.1,14,0.1,19.2l0,1.8h-23.3l0-3.3
				c0-3.1,0-6.1,0-9.1v-1.5c-1.2,0.2-2.4,0.4-3.6,0.6c-4,0.7-7.8,1.3-11.7,1.7c-27.5,2.6-52.3-5.2-73.7-23.3
				c-7.5-6.3-14-13.8-19.1-22.2c-1.7-2.9-3.9-4.1-7.2-4c-6.1,0.2-11.1,0.2-16.3,0c-4-0.2-6.5,1.1-8.8,4.8
				c-13.8,21.3-33.1,35.5-57.6,42c-15.8,4.2-31.9,4.5-47.7,0.7c-0.8-0.2-1.6-0.4-2.4-0.5v2.4c0,13.2,0,26.5,0,39.7
				c0,34.3,0.1,69.8-0.1,104.8c-0.1,12.5,3.7,24.1,11.6,35.4c13,18.6,30.6,32.2,46.2,43.1c16.7,11.7,35.4,22.2,60.5,34.2
				c3.9,1.9,7.3,2,10.7,0.4l0.8,1.6l-0.8-1.6c25.4-12,45.4-23.3,62.7-35.5l0.5-0.3h37.8l-3.7,3.1c-8.5,7.2-18.3,14.5-30.1,22.3
				c-16.5,10.8-35.1,21.1-57,31.2c-2.6,1.2-5.5,2-8.2,2.8c-1.2,0.3-2.5,0.7-3.7,1.1L657.4,407.8z M652,404.3h4.9
				c1.2-0.4,2.3-0.7,3.5-1c2.7-0.7,5.3-1.5,7.7-2.6c21.7-10.1,40.2-20.2,56.5-31c9.9-6.6,18.5-12.7,26-18.9h-26.9
				c-17.4,12.2-37.4,23.5-62.8,35.5c-4.4,2.1-8.9,1.9-13.7-0.4c-25.4-12.1-44.2-22.7-61.1-34.5c-15.8-11.1-33.8-25-47.1-44
				c-8.3-11.9-12.4-24.2-12.3-37.5c0.2-34.9,0.2-70.4,0.1-104.7c0-13.2,0-26.5,0-39.7v-5.8l1.6-0.2c0.3,0,0.5-0.1,0.6-0.1
				c0.4-0.1,0.7-0.1,1.2,0c1.1,0.2,2.3,0.5,3.4,0.7c15.2,3.6,30.7,3.4,45.9-0.7c23.5-6.3,42.2-19.9,55.5-40.5c3-4.7,6.7-6.7,12-6.4
				c5,0.3,10,0.2,16,0c4.5-0.1,7.9,1.7,10.3,5.7c4.9,8.1,11.1,15.3,18.3,21.3c20.6,17.4,44.6,24.9,71.1,22.4c3.8-0.4,7.5-1,11.5-1.6
				c1.9-0.3,3.8-0.6,5.7-0.9l2.1-0.3v5.7c0,3,0,5.9,0,8.9h16.1c0-5,0-11.2-0.1-17.4c-0.1-4.7-2.1-9-5.6-11.6
				c-3.4-2.6-7.8-3.5-12.2-2.4c-12.5,3.1-23.2,5-34.5,3.7c-15.1-1.7-28.8-7.2-40.7-16.3c-8.7-6.7-15.1-15.4-19.6-22.2
				c-4.4-6.5-9.9-10-16.6-10.4c-9.3-0.6-18.6-0.7-27.5-0.2c-7.5,0.4-13.6,4.2-18.3,11.3c-1.9,2.8-3.3,4.9-4.8,6.8
				c-9.4,12.5-21.5,21.4-35.8,26.6c-16.6,6-33.9,6.5-51.2,1.3c-5.7-1.7-10.9-1.1-14.6,1.7c-3.7,2.8-5.8,7.6-5.8,13.5
				c0,20.2,0,40.4,0,60.5c0,31.4,0,62.8,0,94.2c0,10.5,2.3,20.4,7.1,30.3c7.3,15.1,18.2,28.7,33.5,41.6
				C584.1,372.5,617,391.9,652,404.3z"/>
		</g>
		<g>
			<path class="st3" d="M905,192.6c-9.3-2.4-19,1.6-23.8,10.2c-1.2,2.1-2.4,2.7-4.6,2.7c-9.8-0.1-19.6,0-29.4-0.1
				c-4.9-0.1-8.8,1.6-12.2,5.2c-6,6.3-12.3,12.3-18.4,18.5c-2.1,2.1-4.3,3-7.2,3c-11-0.1-22.1,0-33.1,0c-11.5,0-23.1-0.1-34.6,0
				c-4.7,0-6.4,2.3-6.4,8c0,5.5,1.6,7.7,6.3,7.7c24.2,0.1,48.4,0,72.6,0c4.4,0,7.8-1.8,10.9-4.9c6.2-6.4,12.5-12.8,19-18.9
				c1.6-1.5,4.3-2.6,6.5-2.7c8.7-0.3,17.4,0,26.1-0.2c2.5,0,3.7,0.8,4.9,2.9c4.9,8.5,14.6,12.3,24,9.7c9.4-2.6,15.8-11.3,15.7-21.1
				C920.9,203.4,914.1,194.9,905,192.6z M900,223.3c-5.6,0.1-10.2-4.3-10.3-10c-0.1-5.5,4.3-10,9.7-10.1c5.7-0.1,10.3,4.2,10.4,9.9
				C909.8,218.5,905.3,223.2,900,223.3z"/>
			<linearGradient id="SVGID_4_" gradientUnits="userSpaceOnUse" x1="733.3785" y1="219.8215" x2="922.8594" y2="219.8215">
				<stop  offset="0" style="stop-color:#01BFFF"/>
				<stop  offset="0.4778" style="stop-color:#12AAFF"/>
				<stop  offset="1" style="stop-color:#4D62FF"/>
			</linearGradient>
			<path class="st5" d="M771.1,249.6c-9.9,0-19.8,0-29.6,0c-7.2,0-8.1-5.1-8.1-9.5c0-4.5,0.9-9.8,8.2-9.8c8.1-0.1,16.4-0.1,24.4,0
				c3.4,0,6.9,0,10.3,0c2.9,0,5.8,0,8.7,0c8,0,16.3,0,24.4,0c2.5,0,4.3-0.7,5.9-2.5c2.9-3,5.9-6,8.8-8.9c3.1-3.1,6.4-6.4,9.5-9.6
				c3.8-3.9,8.2-5.8,13.6-5.7c5.1,0.1,10.4,0.1,15.4,0.1c4.6,0,9.3,0,14,0c1.7,0,2.3-0.3,3.1-1.8c5.2-9.3,15.6-13.7,25.8-11.1
				c9.9,2.6,17.2,11.7,17.4,21.8c0.2,10.6-6.8,20-17,22.8c-10.3,2.8-20.7-1.4-26-10.6c-1-1.7-1.6-2.1-3.3-2c-3.7,0.1-7.5,0.1-11.2,0
				c-4.9,0-9.9,0-14.9,0.1c-1.8,0.1-4,1-5.3,2.2c-6.4,6-12.6,12.3-19,18.8c-3.5,3.6-7.5,5.4-12.1,5.4l-20,0
				C786.5,249.6,778.8,249.6,771.1,249.6z M756.5,233.7c-5,0-10,0-14.9,0.1c-3.3,0-4.6,0.9-4.6,6.2c0,5.1,1.3,5.9,4.5,5.9
				c17.5,0,35.4,0,52.6,0l20,0c3.7,0,6.7-1.4,9.6-4.3c6.4-6.5,12.6-12.9,19.1-18.9c1.9-1.8,5-3.1,7.7-3.2c5-0.2,10.1-0.2,15-0.1
				c3.6,0,7.4,0,11.1,0c3-0.1,4.9,1,6.5,3.8c4.5,7.7,13.3,11.3,22,8.9c8.6-2.4,14.5-10.3,14.4-19.3c-0.1-8.5-6.3-16.2-14.7-18.4l0,0
				c-8.7-2.3-17.4,1.5-21.8,9.3c-1.4,2.5-3.2,3.6-6.1,3.6c0,0-0.1,0-0.1,0c-4.6,0-9.4,0-14,0c-5.1,0-10.3,0-15.5-0.1
				c-4.4-0.1-7.9,1.4-10.9,4.6c-3.1,3.3-6.4,6.5-9.6,9.7c-2.9,2.9-5.9,5.9-8.8,8.8c-2.4,2.4-5.1,3.6-8.5,3.5
				c-8.1-0.1-16.4-0.1-24.4,0c-3.2,0-6.4,0-9.6,0c-3.1,0-6.3,0-9.4,0C762.8,233.7,759.7,233.7,756.5,233.7z M899.7,225.1
				c-3.1,0-6-1.2-8.2-3.3c-2.3-2.2-3.6-5.2-3.7-8.4c-0.1-6.5,5-11.8,11.5-12c3.2-0.1,6.3,1.1,8.6,3.3c2.3,2.2,3.6,5.1,3.6,8.3
				c0.1,6.4-5.2,11.9-11.5,12C899.9,225.1,899.8,225.1,899.7,225.1z M899.6,205c-0.1,0-0.1,0-0.2,0c-4.5,0.1-8.1,3.8-8,8.3
				c0,2.3,1,4.4,2.6,5.9c1.6,1.5,3.7,2.3,5.9,2.3l0,0c4.4-0.1,8.1-4,8-8.4c0-2.2-0.9-4.3-2.5-5.8C903.9,205.8,901.8,205,899.6,205z"
				/>
		</g>
		<g>
			<path class="st3" d="M854.7,247.8c-9.2-2.4-18.8,1.7-23.7,10.4c-1.1,1.9-2.3,2.5-4.4,2.5c-14.1-0.1-28.3,0-42.4,0
				c-14,0-28-0.1-42.1,0.1c-2,0-5.3,1.1-5.6,2.4c-0.8,3.3-1.1,7.1-0.3,10.4c0.7,3,4.2,2.9,7,2.9c27.7,0,55.3,0,83,0
				c2.1,0,3.6,0.3,4.8,2.4c4.9,8.8,14.7,12.8,24.1,10.3c9.3-2.5,15.7-10.9,15.7-20.6C870.8,258.6,864.3,250.3,854.7,247.8z
				 M849.4,278.6c-5.3,0-10-4.6-10.1-10c-0.1-5.6,4.5-10.1,10.2-10.1c5.6,0,9.9,4.3,9.9,9.8C859.5,274,855,278.6,849.4,278.6z"/>
			<linearGradient id="SVGID_5_" gradientUnits="userSpaceOnUse" x1="733.902" y1="268.4529" x2="872.5754" y2="268.4529">
				<stop  offset="0" style="stop-color:#01BFFF"/>
				<stop  offset="0.4778" style="stop-color:#12AAFF"/>
				<stop  offset="1" style="stop-color:#4D62FF"/>
			</linearGradient>
			<path class="st6" d="M849.4,291.6c-8.2,0-15.8-4.4-20-12c-0.7-1.3-1.4-1.5-3.2-1.5c-15.6,0-31.2,0-46.8,0c-12.1,0-24.1,0-36.2,0
				l-0.2,0c-2.9,0-7.5,0-8.5-4.2c-0.8-3.3-0.7-7.3,0.3-11.3c0.7-2.7,5.7-3.7,7.3-3.7c10.6-0.2,21.4-0.1,31.8-0.1c3.4,0,6.9,0,10.3,0
				l10,0c10.6,0,21.6,0,32.4,0c1.5,0,2.1-0.3,2.8-1.6c5.3-9.4,15.6-14,25.7-11.3c10.5,2.8,17.5,11.8,17.5,22.4
				c0,10.6-6.9,19.6-17,22.4C853.5,291.4,851.4,291.6,849.4,291.6z M826.3,274.6c2.2,0,4.6,0.3,6.3,3.4c4.4,8,13.3,11.8,22.1,9.4
				c8.6-2.3,14.4-9.9,14.4-18.9c0-9-5.9-16.6-14.8-19h0c-8.5-2.2-17.2,1.6-21.7,9.6c-1.3,2.4-3.1,3.4-5.9,3.4c0,0,0,0-0.1,0
				c-10.8-0.1-21.8-0.1-32.4,0l-10,0c-3.5,0-6.9,0-10.3,0c-10.4,0-21.2,0-31.7,0.1c-1.4,0-3.4,0.8-4,1.2c-0.8,3.3-0.9,6.6-0.2,9.3
				c0.3,1.3,1.8,1.5,4.9,1.5c0,0,0.1,0,0.1,0l0.2,0c12.1,0,24.1,0,36.2,0C795,274.6,810.6,274.6,826.3,274.6
				C826.2,274.6,826.2,274.6,826.3,274.6z M738.1,263.8L738.1,263.8L738.1,263.8z M849.5,280.4C849.5,280.4,849.5,280.4,849.5,280.4
				c-6.4,0-11.8-5.4-11.9-11.7c0-3.2,1.2-6.2,3.4-8.4c2.3-2.3,5.3-3.5,8.5-3.5c0,0,0,0,0,0c6.6,0,11.7,5,11.7,11.6
				c0,3.3-1.2,6.3-3.5,8.6C855.6,279.1,852.6,280.4,849.5,280.4z M849.5,260.3c-2.3,0-4.4,0.9-6,2.5c-1.5,1.6-2.4,3.6-2.3,5.8
				c0.1,4.3,3.9,8.2,8.3,8.2l0,0c0,0,0,0,0,0c2.2,0,4.2-0.9,5.8-2.4c1.6-1.6,2.5-3.8,2.5-6.1C857.7,263.7,854.2,260.3,849.5,260.3
				C849.5,260.3,849.5,260.3,849.5,260.3z"/>
		</g>
		<g>
			<path class="st3" d="M742.4,219.2c15.3,0,30.5-0.1,45.8,0c4.8,0,8.6-1.7,11.8-5.2c3.9-4.3,8-8.5,11.8-12.9c1.9-2.3,3.9-3.1,7-2.8
				c12.8,1.1,23.3-8.4,23.4-20.9c0.1-8.6-5.2-16.9-13.1-19.9c-8.5-3.3-16.4-1.8-23.1,4.5c-6.3,5.9-8.3,15.3-4.8,23.3
				c1.1,2.4,0.5,3.8-1.1,5.5c-3.1,3.2-5.9,6.8-9.2,9.7c-1.8,1.6-4.4,2.8-6.8,2.9c-6.9,0.4-13.9,0.1-20.8,0.1c-7,0-13.9,0-20.9,0
				c-5.6,0-7.3,1.9-7.3,7.9C735.2,217.4,736.8,219.1,742.4,219.2z M820.9,167.1c5.4,0,10,4.6,10,10c0.1,5.6-4.5,10.1-10.2,10.1
				c-5.6,0-9.9-4.3-10-9.9C810.8,171.6,815.4,167,820.9,167.1z"/>
			<linearGradient id="SVGID_6_" gradientUnits="userSpaceOnUse" x1="733.4135" y1="187.4767" x2="844.0101" y2="187.4767">
				<stop  offset="0" style="stop-color:#01BFFF"/>
				<stop  offset="0.4778" style="stop-color:#12AAFF"/>
				<stop  offset="1" style="stop-color:#4D62FF"/>
			</linearGradient>
			<path class="st7" d="M788.4,221c-0.1,0-0.1,0-0.1,0c-10-0.1-20.3-0.1-30.1,0c-5.2,0-10.4,0-15.7,0c-6.6,0-9-2.6-9-9.6
				c0-6.9,2.5-9.6,9-9.6c4.6,0,9.2,0,13.7,0l7.1,0c2,0,4,0,5.9,0c4.9,0,9.9,0.1,14.8-0.2c1.8-0.1,4.1-1.1,5.7-2.5
				c2-1.7,3.7-3.7,5.6-5.8c1.1-1.3,2.3-2.6,3.5-3.8c1.3-1.3,1.4-2,0.7-3.5c-3.8-8.7-1.7-18.8,5.2-25.3c7.1-6.7,15.8-8.4,25-4.8
				c8.5,3.3,14.3,12.2,14.3,21.6c0,6.5-2.7,12.5-7.4,16.7c-4.8,4.4-11.2,6.5-18,5.9c-2.5-0.2-3.9,0.3-5.5,2.2
				c-2.3,2.7-4.7,5.3-7.1,7.8c-1.6,1.7-3.2,3.4-4.7,5.1C797.9,219.1,793.6,221,788.4,221z M768.5,217.4c6.6,0,13.2,0,19.7,0.1
				c4.3,0,7.6-1.4,10.5-4.6c1.6-1.7,3.2-3.5,4.8-5.2c2.3-2.5,4.7-5.1,7-7.7c2.3-2.7,4.9-3.8,8.5-3.4c5.8,0.5,11.2-1.3,15.2-5
				c4-3.6,6.2-8.6,6.2-14.1c0.1-8-4.9-15.5-12-18.2c-7.9-3.1-15.1-1.7-21.2,4.1c-5.8,5.4-7.5,14-4.4,21.3c1.6,3.6,0.1,5.8-1.5,7.4
				c-1.2,1.2-2.3,2.5-3.4,3.7c-1.8,2.1-3.7,4.2-5.9,6.1c-2.2,1.9-5.2,3.2-7.9,3.3c-5,0.3-10.1,0.2-15,0.2c-2,0-3.9,0-5.9,0l-7.1,0
				c-4.6,0-9.1,0-13.7,0c-4.3,0-5.5,0.8-5.5,6.1c0,5.3,1.1,6,5.4,6.1c5.2,0,10.4,0,15.7,0C761.5,217.4,765,217.4,768.5,217.4z
				 M820.8,188.9C820.8,188.9,820.8,188.9,820.8,188.9c-6.5,0-11.7-5.1-11.7-11.6c0-3.2,1.2-6.3,3.5-8.6c2.2-2.2,5.2-3.5,8.3-3.5
				c0,0,0.1,0,0.1,0c6.3,0.1,11.7,5.4,11.8,11.7c0,3.1-1.2,6.1-3.4,8.4C827.1,187.7,824.1,188.9,820.8,188.9z M820.8,168.8
				c-2.2,0-4.2,0.9-5.7,2.4c-1.6,1.6-2.5,3.7-2.4,6c0.1,4.6,3.6,8.1,8.2,8.1h0c2.3,0,4.4-0.9,6-2.5c1.6-1.6,2.4-3.6,2.4-5.8
				C829.1,172.6,825.3,168.9,820.8,168.8L820.8,168.8C820.9,168.8,820.9,168.8,820.8,168.8z"/>
		</g>
		<g>
			<path class="st3" d="M814.5,306.6c-1.3,0.2-3.1-0.4-4.1-1.4c-3.2-3.2-6.3-6.7-9.2-10.2c-3.5-4.3-7.9-6-13.4-5.9
				c-7.3,0.2-14.6,0-22,0c-7.9,0-15.9,0-23.8,0c-5.1,0-6.8,2.1-6.8,7.9c0,5.9,1.6,7.7,6.9,7.7c11.5,0,23.1-0.1,34.6,0
				c14.5,0.1,10.4-1.8,20.1,9c1.9,2.1,2.4,3.7,1.3,6.5c-3.6,9.2-0.4,19.1,7.5,24.8c7.6,5.4,18.5,5.1,25.7-0.8
				c7.6-6.2,10.1-16.5,6.2-25.2C833.6,310.1,824.2,305.1,814.5,306.6z M817.8,337.7c-5.4-0.1-9.9-4.7-9.8-10.1
				c0.1-5.6,4.9-10.2,10.4-10c5.4,0.2,9.9,4.8,9.8,10.2C828.1,333.4,823.5,337.8,817.8,337.7z"/>
			<linearGradient id="SVGID_7_" gradientUnits="userSpaceOnUse" x1="733.4214" y1="319.0207" x2="841.2187" y2="319.0207">
				<stop  offset="0" style="stop-color:#01BFFF"/>
				<stop  offset="0.4778" style="stop-color:#12AAFF"/>
				<stop  offset="1" style="stop-color:#4D62FF"/>
			</linearGradient>
			<path class="st8" d="M818.1,350.7c-4.7,0-9.4-1.4-13.4-4.2c-8.7-6.2-12-17-8.2-26.9c0.8-2,0.6-2.9-1-4.6c-1.4-1.6-2.6-2.9-3.5-4
				c-4-4.5-4-4.5-9.8-4.5c-1.5,0-3.2,0.1-5.5,0c-7.2-0.1-14.5-0.1-21.5,0c-4.4,0-8.7,0-13.1,0c-6.3,0-8.7-2.6-8.7-9.5
				c0-6.9,2.5-9.7,8.6-9.7c5.4,0,10.7,0,16.1,0c2.6,0,5.2,0,7.8,0c2.3,0,4.5,0,6.8,0c5,0,10.1,0.1,15.2-0.1c6.3-0.1,11.1,2,14.8,6.5
				c2.9,3.6,6,7,9.1,10.1c0.5,0.5,1.8,0.9,2.5,0.8l0,0c10.6-1.6,20.7,3.9,25,13.6c4.2,9.4,1.5,20.7-6.7,27.3
				C828.5,349,823.3,350.7,818.1,350.7z M784.1,303c5.5,0,6.3,0.7,10.7,5.7c0.9,1.1,2.1,2.4,3.5,3.9c2.4,2.7,2.9,5.1,1.6,8.3
				c-3.2,8.3-0.4,17.4,6.9,22.7c6.9,4.9,17,4.6,23.5-0.7c6.9-5.7,9.2-15.2,5.7-23.1c-3.7-8.2-12.2-12.8-21.2-11.5l0,0
				c-1.8,0.3-4.3-0.5-5.6-1.9c-3.2-3.2-6.3-6.7-9.3-10.4c-3-3.7-6.8-5.4-12-5.2c-5.1,0.1-10.3,0.1-15.3,0.1c-2.2,0-4.5,0-6.7,0
				c-2.6,0-5.2,0-7.8,0c-5.3,0-10.7,0-16,0c-3.8,0-5,0.9-5,6.1c0,5.2,1.1,6,5.2,6c4.4,0,8.7,0,13.1,0c7.1,0,14.4,0,21.6,0
				c2.2,0,3.9,0,5.4,0C782.9,303,783.5,303,784.1,303z M818.1,339.5c-0.1,0-0.2,0-0.3,0c-6.5-0.1-11.6-5.5-11.6-11.9
				c0-3.1,1.4-6.2,3.7-8.5c2.3-2.2,5.3-3.4,8.5-3.3c6.3,0.2,11.6,5.7,11.5,12c0,3.2-1.3,6.2-3.6,8.4
				C824.1,338.3,821.2,339.5,818.1,339.5z M818.1,319.3c-2.1,0-4.1,0.8-5.6,2.3c-1.6,1.6-2.6,3.7-2.6,5.9c-0.1,4.4,3.6,8.2,8.1,8.3
				l0,0c2.2,0,4.4-0.8,6-2.3c1.6-1.5,2.5-3.6,2.5-5.9c0.1-4.4-3.6-8.2-8.1-8.4C818.2,319.3,818.1,319.3,818.1,319.3z"/>
		</g>
		<g>
			<path class="st3" d="M626.9,197.8c-31.9,8.1-39.4,32.6-42.6,47.6l-22.5,6.9l5,10.6l16.9-5c0,0,0,9.4,2.5,15.7l-13.1,5l4.4,10.6
				l13.1-5c0,0,15,31.3,48.2,29.4c0,0,6.7-0.3,15.2-4c8.1-3.5,17.8-10.1,24.8-22.5v20.2l22.5-6.9l0-160.2l-22.5,5.6v76.5
				c0,0-9.1-14.8-24.8-22C646.4,196.9,637.3,195.2,626.9,197.8z M654,219.3c11.4,3.2,17.9,11,17.9,11s13.6,14.5,8,34
				c-2.9,10-10,18.4-19.4,23c-2,1-4.2,1.8-6.6,2.5c-3.5,1-7.5,1.6-11.8,1.3c-5.8-0.4-11.4-2.3-16.3-5.4c-3.6-2.2-7.8-5.4-10.9-9.7
				l32.6-11.3l-6.9-8.8l-31.3,10.6c0,0-2.5-10-1.3-16.9l30.1-9.4l-6.6-9.1l-19.7,6c0,0,8.7-16.6,28.4-19
				C645.4,217.7,650,218.2,654,219.3z"/>
			<linearGradient id="SVGID_8_" gradientUnits="userSpaceOnUse" x1="559.2713" y1="226.7605" x2="703.1756" y2="226.7605">
				<stop  offset="0" style="stop-color:#01BFFF"/>
				<stop  offset="0.4778" style="stop-color:#12AAFF"/>
				<stop  offset="1" style="stop-color:#4D62FF"/>
			</linearGradient>
			<path class="st9" d="M635.9,315.5c-27.9,0-42.7-23-46.2-29.1l-13.3,5.1l-5.7-13.9l13.2-5c-1.4-4.3-1.8-9.3-2-12.2l-16.2,4.8
				l-6.5-13.9l23.5-7.2c3.7-17,12.4-39.9,43.7-47.9l0,0c9.6-2.5,19.1-1.6,28.3,2.6c10.6,4.9,18.3,13,22.3,18.1v-72.4l26.1-6.4v163.8
				l-26.1,8v-16.5c-5.7,8-13.4,14.2-22.3,18.1c-8.7,3.8-15.6,4.1-15.9,4.1C637.9,315.5,636.9,315.5,635.9,315.5z M591.5,282l0.7,1.5
				c0.1,0.3,15,30.2,46.5,28.4c0.1,0,6.6-0.3,14.6-3.8c10.3-4.4,18.3-11.8,24-21.8l3.3-5.9V305l19-5.8V142.6l-19,4.7v81.4l-3.3-5.4
				c-0.1-0.1-9-14.5-24.1-21.3c-8.4-3.8-17.1-4.6-25.9-2.4l0,0c-29.9,7.6-37.9,30-41.3,46.2l-0.2,1l-21.6,6.6l3.5,7.4l17.7-5.3
				l0,2.4c0,0.1,0,9.1,2.4,15l0.7,1.7l-13.1,5l3,7.3L591.5,282z M644.4,293.1c-0.8,0-1.5,0-2.3-0.1c-5.8-0.4-11.7-2.3-17.1-5.6
				c-4.9-3-8.7-6.5-11.4-10.2l-1.4-1.9l32.4-11.2l-4.6-5.8L608.1,269l-0.5-1.9c-0.1-0.4-2.6-10.5-1.3-17.7l0.2-1.1l28.7-9l-4.4-6
				l-22.6,6.8l2-3.8c0.4-0.7,9.3-17.5,29.8-19.9c4.9-0.6,9.7-0.2,14.4,1.1l0,0c11.8,3.3,18.6,11.3,18.8,11.6
				c0.5,0.5,14.2,15.4,8.3,35.6c-3,10.5-10.4,19.3-20.3,24.1c-2.2,1.1-4.5,2-6.9,2.6C651.2,292.6,647.8,293.1,644.4,293.1z
				 M617.9,276.9c2.3,2.6,5.3,5.2,8.9,7.4c4.9,3,10.3,4.8,15.5,5.1c3.7,0.2,7.5-0.2,11.2-1.2c2.2-0.6,4.3-1.4,6.3-2.4
				c9-4.4,15.7-12.4,18.4-21.9c5.3-18.3-7.5-32.1-7.6-32.3c-0.1-0.2-6.4-7.6-17.1-10.5l0,0c-4.2-1.2-8.6-1.5-13-1
				c-12.6,1.5-20.5,9.2-24.3,14l16.1-4.9l8.8,12.1l-31.4,9.8c-0.6,4.6,0.4,10.3,1,13.2l30.6-10.4l9.2,11.7L617.9,276.9z"/>
		</g>
	</g>
</g>
<g>
	<linearGradient id="SVGID_9_" gradientUnits="userSpaceOnUse" x1="25.664" y1="226.1109" x2="305.0623" y2="226.1109">
		<stop  offset="0" style="stop-color:#01BFFF"/>
		<stop  offset="0.4778" style="stop-color:#12AAFF"/>
		<stop  offset="1" style="stop-color:#4D62FF"/>
	</linearGradient>
	<path class="st10" d="M25.7,102.2L28.5,282c0,0,26.1,46.6,61.5,71.7s74.5,41,74.5,41s56.4-28,69.6-49.4c0,0,65-79.6,58.2-217.7
		l12.8-14.2l-8.4-11.2c0,0-66.1,21.4-119.2-44.7h-33.5C143.9,57.5,96.4,127.4,25.7,102.2z"/>
	<g>
		<g>
			<linearGradient id="SVGID_10_" gradientUnits="userSpaceOnUse" x1="15.6705" y1="224.3392" x2="312.3691" y2="224.3392">
				<stop  offset="0" style="stop-color:#03B08E"/>
				<stop  offset="0.4778" style="stop-color:#3BBB71"/>
				<stop  offset="1" style="stop-color:#73C754"/>
			</linearGradient>
			<path class="st11" d="M169.8,381.7c-4.2,2-8.3,1.6-12.4-0.4c-21.5-10.2-42.5-21.4-62-35.1c-17.9-12.6-34.9-26.2-47.6-44.4
				c-7.8-11.1-12.3-23.2-12.2-37.1c0.3-49.1,0.1-98.2,0.1-147.3c0-1.5,0-2.9,0-4.3c0.8-0.1,1-0.2,1.2-0.2c1.1,0.2,2.3,0.5,3.4,0.7
				c16,3.8,31.9,3.5,47.7-0.7c24.6-6.6,43.8-20.7,57.6-42c2.7-4.1,5.8-6,10.6-5.7c5.5,0.3,11,0.2,16.4,0c4-0.1,6.8,1.5,8.9,4.9
				c5.1,8.4,11.5,15.9,19.1,22.2c21.4,18,46,25.9,73.9,23.3c5.8-0.5,11.5-1.7,17.6-2.6c0,1.2,0,2.5,0,3.7c0,3.6,0,7.3,0,10.9h20.1
				c0-6.5,0-13.1-0.1-19.6c-0.1-11.1-9.8-18.7-20.4-16c-11.4,2.9-22.6,5.1-34.5,3.7c-15.1-1.7-28.6-7-40.6-16.3
				c-8-6.1-14-13.9-19.6-22.2c-4.4-6.5-10.5-10.9-18.3-11.5c-9.4-0.6-18.9-0.7-28.3-0.2c-8.6,0.4-15.3,5.1-20.1,12.3
				c-1.5,2.3-3.1,4.6-4.8,6.9c-9.3,12.3-21.1,21.3-35.7,26.5c-16.9,6.1-33.9,6.4-51.1,1.3c-13.2-3.9-23.1,3.5-23.1,17.3
				c0,52.6,0,105.2,0,157.8c0,11.2,2.6,21.7,7.4,31.7c8.2,17,20.4,31,34.7,43c31,26.2,65,47.5,103.5,61.1c1.9,0,3.7,0,5.6,0
				c4-1.2,8.1-2.1,11.9-3.8c20-9.3,39.4-19.6,57.9-31.7c10.6-7,20.9-14.4,30.5-22.6h-33C213.9,359.5,192.2,371.1,169.8,381.7z"/>
			<linearGradient id="SVGID_11_" gradientUnits="userSpaceOnUse" x1="13.8467" y1="224.3398" x2="314.1927" y2="224.3398">
				<stop  offset="0" style="stop-color:#03B08E"/>
				<stop  offset="0.4778" style="stop-color:#3BBB71"/>
				<stop  offset="1" style="stop-color:#73C754"/>
			</linearGradient>
			<path class="st12" d="M167.1,405.2h-6.2l-0.3-0.1c-36.2-12.7-70.3-32.8-104.1-61.4c-16-13.5-27.5-27.8-35.1-43.6
				c-5-10.4-7.6-21.4-7.6-32.5c0-32,0-64.1,0-96.1c0-20.6,0-41.2,0-61.7c0-7.3,2.6-13.2,7.4-16.7c4.7-3.5,11.2-4.3,18.1-2.3
				c16.9,5,33.7,4.6,50-1.3c13.9-5,25.6-13.8,34.8-25.9c1.4-1.9,2.9-4,4.7-6.8c5.4-8.1,12.8-12.7,21.5-13.1
				c9.2-0.5,18.8-0.4,28.5,0.2c7.9,0.5,14.7,4.8,19.7,12.3c4.5,6.7,10.8,15.2,19.2,21.7c11.7,9,24.7,14.2,39.7,15.9
				c11,1.2,21.5-0.6,33.8-3.7c5.5-1.4,11.2-0.3,15.6,3.1c4.5,3.4,7,8.8,7.1,14.7c0.1,7.2,0.1,14.3,0.1,19.6l0,1.8h-23.7l0-3.4
				c0-3.1,0-6.2,0-9.3v-1.6c-1.2,0.2-2.5,0.4-3.7,0.6c-4.1,0.7-8,1.3-12,1.7c-28.1,2.6-53.4-5.3-75.2-23.7
				c-7.7-6.5-14.2-14.1-19.4-22.7c-1.8-2.9-4-4.1-7.3-4c-6.2,0.2-11.4,0.2-16.6,0c-4.1-0.2-6.6,1.2-9,4.9
				c-14.1,21.8-33.8,36.2-58.7,42.8c-16.1,4.3-32.5,4.6-48.6,0.7c-0.8-0.2-1.6-0.4-2.4-0.5v2.5c0,13.5,0,27,0,40.5
				c0,35,0.1,71.2-0.1,106.8c-0.1,12.7,3.8,24.6,11.9,36.1c13.2,18.9,31.2,32.9,47.1,44c17,11.9,36.1,22.7,61.7,34.9
				c4,1.9,7.4,2,10.9,0.4l0.8,1.6l-0.8-1.6c25.9-12.3,46.3-23.8,64-36.2l0.5-0.3H272l-3.8,3.2c-8.6,7.4-18.7,14.8-30.7,22.7
				c-16.8,11.1-35.8,21.5-58.1,31.9c-2.7,1.3-5.6,2-8.4,2.8c-1.3,0.3-2.5,0.7-3.7,1.1L167.1,405.2z M161.5,401.6h5
				c1.2-0.4,2.4-0.7,3.6-1c2.8-0.8,5.4-1.5,7.8-2.6c22.1-10.3,41-20.6,57.6-31.6c10.1-6.7,18.8-13,26.5-19.2h-27.4
				c-17.8,12.5-38.1,24-64,36.2c-4.5,2.1-9,2-14-0.4c-25.9-12.3-45.1-23.2-62.3-35.2c-16.1-11.3-34.5-25.5-48-44.9
				c-8.5-12.2-12.6-24.7-12.5-38.2c0.2-35.6,0.2-71.8,0.1-106.8c0-13.5,0-27,0-40.5v-5.9l1.6-0.2c0.3,0,0.5-0.1,0.6-0.1
				c0.4-0.1,0.7-0.1,1.2,0c1.2,0.2,2.3,0.5,3.5,0.8c15.5,3.7,31.3,3.5,46.8-0.7c24-6.4,43-20.3,56.6-41.3c3.1-4.8,6.9-6.8,12.3-6.6
				c5.1,0.3,10.2,0.2,16.3,0c4.6-0.1,8.1,1.8,10.5,5.8c5,8.2,11.3,15.6,18.7,21.8c21,17.7,45.4,25.4,72.5,22.9
				c3.9-0.4,7.7-1,11.7-1.7c1.9-0.3,3.8-0.6,5.8-0.9l2.1-0.3v5.8c0,3,0,6,0,9.1h16.4c0-5.1,0-11.4-0.1-17.8
				c-0.1-4.8-2.1-9.1-5.7-11.9c-3.5-2.7-8-3.5-12.4-2.4c-12.8,3.2-23.6,5.1-35.1,3.8c-15.4-1.7-29.4-7.3-41.5-16.7
				c-8.9-6.8-15.4-15.7-20-22.6c-4.4-6.6-10.1-10.2-17-10.7c-9.5-0.6-19-0.7-28.1-0.2c-7.6,0.4-13.9,4.3-18.7,11.5
				c-1.9,2.9-3.4,5-4.9,7c-9.6,12.7-21.9,21.9-36.5,27.2c-17,6.1-34.6,6.6-52.2,1.3c-5.8-1.7-11.1-1.1-14.9,1.7
				c-3.8,2.8-5.9,7.7-5.9,13.8c0,20.6,0,41.2,0,61.7c0,32,0,64.1,0,96.1c0,10.7,2.3,20.8,7.2,30.9c7.4,15.4,18.6,29.2,34.2,42.4
				C92.3,369.2,125.9,389,161.5,401.6z"/>
		</g>
		<g>
			<linearGradient id="SVGID_12_" gradientUnits="userSpaceOnUse" x1="246.3757" y1="213.4878" x2="435.9804" y2="213.4878">
				<stop  offset="0" style="stop-color:#03B08E"/>
				<stop  offset="0.4778" style="stop-color:#3BBB71"/>
				<stop  offset="1" style="stop-color:#73C754"/>
			</linearGradient>
			<path class="st13" d="M419.6,185.7c-9.5-2.5-19.4,1.6-24.3,10.4c-1.2,2.1-2.5,2.7-4.7,2.7c-10-0.1-20,0-30-0.1
				c-5-0.1-9,1.7-12.5,5.3c-6.1,6.4-12.6,12.5-18.7,18.9c-2.1,2.2-4.4,3.1-7.4,3.1c-11.3-0.1-22.5,0-33.8,0c-11.8,0-23.5-0.1-35.3,0
				c-4.8,0-6.5,2.4-6.5,8.2c0,5.6,1.7,7.9,6.4,7.9c24.7,0.1,49.4,0,74,0c4.4,0,8-1.8,11.1-5c6.4-6.5,12.7-13,19.4-19.3
				c1.7-1.5,4.4-2.7,6.6-2.8c8.8-0.3,17.7,0,26.6-0.2c2.5,0,3.7,0.8,5,3c5,8.7,14.9,12.6,24.5,9.9c9.6-2.7,16.2-11.5,16-21.5
				C435.8,196.8,428.9,188.1,419.6,185.7z M414.5,217.1c-5.7,0.1-10.4-4.4-10.5-10.2c-0.1-5.6,4.4-10.2,9.9-10.3
				c5.8-0.1,10.5,4.3,10.6,10.1C424.5,212.1,419.9,216.9,414.5,217.1z"/>
			<linearGradient id="SVGID_13_" gradientUnits="userSpaceOnUse" x1="244.5524" y1="213.482" x2="437.8043" y2="213.482">
				<stop  offset="0" style="stop-color:#03B08E"/>
				<stop  offset="0.4778" style="stop-color:#3BBB71"/>
				<stop  offset="1" style="stop-color:#73C754"/>
			</linearGradient>
			<path class="st14" d="M283,243.8c-10.1,0-20.2,0-30.2,0c-7.3,0-8.2-5.2-8.2-9.7c0-4.6,0.9-9.9,8.3-10c8.3-0.1,16.7-0.1,24.8,0
				c3.5,0,7,0,10.5,0c3,0,5.9,0,8.9,0c8.2,0,16.6,0,24.9,0.1c2.5,0,4.3-0.7,6.1-2.5c3-3.1,6-6.1,9-9.1c3.2-3.2,6.5-6.5,9.7-9.8
				c3.8-4,8.4-5.9,13.8-5.8c5.2,0.1,10.6,0.1,15.7,0.1c4.7,0,9.5,0,14.3,0c1.7,0,2.3-0.3,3.1-1.8c5.3-9.5,15.9-14,26.4-11.3
				c10.1,2.6,17.5,12,17.7,22.2c0.2,10.8-6.9,20.4-17.3,23.3c-10.5,2.9-21.1-1.4-26.5-10.8c-1-1.7-1.6-2.1-3.4-2.1
				c-3.8,0.1-7.7,0.1-11.4,0c-5,0-10.1,0-15.2,0.1c-1.8,0.1-4.1,1-5.4,2.3c-6.5,6.1-12.9,12.6-19.3,19.2c-3.6,3.7-7.7,5.5-12.4,5.5
				l-20.4,0C298.7,243.8,290.9,243.8,283,243.8z M268.1,227.7c-5.1,0-10.2,0-15.2,0.1c-3.3,0-4.7,0.9-4.7,6.4c0,5.2,1.4,6,4.6,6
				c17.9,0,36.1,0,53.7,0l20.4,0c3.7,0,6.8-1.4,9.8-4.4c6.5-6.7,12.9-13.2,19.5-19.3c2-1.8,5.1-3.1,7.8-3.2
				c5.1-0.2,10.3-0.2,15.3-0.1c3.7,0,7.6,0,11.3,0c3.1-0.1,5,1.1,6.6,3.9c4.6,7.9,13.6,11.5,22.4,9.1c8.8-2.4,14.8-10.5,14.7-19.7
				c-0.1-8.7-6.4-16.5-15-18.8l0,0c-8.8-2.3-17.8,1.5-22.3,9.5c-1.4,2.6-3.3,3.7-6.2,3.7c0,0-0.1,0-0.1,0c-4.7,0-9.6,0-14.2,0
				c-5.2,0-10.5,0-15.8-0.1c-4.5-0.1-8,1.4-11.2,4.7c-3.2,3.3-6.5,6.6-9.8,9.8c-3,2.9-6,6-9,9c-2.4,2.5-5.2,3.6-8.7,3.6
				c-8.3-0.1-16.7-0.1-24.9-0.1c-3.2,0-6.5,0-9.7,0c-3.2,0-6.4,0-9.6,0C274.6,227.7,271.4,227.7,268.1,227.7z M414.2,218.9
				c-3.1,0-6.1-1.2-8.3-3.4c-2.4-2.3-3.7-5.3-3.8-8.6c-0.1-6.6,5.1-12.1,11.7-12.2c3.3-0.1,6.4,1.1,8.8,3.4c2.3,2.2,3.6,5.3,3.7,8.5
				c0.1,6.5-5.3,12.1-11.7,12.3C414.4,218.9,414.3,218.9,414.2,218.9z M414.1,198.4c-0.1,0-0.1,0-0.2,0c-4.6,0.1-8.2,3.9-8.1,8.5
				c0,2.3,1,4.5,2.6,6c1.6,1.6,3.7,2.4,6,2.3l0,0c4.4-0.1,8.3-4.1,8.2-8.6c0-2.3-0.9-4.4-2.6-5.9
				C418.5,199.2,416.4,198.4,414.1,198.4z"/>
		</g>
		<g>
			<linearGradient id="SVGID_14_" gradientUnits="userSpaceOnUse" x1="246.9141" y1="263.079" x2="384.6957" y2="263.079">
				<stop  offset="0" style="stop-color:#03B08E"/>
				<stop  offset="0.4778" style="stop-color:#3BBB71"/>
				<stop  offset="1" style="stop-color:#73C754"/>
			</linearGradient>
			<path class="st15" d="M368.3,242c-9.4-2.5-19.2,1.8-24.2,10.7c-1.1,2-2.3,2.6-4.5,2.5c-14.4-0.1-28.9,0-43.3,0
				c-14.3,0-28.6-0.1-42.9,0.1c-2,0-5.4,1.2-5.7,2.4c-0.9,3.4-1.1,7.2-0.3,10.6c0.8,3,4.3,2.9,7.1,2.9c28.2,0,56.4,0,84.7,0
				c2.2,0,3.6,0.3,4.9,2.5c5,9,15,13.1,24.6,10.5c9.5-2.6,16-11.1,16-21.1C384.7,253.1,378.1,244.6,368.3,242z M362.9,273.4
				c-5.5,0-10.2-4.7-10.3-10.2c-0.1-5.7,4.5-10.3,10.4-10.3c5.7,0,10.1,4.3,10.1,10C373.2,268.7,368.6,273.4,362.9,273.4z"/>
			<linearGradient id="SVGID_15_" gradientUnits="userSpaceOnUse" x1="245.0864" y1="263.0813" x2="386.5197" y2="263.0813">
				<stop  offset="0" style="stop-color:#03B08E"/>
				<stop  offset="0.4778" style="stop-color:#3BBB71"/>
				<stop  offset="1" style="stop-color:#73C754"/>
			</linearGradient>
			<path class="st16" d="M362.9,286.7c-8.3,0-16.1-4.5-20.4-12.2c-0.8-1.4-1.4-1.6-3.3-1.6c-15.9,0-31.8,0-47.7,0
				c-12.3,0-24.6,0-36.9,0l-0.2,0c-3,0-7.6,0-8.7-4.3c-0.8-3.4-0.7-7.5,0.3-11.5c0.7-2.8,5.8-3.8,7.5-3.8
				c10.8-0.2,21.8-0.1,32.4-0.1c3.5,0,7,0,10.5,0l10.2,0c10.8,0,22.1,0,33.1,0c1.5,0,2.1-0.3,2.9-1.6c5.4-9.6,15.9-14.2,26.2-11.5
				c10.7,2.8,17.8,12,17.8,22.9c0,10.8-7,20-17.4,22.8C367,286.4,364.9,286.7,362.9,286.7z M339.3,269.3c2.3,0,4.7,0.3,6.4,3.4
				c4.5,8.2,13.6,12,22.5,9.6c8.7-2.4,14.7-10.1,14.7-19.3s-6-16.9-15.1-19.3h0c-8.7-2.3-17.6,1.7-22.1,9.8c-1.4,2.4-3.2,3.5-6,3.5
				c0,0,0,0-0.1,0c-11-0.1-22.2-0.1-33.1,0l-10.2,0c-3.5,0-7,0-10.5,0c-10.6,0-21.6,0-32.4,0.1c-1.5,0-3.5,0.8-4,1.2
				c-0.8,3.3-0.9,6.8-0.2,9.5c0.3,1.3,1.8,1.6,5,1.6c0,0,0.1,0,0.1,0l0.2,0c12.3,0,24.6,0,36.9,0
				C307.4,269.3,323.3,269.3,339.3,269.3C339.2,269.3,339.3,269.3,339.3,269.3z M249.4,258.4L249.4,258.4L249.4,258.4z M363,275.2
				C363,275.2,362.9,275.2,363,275.2c-6.5,0-12-5.5-12.1-12c0-3.2,1.2-6.3,3.4-8.6c2.3-2.3,5.4-3.6,8.7-3.6c0,0,0,0,0,0
				c6.8,0,11.9,5.1,12,11.8c0,3.3-1.2,6.4-3.6,8.8C369.2,274,366.2,275.2,363,275.2z M363,254.7c-2.3,0-4.5,0.9-6.1,2.5
				c-1.6,1.6-2.4,3.7-2.4,6c0.1,4.4,4,8.3,8.4,8.4l0,0c0,0,0,0,0,0c2.2,0,4.3-0.9,5.9-2.4c1.6-1.6,2.5-3.8,2.5-6.2
				C371.3,258.3,367.7,254.8,363,254.7C363,254.7,363,254.7,363,254.7z"/>
		</g>
		<g>
			<linearGradient id="SVGID_16_" gradientUnits="userSpaceOnUse" x1="246.4117" y1="180.4867" x2="355.5622" y2="180.4867">
				<stop  offset="0" style="stop-color:#03B08E"/>
				<stop  offset="0.4778" style="stop-color:#3BBB71"/>
				<stop  offset="1" style="stop-color:#73C754"/>
			</linearGradient>
			<path class="st17" d="M253.8,212.8c15.6,0,31.1-0.1,46.7,0c4.9,0,8.8-1.7,12.1-5.3c4-4.4,8.2-8.7,12-13.2c2-2.3,4-3.2,7.1-2.9
				c13.1,1.2,23.8-8.5,23.9-21.3c0.1-8.8-5.3-17.2-13.4-20.3c-8.7-3.4-16.7-1.9-23.5,4.6c-6.4,6-8.4,15.6-4.9,23.7
				c1.1,2.5,0.5,3.9-1.1,5.6c-3.2,3.3-6,6.9-9.4,9.9c-1.8,1.6-4.5,2.8-6.9,3c-7.1,0.4-14.2,0.1-21.3,0.1c-7.1,0-14.2,0-21.3,0
				c-5.7,0-7.4,1.9-7.4,8C246.4,211,248.1,212.8,253.8,212.8z M333.9,159.7c5.5,0.1,10.2,4.7,10.2,10.2c0.1,5.7-4.6,10.4-10.4,10.3
				c-5.7,0-10.1-4.4-10.1-10.1C323.5,164.3,328.2,159.6,333.9,159.7z"/>
			<linearGradient id="SVGID_17_" gradientUnits="userSpaceOnUse" x1="244.5881" y1="180.4934" x2="357.3858" y2="180.4934">
				<stop  offset="0" style="stop-color:#03B08E"/>
				<stop  offset="0.4778" style="stop-color:#3BBB71"/>
				<stop  offset="1" style="stop-color:#73C754"/>
			</linearGradient>
			<path class="st18" d="M300.6,214.7c-0.1,0-0.1,0-0.2,0c-10.2-0.1-20.7-0.1-30.7,0c-5.3,0-10.7,0-16,0c-6.7,0-9.2-2.7-9.2-9.8
				c0-7.1,2.6-9.8,9.2-9.8c4.7,0,9.3,0,14,0l7.3,0c2,0,4,0,6.1,0c5,0,10.1,0.1,15.1-0.2c1.9-0.1,4.2-1.1,5.8-2.5
				c2-1.8,3.8-3.8,5.7-5.9c1.2-1.3,2.3-2.6,3.6-3.9c1.3-1.3,1.4-2,0.8-3.6c-3.9-8.8-1.7-19.2,5.3-25.8c7.3-6.8,16.1-8.6,25.4-4.9
				c8.6,3.3,14.6,12.4,14.6,22c0,6.6-2.7,12.7-7.5,17.1c-4.9,4.5-11.4,6.6-18.3,6c-2.5-0.2-3.9,0.3-5.6,2.2c-2.3,2.7-4.8,5.4-7.2,8
				c-1.6,1.7-3.2,3.5-4.8,5.2C310.3,212.7,306,214.7,300.6,214.7z M280.4,211c6.7,0,13.4,0,20.1,0.1c4.4,0.1,7.8-1.5,10.7-4.7
				c1.6-1.8,3.2-3.5,4.9-5.3c2.4-2.6,4.8-5.2,7.1-7.9c2.4-2.8,5-3.8,8.7-3.5c5.9,0.5,11.4-1.3,15.5-5.1c4.1-3.7,6.3-8.8,6.3-14.4
				c0.1-8.2-5-15.8-12.2-18.6c-8.1-3.1-15.4-1.7-21.6,4.2c-5.9,5.5-7.7,14.3-4.4,21.7c1.6,3.7,0.1,5.9-1.5,7.6
				c-1.2,1.2-2.3,2.5-3.5,3.8c-1.9,2.1-3.8,4.3-6,6.2c-2.2,1.9-5.3,3.3-8,3.4c-5.1,0.3-10.3,0.2-15.3,0.2c-2,0-4,0-6,0l-7.3,0
				c-4.7,0-9.3,0-14,0c-4.4,0-5.6,0.8-5.6,6.2c0,5.4,1.1,6.2,5.6,6.2c5.3,0,10.6,0,16,0C273.3,211,276.8,211,280.4,211z M333.7,182
				C333.7,182,333.7,182,333.7,182c-6.6,0-11.9-5.2-12-11.9c0-3.3,1.2-6.4,3.6-8.8c2.3-2.3,5.3-3.5,8.4-3.5c0,0,0.1,0,0.1,0
				c6.5,0.1,12,5.5,12.1,12c0,3.2-1.2,6.2-3.5,8.6C340.1,180.7,337,182,333.7,182z M333.8,161.5c-2.2,0-4.3,0.9-5.9,2.5
				c-1.6,1.6-2.5,3.8-2.5,6.1c0.1,4.7,3.6,8.3,8.3,8.3h0c2.3,0,4.5-0.9,6.1-2.6c1.6-1.6,2.4-3.7,2.4-5.9
				C342.2,165.4,338.4,161.5,333.8,161.5L333.8,161.5C333.8,161.5,333.8,161.5,333.8,161.5z"/>
		</g>
		<g>
			<path class="st19" d="M331.2,315c-0.1,0-0.2,0-0.2,0c-2.1,0-4.2,0.8-5.8,2.4c-1.7,1.6-2.7,3.8-2.7,6.1c-0.1,4.5,3.7,8.4,8.2,8.5
				c2.3,0,4.5-0.8,6.1-2.4c1.6-1.6,2.5-3.7,2.6-6C339.4,319,335.7,315.1,331.2,315z"/>
			<linearGradient id="SVGID_18_" gradientUnits="userSpaceOnUse" x1="246.4203" y1="314.6299" x2="352.7287" y2="314.6299">
				<stop  offset="0" style="stop-color:#03B08E"/>
				<stop  offset="0.4778" style="stop-color:#3BBB71"/>
				<stop  offset="1" style="stop-color:#73C754"/>
			</linearGradient>
			<path class="st20" d="M349.2,315.5c-3.7-8.3-12.4-13.1-21.7-11.7c-1.9,0.3-4.3-0.5-5.7-1.9c-3.2-3.2-6.4-6.8-9.5-10.6
				c-3.1-3.8-7-5.5-12.2-5.3c-5.2,0.1-10.5,0.1-15.6,0.1c-2.3,0-4.6,0-6.9,0c-2.7,0-5.3,0-8,0c-5.4,0-10.9,0-16.3,0
				c-3.9,0-5.1,0.9-5.1,6.3c0,5.3,1.1,6.1,5.3,6.1c4.5,0,8.9,0,13.4,0c7.2,0,14.7,0,22,0c2.2,0,4,0,5.5,0c0.7,0,1.4,0,2,0
				c5.6,0,6.4,0.7,10.9,5.8c0.9,1.1,2.1,2.4,3.5,4c2.5,2.7,3,5.2,1.7,8.5c-3.3,8.5-0.5,17.8,7,23.1c7,5,17.3,4.7,24-0.7
				C350.5,333.3,352.8,323.6,349.2,315.5z M339.4,332.1c-2.3,2.2-5.3,3.4-8.4,3.4c-0.1,0-0.2,0-0.3,0c-6.6-0.2-11.9-5.6-11.8-12.2
				c0-3.2,1.4-6.4,3.8-8.6c2.4-2.3,5.4-3.5,8.6-3.4c6.4,0.2,11.8,5.8,11.8,12.2C343,326.8,341.7,329.9,339.4,332.1z"/>
			<linearGradient id="SVGID_19_" gradientUnits="userSpaceOnUse" x1="244.5963" y1="314.6554" x2="354.5388" y2="314.6554">
				<stop  offset="0" style="stop-color:#03B08E"/>
				<stop  offset="0.4778" style="stop-color:#3BBB71"/>
				<stop  offset="1" style="stop-color:#73C754"/>
			</linearGradient>
			<path class="st21" d="M352.5,314c-4.4-9.9-14.7-15.4-25.5-13.8c-0.7,0.1-2-0.3-2.6-0.9c-3.2-3.2-6.3-6.6-9.3-10.3
				c-3.8-4.6-8.7-6.8-15.1-6.7c-5.1,0.1-10.4,0.1-15.5,0.1c-2.3,0-4.6,0-6.9,0c-2.6,0-5.3,0-7.9,0c-5.5,0-10.9,0-16.4,0
				c-6.2,0-8.8,2.9-8.8,9.9c0,7.1,2.4,9.7,8.9,9.7c4.5,0,8.9,0,13.4,0c7.2,0,14.6,0,21.9,0c2.3,0,4.1,0,5.6,0c6-0.1,6-0.1,10,4.5
				c1,1.1,2.1,2.4,3.6,4c1.6,1.7,1.8,2.7,1,4.7c-3.9,10.1-0.5,21.1,8.3,27.4c4,2.9,8.8,4.3,13.6,4.3c5.3,0,10.6-1.7,14.8-5.2
				C354,335,356.8,323.6,352.5,314z M344.6,340.4c-7.3,6-18.4,6.3-26.2,0.8c-8.1-5.7-11.3-15.9-7.7-25.2c1.1-2.8,0.6-4.5-1.3-6.6
				c-10-11-5.8-9-20.5-9.2c-11.8-0.1-23.6,0-35.3,0c-5.4,0-7.1-1.9-7.1-7.9c0-6,1.7-8.1,6.9-8.1c8.1,0,16.2,0,24.3,0
				c7.5,0,14.9,0.1,22.4,0c5.6-0.1,10.1,1.6,13.7,6c3,3.6,6.1,7.1,9.4,10.4c0.9,0.9,2.8,1.6,4.1,1.4c10-1.5,19.5,3.6,23.6,12.8
				C354.9,323.6,352.3,334.1,344.6,340.4z"/>
			<linearGradient id="SVGID_20_" gradientUnits="userSpaceOnUse" x1="244.5963" y1="323.4279" x2="354.5388" y2="323.4279">
				<stop  offset="0" style="stop-color:#03B08E"/>
				<stop  offset="0.4778" style="stop-color:#3BBB71"/>
				<stop  offset="1" style="stop-color:#73C754"/>
			</linearGradient>
			<path class="st22" d="M331.2,313.2c-5.6-0.2-10.5,4.6-10.6,10.2c-0.1,5.5,4.5,10.2,10,10.3c5.8,0.1,10.5-4.4,10.5-10.2
				C341.3,318.1,336.7,313.3,331.2,313.2z M336.8,329.5c-1.6,1.6-3.8,2.4-6.1,2.4c-4.5-0.1-8.3-4-8.2-8.5c0-2.2,1-4.4,2.7-6.1
				c1.6-1.5,3.6-2.4,5.8-2.4c0.1,0,0.2,0,0.2,0c4.5,0.1,8.3,4,8.2,8.5C339.4,325.8,338.4,327.9,336.8,329.5z"/>
			<linearGradient id="SVGID_21_" gradientUnits="userSpaceOnUse" x1="246.4203" y1="323.4277" x2="352.7287" y2="323.4277">
				<stop  offset="0" style="stop-color:#03B08E"/>
				<stop  offset="0.4778" style="stop-color:#3BBB71"/>
				<stop  offset="1" style="stop-color:#73C754"/>
			</linearGradient>
			<path class="st23" d="M331.3,311.3c-3.2-0.1-6.3,1.1-8.6,3.4c-2.4,2.3-3.8,5.4-3.8,8.6c-0.1,6.6,5.2,12,11.8,12.2
				c0.1,0,0.2,0,0.3,0c3.2,0,6.2-1.2,8.4-3.4c2.3-2.3,3.6-5.3,3.7-8.6C343.1,317.1,337.7,311.5,331.3,311.3z M330.7,333.7
				c-5.5-0.1-10.1-4.8-10-10.3c0.1-5.7,4.9-10.4,10.6-10.2c5.5,0.2,10.1,4.9,10,10.4C341.1,329.3,336.4,333.8,330.7,333.7z"/>
			<linearGradient id="SVGID_22_" gradientUnits="userSpaceOnUse" x1="244.5963" y1="323.4277" x2="354.5388" y2="323.4277">
				<stop  offset="0" style="stop-color:#03B08E"/>
				<stop  offset="0.4778" style="stop-color:#3BBB71"/>
				<stop  offset="1" style="stop-color:#73C754"/>
			</linearGradient>
			<path class="st24" d="M331.3,311.3c-3.2-0.1-6.3,1.1-8.6,3.4c-2.4,2.3-3.8,5.4-3.8,8.6c-0.1,6.6,5.2,12,11.8,12.2
				c0.1,0,0.2,0,0.3,0c3.2,0,6.2-1.2,8.4-3.4c2.3-2.3,3.6-5.3,3.7-8.6C343.1,317.1,337.7,311.5,331.3,311.3z M330.7,333.7
				c-5.5-0.1-10.1-4.8-10-10.3c0.1-5.7,4.9-10.4,10.6-10.2c5.5,0.2,10.1,4.9,10,10.4C341.1,329.3,336.4,333.8,330.7,333.7z"/>
			<linearGradient id="SVGID_23_" gradientUnits="userSpaceOnUse" x1="246.4203" y1="314.6434" x2="352.7287" y2="314.6434">
				<stop  offset="0" style="stop-color:#03B08E"/>
				<stop  offset="0.4778" style="stop-color:#3BBB71"/>
				<stop  offset="1" style="stop-color:#73C754"/>
			</linearGradient>
			<path class="st25" d="M350.9,314.7c-4.1-9.2-13.6-14.2-23.6-12.8c-1.3,0.2-3.2-0.4-4.1-1.4c-3.3-3.3-6.4-6.8-9.4-10.4
				c-3.6-4.4-8.1-6.1-13.7-6c-7.5,0.2-14.9,0-22.4,0c-8.1,0-16.2,0-24.3,0c-5.2,0-7,2.1-6.9,8.1c0,6,1.7,7.9,7.1,7.9
				c11.8,0,23.6-0.1,35.3,0c14.7,0.1,10.6-1.8,20.5,9.2c1.9,2.1,2.4,3.8,1.3,6.6c-3.6,9.4-0.4,19.5,7.7,25.2
				c7.8,5.5,18.9,5.2,26.2-0.8C352.3,334.1,354.9,323.6,350.9,314.7z M343.4,339c-6.6,5.4-16.9,5.7-24,0.7
				c-7.5-5.3-10.3-14.6-7-23.1c1.3-3.3,0.8-5.8-1.7-8.5c-1.4-1.6-2.6-2.9-3.5-4c-4.5-5.1-5.3-5.8-10.9-5.8c-0.6,0-1.2,0-2,0
				c-1.5,0-3.3,0-5.5,0c-7.3-0.1-14.8-0.1-22,0c-4.5,0-8.9,0-13.4,0c-4.1,0-5.2-0.8-5.3-6.1c0-5.3,1.3-6.2,5.1-6.3
				c5.4,0,10.9,0,16.3,0c2.7,0,5.3,0,8,0c2.3,0,4.6,0,6.9,0c5.1,0,10.4,0.1,15.6-0.1c5.2-0.1,9.1,1.6,12.2,5.3
				c3.1,3.8,6.3,7.3,9.5,10.6c1.4,1.4,3.8,2.2,5.7,1.9c9.2-1.4,17.9,3.4,21.7,11.7C352.8,323.6,350.5,333.3,343.4,339z"/>
			<linearGradient id="SVGID_24_" gradientUnits="userSpaceOnUse" x1="244.5963" y1="314.6434" x2="354.5388" y2="314.6434">
				<stop  offset="0" style="stop-color:#03B08E"/>
				<stop  offset="0.4778" style="stop-color:#3BBB71"/>
				<stop  offset="1" style="stop-color:#73C754"/>
			</linearGradient>
			<path class="st26" d="M350.9,314.7c-4.1-9.2-13.6-14.2-23.6-12.8c-1.3,0.2-3.2-0.4-4.1-1.4c-3.3-3.3-6.4-6.8-9.4-10.4
				c-3.6-4.4-8.1-6.1-13.7-6c-7.5,0.2-14.9,0-22.4,0c-8.1,0-16.2,0-24.3,0c-5.2,0-7,2.1-6.9,8.1c0,6,1.7,7.9,7.1,7.9
				c11.8,0,23.6-0.1,35.3,0c14.7,0.1,10.6-1.8,20.5,9.2c1.9,2.1,2.4,3.8,1.3,6.6c-3.6,9.4-0.4,19.5,7.7,25.2
				c7.8,5.5,18.9,5.2,26.2-0.8C352.3,334.1,354.9,323.6,350.9,314.7z M343.4,339c-6.6,5.4-16.9,5.7-24,0.7
				c-7.5-5.3-10.3-14.6-7-23.1c1.3-3.3,0.8-5.8-1.7-8.5c-1.4-1.6-2.6-2.9-3.5-4c-4.5-5.1-5.3-5.8-10.9-5.8c-0.6,0-1.2,0-2,0
				c-1.5,0-3.3,0-5.5,0c-7.3-0.1-14.8-0.1-22,0c-4.5,0-8.9,0-13.4,0c-4.1,0-5.2-0.8-5.3-6.1c0-5.3,1.3-6.2,5.1-6.3
				c5.4,0,10.9,0,16.3,0c2.7,0,5.3,0,8,0c2.3,0,4.6,0,6.9,0c5.1,0,10.4,0.1,15.6-0.1c5.2-0.1,9.1,1.6,12.2,5.3
				c3.1,3.8,6.3,7.3,9.5,10.6c1.4,1.4,3.8,2.2,5.7,1.9c9.2-1.4,17.9,3.4,21.7,11.7C352.8,323.6,350.5,333.3,343.4,339z"/>
		</g>
		<g>
			<linearGradient id="SVGID_25_" gradientUnits="userSpaceOnUse" x1="69.5271" y1="220.811" x2="211.9249" y2="220.811">
				<stop  offset="0" style="stop-color:#03B08E"/>
				<stop  offset="0.4778" style="stop-color:#3BBB71"/>
				<stop  offset="1" style="stop-color:#73C754"/>
			</linearGradient>
			<path class="st27" d="M135.9,191c-32.6,8.3-40.2,33.2-43.4,48.5l-23,7l5.1,10.9l17.2-5.1c0,0,0,9.6,2.6,16L81,273.4l4.5,10.9
				l13.4-5.1c0,0,15.3,31.9,49.2,30c0,0,6.9-0.3,15.5-4c8.3-3.6,18.2-10.3,25.3-23v20.6l23-7l0-163.4l-23,5.7v78
				c0,0-9.3-15.1-25.3-22.5C155.9,190.1,146.5,188.3,135.9,191z M163.6,213c11.6,3.2,18.3,11.3,18.3,11.3s13.9,14.8,8.2,34.7
				c-3,10.2-10.2,18.8-19.8,23.5c-2,1-4.3,1.9-6.7,2.6c-3.6,1-7.6,1.6-12,1.3c-5.9-0.4-11.6-2.4-16.6-5.5c-3.6-2.2-8-5.5-11.1-9.9
				l33.2-11.5l-7-8.9l-31.9,10.9c0,0-2.6-10.2-1.3-17.2l30.7-9.6l-6.7-9.3l-20.1,6.1c0,0,8.8-17,29-19.3
				C154.8,211.3,159.5,211.9,163.6,213z"/>
			<linearGradient id="SVGID_26_" gradientUnits="userSpaceOnUse" x1="66.9802" y1="220.5591" x2="213.7485" y2="220.5591">
				<stop  offset="0" style="stop-color:#01BFFF"/>
				<stop  offset="0.4778" style="stop-color:#12AAFF"/>
				<stop  offset="1" style="stop-color:#4D62FF"/>
			</linearGradient>
			<path class="st28" d="M145.2,311.1c-28.4,0-43.6-23.4-47.1-29.6l-13.6,5.2l-5.9-14.2l13.5-5.1c-1.4-4.4-1.8-9.5-2-12.5l-16.5,4.9
				L67,245.5l24-7.3c3.8-17.4,12.7-40.7,44.5-48.9l0,0c9.8-2.5,19.5-1.6,28.9,2.7c10.8,5,18.6,13.2,22.7,18.5v-73.8l26.6-6.6v167.1
				l-26.6,8.2v-16.9c-5.9,8.2-13.6,14.5-22.8,18.4c-8.9,3.8-15.9,4.2-16.2,4.2C147.1,311,146.1,311.1,145.2,311.1z M99.8,276.9
				l0.7,1.5c0.1,0.3,15.3,30.8,47.4,29c0.1,0,6.7-0.3,14.9-3.9c10.5-4.5,18.7-12,24.5-22.2l3.4-6v25.1l19.3-5.9V134.7l-19.3,4.8v83
				l-3.4-5.5c-0.1-0.1-9.2-14.8-24.5-21.8c-8.6-3.9-17.5-4.7-26.5-2.5l0,0c-30.5,7.8-38.6,30.6-42.1,47.1l-0.2,1.1l-22,6.7l3.5,7.5
				l18.1-5.4l0,2.4c0,0.1,0,9.3,2.4,15.3l0.7,1.7l-13.4,5.1l3.1,7.5L99.8,276.9z M153.8,288.2c-0.8,0-1.6,0-2.4-0.1
				c-5.9-0.4-12-2.4-17.5-5.8c-5-3.1-8.9-6.6-11.7-10.4l-1.4-2l33.1-11.5l-4.6-5.9l-32.6,11.1l-0.5-1.9c-0.1-0.4-2.6-10.7-1.3-18
				l0.2-1.1l29.3-9.2l-4.5-6.2l-23,6.9l2-3.8c0.4-0.7,9.5-17.8,30.4-20.3c5-0.6,9.9-0.2,14.7,1.1l0,0c12.1,3.3,18.9,11.5,19.2,11.8
				c0.5,0.5,14.5,15.7,8.5,36.3c-3.1,10.7-10.6,19.7-20.7,24.6c-2.2,1.1-4.6,2-7,2.7C160.7,287.7,157.3,288.2,153.8,288.2z
				 M126.8,271.7c2.3,2.7,5.4,5.3,9.1,7.5c5,3.1,10.5,4.9,15.8,5.2c3.8,0.2,7.6-0.2,11.4-1.2c2.2-0.6,4.4-1.4,6.4-2.5
				c9.2-4.5,16-12.7,18.8-22.4c5.4-18.6-7.6-32.8-7.7-32.9c-0.1-0.2-6.6-7.7-17.5-10.7l0,0c-4.3-1.2-8.8-1.5-13.3-1
				c-12.8,1.5-20.9,9.4-24.8,14.3l16.4-5l9,12.4l-32,10c-0.6,4.7,0.4,10.5,1,13.5l31.2-10.6l9.4,12L126.8,271.7z"/>
		</g>
	</g>
</g>
<g>
	<linearGradient id="SVGID_27_" gradientUnits="userSpaceOnUse" x1="80.6662" y1="1246.3098" x2="353.3763" y2="1246.3098">
		<stop  offset="0" style="stop-color:#01BFFF"/>
		<stop  offset="0.4778" style="stop-color:#12AAFF"/>
		<stop  offset="1" style="stop-color:#4D62FF"/>
	</linearGradient>
	<path class="st29" d="M80.7,1159.2c0-5.8,0-11.5,0-17.3c-0.1-12.8,4.3-16.4,17.2-17.5c18.5-1.7,37.2-3.5,55.4-7.4
		c19.4-4.1,36.6-14.1,52.2-26.5c8.3-6.6,14.4-6.7,22.6-0.2c27.1,21.4,58.1,32,92.4,33.4c6.5,0.3,12.9,0.5,19.4,1
		c8.2,0.5,13.7,5.5,13.5,13.8c-0.8,29-1.5,58-3.3,87c-1.2,19.1-3.7,38.2-6.6,57.1c-5.9,39.4-24.4,69.8-61.3,88.3
		c-19,9.5-36.9,21.5-55,32.7c-6.6,4-12.5,5.1-19.4,0.9c-17.7-10.9-35-22.9-53.7-32.1c-39.2-19.3-59.1-51.4-64.3-93.4
		c-3.2-26.1-5.5-52.4-7.3-78.7c-1-13.6-0.2-27.3-0.2-41C81.8,1159.2,81.2,1159.2,80.7,1159.2z M324.5,1180.8
		c0-8.2-0.7-13.8,0.2-19.2c1.1-7.1-1.6-9.7-8.2-9.7c-1.4,0-2.9-0.4-4.3-0.5c-32.4-2.6-62.5-11.9-89.5-30.4
		c-4.2-2.9-7.3-2.7-11.7-0.1c-9.4,5.7-19,11.2-29,15.7c-19.1,8.8-39.5,13.1-60.5,14.7c-13,1-13.1,1.1-12.8,13.8
		c0.3,10.3,0.4,20.6,1.3,30.9c2.7,28.6,4.8,57.3,8.9,85.7c3.7,25.3,14.8,46.8,38.8,59.8c18.8,10.1,36.9,21.4,55.5,31.8
		c1.9,1.1,5.6,0.7,7.6-0.5c18-10,35.7-20.6,53.8-30.6c19.4-10.7,31.4-26.6,37.1-48C322,1256.2,322.5,1217.1,324.5,1180.8z"/>
</g>
<g>
	<linearGradient id="SVGID_28_" gradientUnits="userSpaceOnUse" x1="494.2832" y1="1246.3098" x2="766.9933" y2="1246.3098">
		<stop  offset="0" style="stop-color:#01BFFF"/>
		<stop  offset="0.4778" style="stop-color:#12AAFF"/>
		<stop  offset="1" style="stop-color:#4D62FF"/>
	</linearGradient>
	<path class="st30" d="M494.3,1159.2c0-5.8,0-11.5,0-17.3c-0.1-12.8,4.3-16.4,17.2-17.5c18.5-1.7,37.2-3.5,55.4-7.4
		c19.4-4.1,36.6-14.1,52.2-26.5c8.3-6.6,14.4-6.7,22.6-0.2c27.1,21.4,58.1,32,92.4,33.4c6.5,0.3,12.9,0.5,19.4,1
		c8.2,0.5,13.7,5.5,13.5,13.8c-0.8,29-1.5,58-3.3,87c-1.2,19.1-3.7,38.2-6.6,57.1c-5.9,39.4-24.4,69.8-61.3,88.3
		c-19,9.5-36.9,21.5-55,32.7c-6.6,4-12.5,5.1-19.4,0.9c-17.7-10.9-35-22.9-53.7-32.1c-39.2-19.3-59.1-51.4-64.3-93.4
		c-3.2-26.1-5.5-52.4-7.3-78.7c-1-13.6-0.2-27.3-0.2-41C495.4,1159.2,494.8,1159.2,494.3,1159.2z M738.2,1180.8
		c0-8.2-0.7-13.8,0.2-19.2c1.1-7.1-1.6-9.7-8.2-9.7c-1.4,0-2.9-0.4-4.3-0.5c-32.4-2.6-62.5-11.9-89.5-30.4
		c-4.2-2.9-7.3-2.7-11.7-0.1c-9.4,5.7-19,11.2-29,15.7c-19.1,8.8-39.5,13.1-60.5,14.7c-13,1-13.1,1.1-12.8,13.8
		c0.3,10.3,0.4,20.6,1.3,30.9c2.7,28.6,4.8,57.3,8.9,85.7c3.7,25.3,14.8,46.8,38.8,59.8c18.8,10.1,36.9,21.4,55.5,31.8
		c1.9,1.1,5.6,0.7,7.6-0.5c18-10,35.7-20.6,53.8-30.6c19.4-10.7,31.4-26.6,37.1-48C735.6,1256.2,736.1,1217.1,738.2,1180.8z"/>
</g>
</svg>
