<?xml version="1.0" encoding="utf-8"?>
<!-- Generator: Adobe Illustrator 24.3.0, SVG Export Plug-In . SVG Version: 6.00 Build 0)  -->
<svg version="1.1" id="Layer_1" xmlns="http://www.w3.org/2000/svg" xmlns:xlink="http://www.w3.org/1999/xlink" x="0px" y="0px"
	 viewBox="0 0 376 128.1" style="enable-background:new 0 0 376 128.1;" xml:space="preserve">
<style type="text/css">
	.st0{fill:#2E86FF;}
	.st1{fill:#FFFFFF;filter:url(#AI_BevelShadow_1);}
	.st2{fill:#2E86FF;filter:url(#AI_BevelShadow_1);}
</style>
<filter  height="140%" id="AI_BevelShadow_1" width="140%" x="-20%" y="-20%">
	<feGaussianBlur  in="SourceAlpha" result="blur" stdDeviation="4"></feGaussianBlur>
	<feOffset  dx="4" dy="4" in="blur" result="offsetBlur"></feOffset>
	
		<feSpecularLighting  in="blur" result="specOut" specularConstant="1" specularExponent="10" style="lighting-color:white" surfaceScale="5">
		<fePointLight  x="-5000" y="-10000" z="-20000"></fePointLight>
	</feSpecularLighting>
	<feComposite  in="specOut" in2="SourceAlpha" operator="in" result="specOut"></feComposite>
	<feComposite  in="SourceGraphic" in2="specOut" k1="0" k2="1" k3="1" k4="0" operator="arithmetic" result="litPaint">
		</feComposite>
	<feMerge>
		<feMergeNode  in="offsetBlur"></feMergeNode>
		<feMergeNode  in="litPaint"></feMergeNode>
	</feMerge>
</filter>
<g>
	<path class="st0" d="M86.7,106.7H22.9c-8.2,0-14.8-6.7-14.8-14.8V28c0-8.2,6.7-14.8,14.8-14.8h63.8c8.2,0,14.8,6.7,14.8,14.8v63.8
		C101.5,100,94.9,106.7,86.7,106.7z"/>
	<path class="st1" d="M69.7,22.6v35.2c0,0-9.2-15.1-23.9-11.3c-14.7,3.8-18.2,15-19.6,21.9l-10.4,3.2l2.3,4.9l7.8-2.3
		c0,0,0,4.3,1.2,7.2L21,83.7l2,4.9l6.1-2.3c0,0,6.9,14.4,22.2,13.6c0,0,11.8-0.5,18.5-12.2V97l10.4-3.2V20L69.7,22.6z M61.3,87.8
		c-2.3,1.1-5.1,2-8.5,1.7c-2.7-0.2-5.2-1.1-7.5-2.5c-1.6-1-3.6-2.5-5-4.5l15-5.2l-3.2-4l-14.4,4.9c0,0-1.2-4.6-0.6-7.8L51,66.1
		l-3-4.2l-9.1,2.7c0,0,4-7.7,13.1-8.7c9.1-1.1,14.6,5.6,14.6,5.6s6.3,6.7,3.7,15.7C68.9,81.8,65.6,85.7,61.3,87.8z"/>
	<path class="st2" d="M183,106.1h-46.7c-2.4,0-5-0.4-7.8-1.2c-2.8-0.8-5.4-2.2-7.8-4c-2.4-1.9-4.4-4.3-6-7.3c-1.6-3-2.4-6.7-2.4-11
		V59.8c0-1.6,0.2-3.3,0.6-5c0.4-1.8,1-3.5,1.8-5.3s1.8-3.4,3.1-5c1.3-1.6,2.8-3,4.6-4.2c1.8-1.2,3.8-2.2,6.2-2.9
		c2.3-0.7,5-1.1,7.9-1.1H183v16.8h-46.7c-2.2,0-4,0.6-5.1,1.7c-1.2,1.1-1.8,2.8-1.8,5.2v22.6c0,2.2,0.6,3.9,1.8,5
		c1.2,1.2,2.9,1.7,5.2,1.7H183V106.1z"/>
	<path class="st2" d="M273.7,59.4c0,2.3-0.4,4.8-1.3,7.5c-0.8,2.7-2.2,5.2-4.1,7.5c-1.9,2.3-4.3,4.2-7.3,5.8c-3,1.6-6.7,2.3-11,2.3
		h-31v-16h31c2.3,0,4.1-0.7,5.4-2.1c1.3-1.4,1.9-3.1,1.9-5.2c0-2.2-0.7-3.9-2.2-5.2c-1.4-1.2-3.2-1.9-5.2-1.9h-31
		c-2.3,0-4.1,0.7-5.4,2.1c-1.3,1.4-1.9,3.1-1.9,5.2V83c0,2.2,0.7,4,2.2,5.2c1.4,1.3,3.2,1.9,5.3,1.9H250v16h-31
		c-2.4,0-5-0.4-7.7-1.2c-2.8-0.8-5.3-2.1-7.7-4c-2.4-1.8-4.3-4.2-5.9-7.2c-1.6-3-2.4-6.5-2.4-10.8V59.4c0-2.3,0.4-4.8,1.3-7.5
		c0.8-2.7,2.2-5.2,4.1-7.5c1.9-2.3,4.3-4.2,7.3-5.8c3-1.6,6.7-2.3,11-2.3h31c2.4,0,5,0.4,7.7,1.2c2.8,0.8,5.3,2.1,7.7,4
		c2.4,1.8,4.3,4.2,5.9,7.2C272.9,51.6,273.7,55.2,273.7,59.4z"/>
	<path class="st2" d="M364.2,36.3l-30.9,33l34.8,36.9h-23.7l-22.9-24.4l-22.9,24.4h-23.8l34.7-37l-30.8-32.8h23.6l19,20.2l19.1-20.2
		H364.2z"/>
</g>
</svg>
