<?xml version="1.0" encoding="utf-8"?>
<!-- Generator: Adobe Illustrator 24.3.0, SVG Export Plug-In . SVG Version: 6.00 Build 0)  -->
<svg version="1.1" id="Layer_1" xmlns="http://www.w3.org/2000/svg" xmlns:xlink="http://www.w3.org/1999/xlink" x="0px" y="0px"
	 viewBox="0 0 346 325" style="enable-background:new 0 0 346 325;" xml:space="preserve">
<style type="text/css">
	.st0{fill:url(#SVGID_1_);}
	.st1{fill:url(#SVGID_2_);}
	.st2{fill:url(#SVGID_3_);}
	.st3{fill:url(#SVGID_4_);}
	.st4{fill:url(#SVGID_5_);}
	.st5{fill:url(#SVGID_6_);}
	.st6{fill:url(#SVGID_7_);}
</style>
<g>
	
		<linearGradient id="SVGID_1_" gradientUnits="userSpaceOnUse" x1="10.6752" y1="294.5642" x2="339.6752" y2="294.5642" gradientTransform="matrix(1 0 0 -1 0 325)">
		<stop  offset="0" style="stop-color:#03B08E"/>
		<stop  offset="0.4778" style="stop-color:#3BBB71"/>
		<stop  offset="1" style="stop-color:#73C754"/>
	</linearGradient>
	<path class="st0" d="M199.7,45.9c0.6,0,2.1,0.9,1.9-1c-8.1-9-16.8-17.5-25.7-25.8c-5-5.6-5-5.6-10.1-0.6
		c-7.9,8-15.9,15.9-23.8,23.9c-0.8,0.9-2.6,1.5-1.8,3.5C160.1,45.9,179.9,46,199.7,45.9z"/>
	
		<linearGradient id="SVGID_2_" gradientUnits="userSpaceOnUse" x1="10.6752" y1="73.5844" x2="339.6752" y2="73.5844" gradientTransform="matrix(1 0 0 -1 0 325)">
		<stop  offset="0" style="stop-color:#03B08E"/>
		<stop  offset="0.4778" style="stop-color:#3BBB71"/>
		<stop  offset="1" style="stop-color:#73C754"/>
	</linearGradient>
	<path class="st1" d="M75.9,231.6c-10.9,1.2-15.6,10.3-15.6,10.3l10.8-3.3l3.6,4.9l-16.4,5.2c-0.7,3.7,0.7,9.2,0.7,9.2l17.2-5.8
		l3.8,4.8l-17.8,6.2c1.7,2.4,4,4,5.9,5.3c2.7,1.7,5.7,2.7,8.9,2.9c3.9,0.3,7.3-0.7,10-2c5-2.5,9-7.1,10.5-12.6
		c3-10.7-4.3-18.5-4.3-18.5S86.6,230.4,75.9,231.6z"/>
	
		<linearGradient id="SVGID_3_" gradientUnits="userSpaceOnUse" x1="10.6752" y1="162.8027" x2="339.6752" y2="162.8027" gradientTransform="matrix(1 0 0 -1 0 325)">
		<stop  offset="0" style="stop-color:#03B08E"/>
		<stop  offset="0.4778" style="stop-color:#3BBB71"/>
		<stop  offset="1" style="stop-color:#73C754"/>
	</linearGradient>
	<path class="st2" d="M316.3,237.8c0-9.7-0.2-19.3,0.1-29c0.1-3.9-1-5.2-4.7-5.2c-14.7,0.2-29.4,0.2-44-0.1
		c-14.3-0.3-25.4-7.2-33-19c-17.5-27,1-62.7,33.1-63.8c14.8-0.4,29.6-0.1,44.4-0.1c2.6,0,4.4-0.1,4.3-3.6
		c-0.2-11.3,0.1-22.8-0.2-34.2c-0.3-10.3-8.6-18.5-19.1-19.7c-2-1.1-4.2-0.7-6.3-0.7c-67.6,0-135,0-202.5,0c-3.9,0-8,0.2-11.8,0.8
		C66.8,64.6,59,73,58.9,83c-0.2,25,0,49.9,0,75c4.2-2.4,8.2-4.9,11.8-8.1c11.4-7.4,12.7-7.3,24.1,0.9c18.6,13.5,38.5,24.7,59.5,33.8
		c6.2,2.6,9.1,7,8.9,13.7c-0.8,21.3,1.9,42.8-3.5,63.8c7.5,0,15,0,22.6,0c36.6,0,73.3,0,109.9,0C307.4,262.1,316.3,253,316.3,237.8z
		"/>
	
		<linearGradient id="SVGID_4_" gradientUnits="userSpaceOnUse" x1="10.6752" y1="88.4025" x2="339.6752" y2="88.4025" gradientTransform="matrix(1 0 0 -1 0 325)">
		<stop  offset="0" style="stop-color:#03B08E"/>
		<stop  offset="0.4778" style="stop-color:#3BBB71"/>
		<stop  offset="1" style="stop-color:#73C754"/>
	</linearGradient>
	<path class="st3" d="M143.8,196.5c-20.6-9.1-39.9-20.4-58.2-33.7c-2.1-1.6-3.6-1.9-5.9-0.2c-18.5,13.5-38.4,24.8-59.2,34.2
		c-2.8,1.2-3.5,2.9-3.5,5.7c0.1,12,0.1,23.9,0.1,35.9c0,5.2,0.8,10.2,2.1,15.3c6.3,22.9,21.7,38.5,41.9,49.1
		c22.4,12,17.5,11.4,40.2,0.8c1.5-0.7,2.9-1.6,4.3-2.4c21.8-12.9,38-30,42-56.2c1.1-7.9,0.2-15.7,0.6-22.2c0-7.4-0.1-13.5,0.1-19.5
		C148.2,199.8,147.2,198,143.8,196.5z M109.1,276.5l-12.3,3.8v-11.1c-7.9,13.9-21.9,14.5-21.9,14.5c-18.2,1.1-26.4-16-26.4-16
		l-7.2,2.7l-2.4-5.8l7.2-2.7c-1.3-3.4-1.3-8.5-1.3-8.5l-9.2,2.7l-2.7-5.8l12.3-3.8c1.7-8.2,5.7-21.5,23.2-26
		c17.4-4.4,28.4,13.5,28.4,13.5l-0.1-41.9l12.3-3V276.5z"/>
	
		<linearGradient id="SVGID_5_" gradientUnits="userSpaceOnUse" x1="10.6752" y1="162.7067" x2="339.6752" y2="162.7067" gradientTransform="matrix(1 0 0 -1 0 325)">
		<stop  offset="0" style="stop-color:#03B08E"/>
		<stop  offset="0.4778" style="stop-color:#3BBB71"/>
		<stop  offset="1" style="stop-color:#73C754"/>
	</linearGradient>
	<path class="st4" d="M325.4,137.3c-18.5,0-37.1-0.3-55.7,0.1c-16.6,0.3-28.5,15.4-24.3,29.8c2.2,11.6,11.6,19.7,23.8,20
		c18.7,0.2,37.5,0,56.2,0.1c2.8,0,3.7-0.9,3.7-3.7c-0.2-11.6-0.2-23.1-0.2-34.8c0.1-2.6,0-5.3,0.2-8
		C329.4,138.1,328.1,137.3,325.4,137.3z M286.6,168.2c-3.1,9.2-13.2,13.7-22.2,10.1c-8.8-3.5-13-13.2-9.5-22.1
		c0.4-1.2,1.1-2.5,1.7-3.7v-0.1c0-0.1,0.1-0.1,0.1-0.1c8.5-8.2,14.6-9,25-3.3c0.1,0,0.2,0,0.3,0c-0.1,0-0.1,0.1-0.1,0.3
		C286.8,154.7,289.1,160.9,286.6,168.2z"/>
	
		<linearGradient id="SVGID_6_" gradientUnits="userSpaceOnUse" x1="10.6752" y1="162.6969" x2="339.6752" y2="162.6969" gradientTransform="matrix(1 0 0 -1 0 325)">
		<stop  offset="0" style="stop-color:#03B08E"/>
		<stop  offset="0.4778" style="stop-color:#3BBB71"/>
		<stop  offset="1" style="stop-color:#73C754"/>
	</linearGradient>
	<path class="st5" d="M270.4,154.4c-4.3,0-8.1,4-7.7,8.4c0.2,4.3,4,7.6,8.2,7.4c4.2-0.2,7.7-4,7.6-8.1
		C278.3,158,274.6,154.4,270.4,154.4z"/>
	
		<linearGradient id="SVGID_7_" gradientUnits="userSpaceOnUse" x1="10.6752" y1="295.427" x2="339.6752" y2="295.427" gradientTransform="matrix(1 0 0 -1 0 325)">
		<stop  offset="0" style="stop-color:#03B08E"/>
		<stop  offset="0.4778" style="stop-color:#3BBB71"/>
		<stop  offset="1" style="stop-color:#73C754"/>
	</linearGradient>
	<path class="st6" d="M214.9,17.5c-1.1,1.1-2.2,2.2-3.4,3.4c-5,5-5,5,0.7,10.1c4.3,4.4,8.4,8.6,12.7,13c1,1,2,1.9,3.6,1.9
		c8.2,0,16.3,0,24.6,0c-9.1-9.4-18-18.6-26.8-27.8C220.6,11.8,220.6,11.8,214.9,17.5z"/>
</g>
</svg>
