<?xml version="1.0" encoding="utf-8"?>
<!-- Generator: Adobe Illustrator 24.3.0, SVG Export Plug-In . SVG Version: 6.00 Build 0)  -->
<svg version="1.1" id="Layer_1" xmlns="http://www.w3.org/2000/svg" xmlns:xlink="http://www.w3.org/1999/xlink" x="0px" y="0px"
	 viewBox="0 0 350.47 325" style="enable-background:new 0 0 350.47 325;" xml:space="preserve">
<style type="text/css">
	.st0{stroke:#000000;stroke-miterlimit:10;}
</style>
<path class="st0" d="M341.96,201.1c-0.19-4.41-0.32-8.83-0.32-13.24V54.92c0-13.7-6.36-26.76-17.46-34.8
	c-0.4-0.29-0.8-0.57-1.2-0.84c-9.22-6.31-20.23-9.49-31.4-9.49H63.24c-4.28,0-8.56,0.32-12.77,1.08
	C8.59,18.43,10.35,56.88,10.35,56.88v143.49c0,4.55,0.45,9.09,1.49,13.51c8.44,35.6,43.59,35.03,43.59,35.03v67.13l96.18-68.13
	h147.25c10.38,0,20.53-3.55,28.36-10.36C341.26,225.34,342.27,208.43,341.96,201.1z M323.99,56.36c-0.03,0.9-0.05,1.78-0.05,2.68
	c-0.02,14.63-0.16,113.02-0.16,141.28c0,27.69-23.45,28.64-27.85,28.58c-1.19-0.02-2.39-0.01-3.58-0.01l-147.41,0.98l-69.8,48.76
	v-49.43H54.77c-26.05-1.34-25.38-29.39-25.38-29.39l0.65-132.11c0.01-1.56-0.03-3.12-0.11-4.67C28.18,31,51.55,30.09,55.27,30.15
	c0.54,0.01,1.08,0.02,1.62,0.02h237.99C323.22,30.46,324.12,51.79,323.99,56.36z"/>
<rect x="99.19" y="79.26" class="st0" width="154.29" height="19.04"/>
<rect x="99.19" y="121.34" class="st0" width="154.29" height="19.04"/>
<rect x="98.85" y="162.08" class="st0" width="154.29" height="19.04"/>
</svg>
