<?xml version="1.0" encoding="utf-8"?>
<!-- Generator: Adobe Illustrator 24.3.0, SVG Export Plug-In . SVG Version: 6.00 Build 0)  -->
<svg version="1.1" id="Layer_1" xmlns="http://www.w3.org/2000/svg" xmlns:xlink="http://www.w3.org/1999/xlink" x="0px" y="0px"
	 viewBox="0 0 325.4 326" style="enable-background:new 0 0 325.4 326;" xml:space="preserve">
<polygon points="198.8,251.2 220.2,229.8 284.6,293.8 262.8,315.4 "/>
<path d="M261.9,11.9c29.3,0,53.1,23.8,53.1,53.1s-23.8,53.1-53.1,53.1S208.8,94.3,208.8,65S232.6,11.9,261.9,11.9"/>
<path d="M15.2,89.4l42.9-42.9c5.9-5.9,15.5-5.9,21.7,0l128.5,128.8c5.9,5.9,5.9,15.5,0,21.4l-42.9,42.8c-5.9,6.1-15.5,6.1-21.5,0
	L15.2,111C9.3,104.9,9.3,95.4,15.2,89.4z"/>
</svg>
