<?xml version="1.0" encoding="utf-8"?>
<!-- Generator: Adobe Illustrator 24.3.0, SVG Export Plug-In . SVG Version: 6.00 Build 0)  -->
<svg version="1.1" id="Layer_1" xmlns="http://www.w3.org/2000/svg" xmlns:xlink="http://www.w3.org/1999/xlink" x="0px" y="0px"
	 viewBox="0 0 376 208.34" style="enable-background:new 0 0 376 208.34;" xml:space="preserve">
<path d="M335.15,35.52C285.8-4.54,230.07,23.33,230.07,23.33H83.77c0,0-67.84,0.58-74.27,72.57c-3.33,37.28,16.08,58.37,35.58,70.03
	c15.15,9.07,32.59,13.56,50.25,13.56h124.29c0,0,58.58,36.95,108.76,2.16c21.59-14.97,34.69-39.26,36.75-65.45
	C367.07,91.71,363.26,58.34,335.15,35.52z M276.22,183.67c-43.77,0-79.24-35.48-79.24-79.24s35.48-79.24,79.24-79.24
	s79.24,35.48,79.24,79.24S319.99,183.67,276.22,183.67z"/>
<path d="M271.87,79.93c0,0,7.98,0.87,12.19-7.55c0,0-0.87,11.32,6.53,12.77c0,0-9,2.03-11.47,9C279.13,94.15,279.56,84,271.87,79.93
	z"/>
<path d="M297.99,89.22c0,0,7.98,0.87,12.19-7.55c0,0-0.87,11.32,6.53,12.77c0,0-9,2.03-11.47,9
	C305.25,103.44,305.69,93.28,297.99,89.22z"/>
<path d="M255.32,64.26c0,0-24.53,69.37,52.03,61.25c0,0-18.58,27.58-55.77,13.06S226.01,66,255.32,64.26z"/>
</svg>
