<?xml version="1.0" encoding="utf-8"?>
<!-- Generator: Adobe Illustrator 24.3.0, SVG Export Plug-In . SVG Version: 6.00 Build 0)  -->
<svg version="1.1" id="Layer_1" xmlns="http://www.w3.org/2000/svg" xmlns:xlink="http://www.w3.org/1999/xlink" x="0px" y="0px"
	 viewBox="0 0 312 325" style="enable-background:new 0 0 312 325;" xml:space="preserve">
<g>
	<path d="M39.6,79c-5.3,0-10.5,0.1-15.7,0c-8.6-0.3-13.9-7.8-11.1-15.3c1.8-4.7,5.8-7.3,11.8-7.3c19.9,0,39.8,0,59.6,0
		c6.4,0,12.8,0,19,0c7.1-27.6,23.5-45,52.6-45.1c29.4-0.2,46.1,17.3,53.3,45.1c1.3,0,2.7,0,4.1,0c24.4,0,48.7,0,73.1,0
		c2,0,4.1,0,6,0.5c4.8,1.4,8,6.1,7.9,11c-0.1,5.1-3.7,9.6-8.8,10.7c-3.2,0.7-6.8,0.3-9.7,0.7c-2.6,0.4-5.2,0.1-7.9-0.1
		c-0.3,0-0.4,0.1-1.3,0.3c-0.4,3.9-0.9,7.9-1.3,12c-3,31.3-6.1,62.6-9.1,93.9c-2.7,28.1-5.6,56.3-8,84.4c-1.2,13.8-5,26-16.2,34.9
		c-7.1,5.6-15.1,9-24.1,9c-38.5,0.1-76.9,0.3-115.4-0.1c-20.4-0.2-37.6-16.9-39.5-37.2c-4.1-42.3-8.1-84.5-12.2-126.8
		c-2.1-22.1-4.3-44.3-6.4-66.4C40.2,81.9,39.9,80.6,39.6,79z M62.7,79.2c0.1,1,0.1,1.6,0.2,2.2c3.1,32.1,6.2,64.3,9.3,96.4
		c2.9,30.1,5.8,60.2,8.7,90.3c1.3,13,12.2,23,25.3,22.9c1.9,0,3.9,0,5.8,0c32.9,0,65.8,0,98.7,0c11.6,0,18.8-6.6,20-18.1
		c0.8-7.8,1.5-15.5,2.3-23.3c2.5-25.8,5-51.6,7.5-77.3c2.3-23.4,4.6-46.9,6.8-70.3c0.7-7.5,1.4-15,2.1-22.7H62.7z M185,56.1
		c-2.1-12.6-15-22.6-29-22.5c-13.9,0.1-26.8,10.2-28.6,22.5H185z"/>
	<path d="M118.4,184.6c0-18.7,0-37.4,0-56.1c0-7.2,5-12,11.7-11.8c4.9,0.1,9.2,3.4,10.4,8.2c0.4,1.6,0.5,3.3,0.5,4.9
		c0,36.8,0,73.6,0,110.4c0,1.1,0,2.1-0.2,3.2c-1,6.3-5.9,10.3-12.2,9.8c-5.8-0.4-10.2-5-10.3-11.1
		C118.4,222.9,118.4,203.8,118.4,184.6C118.4,184.6,118.4,184.6,118.4,184.6z"/>
	<path d="M194,184.9c0,18.8,0,37.6,0,56.4c0,6.8-4.4,11.6-10.6,11.9c-6,0.3-10.8-3.5-11.9-9.4c-0.2-1.2-0.3-2.4-0.3-3.5
		c0-36.9,0-73.8,0-110.7c0-7.2,4.1-12.2,10.2-12.8c6.9-0.6,12.4,4.1,12.5,11c0.2,8.8,0.1,17.5,0.1,26.3
		C194,164.3,194,174.6,194,184.9z"/>
</g>
</svg>
