<?xml version="1.0" encoding="utf-8"?>
<!-- Generator: Adobe Illustrator 24.3.0, SVG Export Plug-In . SVG Version: 6.00 Build 0)  -->
<svg version="1.1" id="Layer_1" xmlns="http://www.w3.org/2000/svg" xmlns:xlink="http://www.w3.org/1999/xlink" x="0px" y="0px"
	 viewBox="0 0 376 325" style="enable-background:new 0 0 376 325;" xml:space="preserve">
<g>
	<path d="M141.9,291.9c-3.5,1.6-6.8,1.3-10.2-0.3c-17.7-8.4-34.9-17.6-51-28.8C66,252.4,52,241.2,41.6,226.2
		c-6.4-9.2-10.1-19.1-10-30.6c0.2-40.4,0.1-80.8,0.1-121.2c0-1.2,0-2.4,0-3.5c0.6-0.1,0.8-0.2,1-0.1c0.9,0.2,1.9,0.4,2.8,0.6
		c13.1,3.1,26.2,2.9,39.2-0.6c20.2-5.4,36.1-17,47.4-34.6c2.2-3.4,4.7-4.9,8.7-4.7c4.5,0.2,9,0.2,13.5,0c3.3-0.1,5.6,1.2,7.3,4
		c4.2,6.9,9.5,13.1,15.7,18.3c17.6,14.8,37.8,21.3,60.7,19.2c4.7-0.4,9.4-1.4,14.5-2.2c0,1,0,2,0,3c0,3,0,6,0,9h16.5
		c0-5.4,0-10.8-0.1-16.1c-0.1-9.1-8-15.4-16.8-13.2c-9.3,2.3-18.6,4.2-28.4,3.1c-12.4-1.4-23.5-5.8-33.4-13.4
		c-6.6-5-11.6-11.4-16.1-18.2c-3.6-5.4-8.6-9-15.1-9.4c-7.7-0.5-15.5-0.6-23.3-0.2c-7.1,0.4-12.6,4.2-16.5,10.1
		c-1.3,1.9-2.6,3.8-4,5.7c-7.6,10.1-17.4,17.5-29.3,21.8c-13.9,5-27.9,5.3-42,1.1c-10.9-3.2-19,2.9-19,14.2c0,43.3,0,86.5,0,129.8
		c0,9.2,2.1,17.8,6.1,26c6.8,14,16.8,25.5,28.5,35.4c25.5,21.5,53.4,39.1,85.1,50.2c1.5,0,3.1,0,4.6,0c3.3-1,6.7-1.7,9.8-3.1
		c16.4-7.6,32.4-16.1,47.6-26.1c8.7-5.8,17.2-11.8,25.1-18.6h-27.2C178.2,273.7,160.3,283.2,141.9,291.9z"/>
	<path d="M347.4,130.7c-7.8-2-15.9,1.3-20,8.6c-1,1.7-2,2.3-3.9,2.2c-8.2-0.1-16.4,0-24.7-0.1c-4.1-0.1-7.4,1.4-10.3,4.3
		c-5.1,5.2-10.3,10.3-15.4,15.5c-1.7,1.8-3.6,2.5-6.1,2.5c-9.3-0.1-18.5,0-27.8,0c-9.7,0-19.4-0.1-29,0c-4,0-5.4,1.9-5.4,6.7
		c0,4.6,1.4,6.5,5.3,6.5c20.3,0.1,40.6,0,60.9,0c3.7,0,6.6-1.5,9.1-4.1c5.2-5.4,10.5-10.7,16-15.8c1.4-1.3,3.6-2.2,5.4-2.3
		c7.3-0.3,14.6,0,21.9-0.2c2.1,0,3.1,0.7,4.1,2.4c4.1,7.1,12.3,10.3,20.1,8.2c7.9-2.2,13.3-9.5,13.2-17.7
		C360.7,139.8,355,132.7,347.4,130.7z M343.1,156.5c-4.7,0.1-8.6-3.6-8.7-8.4c-0.1-4.6,3.6-8.4,8.2-8.5c4.8-0.1,8.6,3.6,8.7,8.3
		C351.4,152.4,347.6,156.4,343.1,156.5z"/>
	<path d="M305.1,177c-7.7-2-15.8,1.4-19.9,8.8c-0.9,1.6-1.9,2.1-3.7,2.1c-11.9-0.1-23.7,0-35.6,0c-11.8,0-23.5-0.1-35.3,0.1
		c-1.7,0-4.4,1-4.7,2c-0.7,2.8-0.9,6-0.2,8.7c0.6,2.5,3.5,2.4,5.9,2.4c23.2,0,46.4,0,69.6,0c1.8,0,3,0.2,4,2.1
		c4.1,7.4,12.3,10.8,20.2,8.6c7.8-2.1,13.2-9.1,13.2-17.3C318.7,186.1,313.2,179.1,305.1,177z M300.8,202.9c-4.5,0-8.4-3.9-8.4-8.3
		c-0.1-4.7,3.7-8.5,8.5-8.5c4.7,0,8.3,3.6,8.3,8.2C309.2,199,305.4,202.9,300.8,202.9z"/>
	<path d="M211,153c12.8,0,25.6,0,38.4,0c4,0,7.2-1.4,9.9-4.4c3.3-3.6,6.7-7.1,9.9-10.8c1.6-1.9,3.3-2.6,5.9-2.4
		c10.8,1,19.6-7,19.6-17.5c0-7.2-4.4-14.2-11-16.7c-7.2-2.8-13.7-1.5-19.4,3.8c-5.3,5-6.9,12.8-4,19.5c0.9,2,0.4,3.2-0.9,4.6
		c-2.6,2.7-4.9,5.7-7.7,8.2c-1.5,1.3-3.7,2.3-5.7,2.4c-5.8,0.3-11.7,0.1-17.5,0.1s-11.7,0-17.5,0c-4.7,0-6.1,1.6-6.1,6.6
		C204.9,151.5,206.3,153,211,153z M276.8,109.3c4.5,0,8.4,3.9,8.4,8.3c0.1,4.7-3.8,8.5-8.5,8.5c-4.7,0-8.3-3.6-8.3-8.3
		C268.4,113.2,272.2,109.3,276.8,109.3z"/>
	<path d="M271.4,226.3c-1.1,0.2-2.6-0.4-3.4-1.1c-2.7-2.7-5.3-5.6-7.7-8.6c-2.9-3.6-6.6-5-11.2-4.9c-6.1,0.1-12.3,0-18.4,0
		c-6.7,0-13.3,0-20,0c-4.3,0-5.7,1.8-5.7,6.7c0,4.9,1.4,6.5,5.8,6.5c9.7,0,19.4-0.1,29.1,0c12.1,0.1,8.7-1.5,16.9,7.5
		c1.6,1.7,2,3.1,1.1,5.4c-3,7.7-0.3,16,6.3,20.8c6.4,4.5,15.5,4.3,21.5-0.7c6.3-5.2,8.5-13.8,5.2-21.2
		C287.5,229.3,279.6,225.1,271.4,226.3z M274.2,252.4c-4.6-0.1-8.3-4-8.2-8.5c0.1-4.7,4.1-8.5,8.7-8.4c4.5,0.1,8.3,4,8.2,8.5
		C282.8,248.8,279,252.6,274.2,252.4z"/>
	<path d="M122.9,144.3c-26.8,6.8-33.1,27.3-35.7,39.9L68.3,190l4.2,8.9l14.2-4.2c0,0,0,7.9,2.1,13.1l-11,4.2l3.7,8.9l11-4.2
		c0,0,12.6,26.3,40.4,24.7c0,0,5.6-0.2,12.8-3.3c6.8-2.9,14.9-8.5,20.8-18.9v17l18.9-5.8l0-134.4l-18.9,4.7v64.2
		c0,0-7.6-12.4-20.8-18.5C139.3,143.5,131.6,142.1,122.9,144.3z M145.6,162.3c9.6,2.6,15.1,9.3,15.1,9.3s11.4,12.1,6.7,28.5
		c-2.4,8.4-8.4,15.4-16.2,19.3c-1.7,0.8-3.5,1.5-5.5,2.1c-3,0.8-6.3,1.3-9.9,1.1c-4.9-0.3-9.5-2-13.7-4.5c-3-1.8-6.6-4.6-9.2-8.2
		l27.3-9.5l-5.8-7.4l-26.3,8.9c0,0-2.1-8.4-1-14.2l25.2-7.9l-5.5-7.6l-16.5,5c0,0,7.3-13.9,23.9-15.9
		C138.4,161,142.3,161.4,145.6,162.3z"/>
</g>
</svg>
