<?xml version="1.0" encoding="utf-8"?>
<!-- Generator: Adobe Illustrator 24.3.0, SVG Export Plug-In . SVG Version: 6.00 Build 0)  -->
<svg version="1.1" id="Layer_1" xmlns="http://www.w3.org/2000/svg" xmlns:xlink="http://www.w3.org/1999/xlink" x="0px" y="0px"
	 viewBox="0 0 376 129.2" style="enable-background:new 0 0 376 129.2;" xml:space="preserve">
<style type="text/css">
	.st0{fill:#2E86FF;}
	.st1{fill:#FFFFFF;filter:url(#AI_BevelShadow_1);}
	.st2{fill:#FF0729;filter:url(#AI_BevelShadow_1);}
</style>
<filter  height="140%" id="AI_BevelShadow_1" width="140%" x="-20%" y="-20%">
	<feGaussianBlur  in="SourceAlpha" result="blur" stdDeviation="4"></feGaussianBlur>
	<feOffset  dx="4" dy="4" in="blur" result="offsetBlur"></feOffset>
	
		<feSpecularLighting  in="blur" result="specOut" specularConstant="1" specularExponent="10" style="lighting-color:white" surfaceScale="5">
		<fePointLight  x="-5000" y="-10000" z="-20000"></fePointLight>
	</feSpecularLighting>
	<feComposite  in="specOut" in2="SourceAlpha" operator="in" result="specOut"></feComposite>
	<feComposite  in="SourceGraphic" in2="specOut" k1="0" k2="1" k3="1" k4="0" operator="arithmetic" result="litPaint">
		</feComposite>
	<feMerge>
		<feMergeNode  in="offsetBlur"></feMergeNode>
		<feMergeNode  in="litPaint"></feMergeNode>
	</feMerge>
</filter>
<g>
	<path class="st0" d="M85.4,111.4H25.8c-8.2,0-14.8-6.7-14.8-14.8V37c0-8.2,6.7-14.8,14.8-14.8h59.6c8.2,0,14.8,6.7,14.8,14.8v59.6
		C100.2,104.7,93.6,111.4,85.4,111.4z"/>
	<path class="st1" d="M69.8,31.1v33.7c0,0-8.8-14.4-22.9-10.8c-14,3.6-17.4,14.3-18.7,20.9l-9.9,3l2.2,4.7l7.4-2.2
		c0,0,0,4.1,1.1,6.9l-5.8,2.2l1.9,4.7L31,92c0,0,6.6,13.8,21.2,12.9c0,0,11.3-0.5,17.6-11.7v8.9l9.9-3V28.7L69.8,31.1z M61.8,93.4
		c-2.2,1.1-4.9,1.9-8.1,1.7c-2.6-0.2-5-1-7.2-2.4c-1.6-1-3.5-2.4-4.8-4.3l14.3-5l-3-3.9l-13.8,4.7c0,0-1.1-4.4-0.6-7.4l13.2-4.1
		l-2.9-4l-8.7,2.6c0,0,3.8-7.3,12.5-8.3c8.7-1,13.9,5.3,13.9,5.3s6,6.4,3.5,15C69.1,87.7,65.9,91.4,61.8,93.4z"/>
	<path class="st2" d="M186.8,88.4c0,2.8-0.4,5.2-1.1,7.4c-0.7,2.2-1.7,4.1-2.8,5.8c-1.2,1.7-2.6,3.1-4.1,4.3
		c-1.6,1.2-3.2,2.1-4.9,2.9c-1.7,0.7-3.4,1.3-5.2,1.6c-1.7,0.3-3.4,0.5-5,0.5h-29.6c-2.8,0-5.4-0.3-7.6-1c-2.2-0.7-4.2-1.6-5.9-2.8
		c-1.7-1.2-3.2-2.5-4.4-4c-1.2-1.5-2.2-3.1-2.9-4.8c-0.8-1.7-1.3-3.4-1.7-5.1c-0.4-1.7-0.5-3.3-0.5-4.8V66.7c0-4.1,0.8-7.6,2.3-10.5
		c1.5-2.9,3.5-5.2,5.8-7c2.3-1.8,4.8-3.1,7.5-3.9c2.7-0.8,5.2-1.2,7.5-1.2h29.6v16h-29.5c-2.2,0-3.9,0.5-5,1.6
		c-1.1,1.1-1.7,2.7-1.7,4.8v21.6c0,2.2,0.6,3.8,1.7,4.9c1.1,1.1,2.7,1.7,4.9,1.7h29.6c2.2,0,3.9-0.6,5-1.7c1.1-1.1,1.6-2.7,1.6-4.8
		V16h16.4V88.4z"/>
	<path class="st2" d="M276,66.3c0,2.2-0.4,4.6-1.2,7.2c-0.8,2.6-2.1,5-3.9,7.2c-1.8,2.2-4.1,4-7,5.5c-2.9,1.5-6.4,2.2-10.5,2.2
		h-29.6V73.2h29.6c2.2,0,4-0.7,5.2-2c1.2-1.3,1.8-3,1.8-5c0-2.1-0.7-3.7-2.1-4.9c-1.4-1.2-3-1.8-5-1.8h-29.6c-2.2,0-4,0.7-5.2,2
		c-1.2,1.3-1.8,3-1.8,5v22.4c0,2.1,0.7,3.8,2.1,5c1.4,1.2,3.1,1.8,5.1,1.8h29.5v15.3h-29.6c-2.3,0-4.7-0.4-7.4-1.2
		c-2.6-0.8-5.1-2-7.3-3.8c-2.3-1.7-4.1-4-5.7-6.9c-1.5-2.8-2.3-6.2-2.3-10.3V66.3c0-2.2,0.4-4.6,1.2-7.2c0.8-2.6,2.1-5,3.9-7.2
		c1.8-2.2,4.1-4,7-5.5c2.9-1.5,6.4-2.2,10.5-2.2h29.6c2.3,0,4.7,0.4,7.4,1.2c2.6,0.8,5.1,2,7.3,3.8c2.3,1.7,4.1,4,5.7,6.9
		C275.2,58.8,276,62.3,276,66.3z"/>
	<path class="st2" d="M362.4,44.2l-29.5,31.5l33.2,35.2h-22.6l-21.9-23.3l-21.9,23.3h-22.7l33.2-35.4l-29.4-31.4h22.5l18.1,19.3
		l18.3-19.3H362.4z"/>
</g>
</svg>
