<?xml version="1.0" encoding="utf-8"?>
<!-- Generator: Adobe Illustrator 24.3.0, SVG Export Plug-In . SVG Version: 6.00 Build 0)  -->
<svg version="1.1" id="Layer_1" xmlns="http://www.w3.org/2000/svg" xmlns:xlink="http://www.w3.org/1999/xlink" x="0px" y="0px"
	 viewBox="0 0 376 325" style="enable-background:new 0 0 376 325;" xml:space="preserve">
<style type="text/css">
	.st0{fill:url(#SVGID_1_);}
	.st1{fill:url(#SVGID_2_);}
	.st2{fill:url(#SVGID_3_);}
	.st3{fill:url(#SVGID_4_);}
	.st4{fill:url(#SVGID_5_);}
	.st5{fill:url(#SVGID_6_);}
</style>
<g>
	<linearGradient id="SVGID_1_" gradientUnits="userSpaceOnUse" x1="17.6707" y1="162.5" x2="258.8611" y2="162.5">
		<stop  offset="0" style="stop-color:#03B08E"/>
		<stop  offset="0.4778" style="stop-color:#3BBB71"/>
		<stop  offset="1" style="stop-color:#73C754"/>
	</linearGradient>
	<path class="st0" d="M258.8,69c-0.1-4.7-2.1-9.1-5.7-11.8c-3.5-2.7-8.1-3.6-12.5-2.5c-9.9,2.5-18.3,3.9-27.2,3
		c-12.1-1.4-22.5-5.5-31.9-12.8c-6.7-5.2-11.8-12.1-15.4-17.4c-4-6-9.5-9.5-15.8-9.9c-7.8-0.5-15.5-0.6-22.9-0.2
		c-7,0.3-12.9,4-17.3,10.5c-1.4,2.2-2.7,3.9-3.8,5.5c-7.4,9.7-16.8,16.8-28,20.8c-13.1,4.7-26.6,5.1-40.2,1
		c-5.5-1.6-10.8-1-14.5,1.8c-3.9,2.8-5.9,7.6-5.9,13.4c0,16.5,0,33,0,49.6c0,25.7,0,51.5,0,77.2c0,8.9,2.1,17.8,6.1,26.1
		c6.1,12.7,15.3,24.2,28.2,35c27.2,23,54.6,39.1,83.6,49.3l0.2,0.1h5h0.2c1-0.3,1.9-0.6,3-0.9c2.2-0.6,4.6-1.2,6.7-2.2
		c17.9-8.4,33.2-16.7,46.7-25.6c9.6-6.3,17.8-12.3,24.7-18.2l3.1-2.6h-31l-0.4,0.2c-14.2,10-30.6,19.2-51.4,29.1
		c-2.8,1.3-5.5,1.2-8.8-0.3c-20.6-9.8-35.9-18.5-49.6-28c-12.8-8.9-27.2-20.2-37.8-35.4c-6.5-9.2-9.6-18.8-9.6-29
		c0.2-28.6,0.1-57.7,0.1-85.8c0-10.8,0-21.7,0-32.5v-2c0.6,0.1,1.3,0.2,1.9,0.4c12.9,3.1,26.1,2.9,39-0.6
		c20-5.3,35.8-16.9,47.2-34.4c1.9-3,3.9-4.1,7.2-3.9c4.2,0.2,8.4,0.2,13.3,0c2.7-0.1,4.4,0.9,5.9,3.2c4.2,6.9,9.4,13,15.6,18.2
		c17.5,14.8,37.8,21.1,60.4,19c3.2-0.3,6.3-0.8,9.6-1.4c1-0.2,2-0.3,3-0.5V76c0,2.5,0,5,0,7.5v2.7h19v-1.4
		C258.9,80.5,258.9,74.8,258.8,69z"/>
	<linearGradient id="SVGID_2_" gradientUnits="userSpaceOnUse" x1="203.1028" y1="153.8412" x2="358.3293" y2="153.8412">
		<stop  offset="0" style="stop-color:#03B08E"/>
		<stop  offset="0.4778" style="stop-color:#3BBB71"/>
		<stop  offset="1" style="stop-color:#73C754"/>
	</linearGradient>
	<path class="st1" d="M344.1,130.1c-8.4-2.2-17,1.4-21.2,9.1c-0.6,1.2-1.1,1.4-2.5,1.4c-3.9,0-7.7,0-11.5,0c-4.1,0-8.4,0-12.6-0.1
		c-4.3-0.1-8,1.4-11.1,4.7c-2.6,2.7-5.2,5.3-7.8,7.9c-2.4,2.4-4.8,4.8-7.2,7.3c-1.4,1.4-2.9,2-4.9,2c-6.7-0.1-13.4-0.1-20-0.1
		c-2.4,0-4.7,0-7.2,0c-2.8,0-5.6,0-8.4,0c-6.5-0.1-13.3-0.1-19.9,0c-5.9,0.1-6.7,4.3-6.7,8c0,3.6,0.7,7.8,6.6,7.8c8,0,16.1,0,24.3,0
		c6.3,0,12.6,0,18.9-0.1h16.4c3.8,0,7.1-1.4,10-4.4c5.1-5.3,10.3-10.5,15.5-15.4c1-1,2.9-1.8,4.3-1.8c4.1-0.1,8.2-0.1,12.2-0.1
		c3,0.1,6.1,0.1,9.2,0c1.4,0,1.9,0.3,2.7,1.7c4.3,7.6,12.9,11,21.3,8.7c8.4-2.3,14.1-10,13.9-18.7
		C358.2,139.8,352.2,132.2,344.1,130.1z M346.1,148.3c0.1,3.6-3.1,6.8-6.6,6.9c-1.8,0.1-3.5-0.6-4.8-1.8c-1.3-1.2-2.1-3-2.1-4.8
		c-0.1-3.7,2.8-6.7,6.5-6.8c0.1,0,0.1,0,0.2,0c1.8,0,3.5,0.6,4.7,1.8C345.4,144.8,346.1,146.4,346.1,148.3z"/>
	<linearGradient id="SVGID_3_" gradientUnits="userSpaceOnUse" x1="203.5581" y1="193.6153" x2="317.1902" y2="193.6153">
		<stop  offset="0" style="stop-color:#03B08E"/>
		<stop  offset="0.4778" style="stop-color:#3BBB71"/>
		<stop  offset="1" style="stop-color:#73C754"/>
	</linearGradient>
	<path class="st2" d="M302.9,175.2c-8.3-2.2-16.7,1.5-21,9.2c-0.6,1-1.1,1.3-2.3,1.3c-8.8,0-17.9,0-26.6,0h-8.2c-2.8,0-5.6,0-8.4,0
		c-8.5,0-17.4-0.1-26,0.1c-1.4,0-5.5,0.8-6,3.1c-0.8,3.2-0.9,6.5-0.2,9.2c0.9,3.5,4.6,3.5,7,3.5h0.2c9.9,0,19.8,0,29.6,0
		c12.8,0,25.5,0,38.3,0c1.5,0,2,0.2,2.7,1.3c3.5,6.2,9.7,9.8,16.4,9.8c1.6,0,3.3-0.2,5.1-0.7c8.4-2.2,14-9.6,14-18.3
		C317.2,184.8,311.5,177.5,302.9,175.2z M291.4,193.8c0-1.8,0.6-3.5,1.9-4.8c1.3-1.3,3.1-2,4.9-2c3.8,0.1,6.7,2.9,6.7,6.7
		c0,1.9-0.7,3.7-2,5c-1.3,1.2-3,1.9-4.7,1.9C294.6,200.4,291.5,197.3,291.4,193.8z"/>
	<linearGradient id="SVGID_4_" gradientUnits="userSpaceOnUse" x1="203.0225" y1="127.3634" x2="293.73" y2="127.3634">
		<stop  offset="0" style="stop-color:#03B08E"/>
		<stop  offset="0.4778" style="stop-color:#3BBB71"/>
		<stop  offset="1" style="stop-color:#73C754"/>
	</linearGradient>
	<path class="st3" d="M282,101.4c-7.5-3-14.5-1.5-20.4,3.9c-5.6,5.3-7.4,13.7-4.3,20.7c0.5,1.3,0.4,1.8-0.6,2.9
		c-1,1-1.9,2.1-2.9,3.1c-1.5,1.7-3,3.3-4.6,4.7c-1.3,1.1-3.1,1.9-4.7,2c-4,0.2-8.1,0.2-12.1,0.2c-1.7,0-3.3,0-4.9,0h-5.9
		c-3.8,0-7.5,0-11.2,0c-5.3,0-7.4,2.2-7.4,7.9c0,5.7,2,7.9,7.4,7.9c4.3,0,8.6,0,12.9,0c8-0.1,16.5-0.1,24.7,0c0.1,0,0.1,0,0.2,0
		c4.3,0,7.8-1.6,10.8-4.7c1.3-1.4,2.6-2.8,3.9-4.2c1.9-2.1,3.9-4.3,5.8-6.4c1.4-1.5,2.5-1.9,4.5-1.8c5.5,0.5,10.8-1.2,14.7-4.8
		c3.9-3.5,6-8.4,6-13.7C293.7,111.4,288.9,104.1,282,101.4z M281.5,118.8c0,1.8-0.6,3.5-1.9,4.7c-1.3,1.4-3.1,2.1-4.9,2.1
		c-3.8,0-6.6-2.9-6.7-6.7c0-1.8,0.7-3.6,2-4.9c1.3-1.3,3-2,4.7-2C278.5,112.1,281.5,115.2,281.5,118.8z"/>
	<linearGradient id="SVGID_5_" gradientUnits="userSpaceOnUse" x1="203.0225" y1="235.0567" x2="291.3976" y2="235.0567">
		<stop  offset="0" style="stop-color:#03B08E"/>
		<stop  offset="0.4778" style="stop-color:#3BBB71"/>
		<stop  offset="1" style="stop-color:#73C754"/>
	</linearGradient>
	<path class="st4" d="M289.8,234.6c-3.5-8-11.8-12.4-20.5-11.1c-0.6,0.1-1.6-0.2-2.1-0.7c-2.6-2.6-5.1-5.3-7.5-8.3
		c-3.1-3.7-7-5.5-12.1-5.4c-4.1,0.1-8.4,0.1-12.5,0.1c-1.8,0-3.7,0-5.5,0c-2.1,0-4.3,0-6.3,0c-4.4,0-8.8,0-13.2,0
		c-5,0-7.1,2.3-7.1,8c0,5.7,1.9,7.8,7.2,7.8c3.6,0,7.2,0,10.8,0c5.8,0,11.7,0,17.6,0c1.8,0,3.3,0,4.5,0c4.8-0.1,4.8-0.1,8,3.6
		c0.8,0.9,1.7,1.9,2.9,3.2c1.3,1.4,1.4,2.2,0.8,3.8c-3.1,8.1-0.4,17,6.7,22c3.2,2.3,7.1,3.5,10.9,3.5c4.3,0,8.5-1.4,11.9-4.2
		C291,251.4,293.2,242.3,289.8,234.6z M277.2,247c-1.3,1.3-3.1,1.9-4.9,1.9c-3.6-0.1-6.7-3.2-6.6-6.8c0-1.8,0.8-3.5,2.2-4.9
		c1.3-1.2,2.9-1.9,4.7-1.9c0.1,0,0.2,0,0.2,0c3.6,0.1,6.7,3.2,6.6,6.8C279.3,244.1,278.5,245.7,277.2,247z"/>
	
		<linearGradient id="SVGID_6_" gradientUnits="userSpaceOnUse" x1="62.4219" y1="165.2712" x2="176.8306" y2="165.2712" gradientTransform="matrix(1 0 0 -1 0 325)">
		<stop  offset="0" style="stop-color:#03B08E"/>
		<stop  offset="0.4778" style="stop-color:#3BBB71"/>
		<stop  offset="1" style="stop-color:#73C754"/>
	</linearGradient>
	<path class="st5" d="M158.4,93.3v62.7c0,0-7.5-12.1-20.3-18.1c-6.2-2.8-13.7-4.3-22.3-2.1c-26.2,6.7-32.3,26.7-34.9,39l-18.5,5.6
		l4.1,8.8l13.8-4.1c0,0,0,7.7,2.1,12.9L71.7,202l3.6,8.8l10.8-4.1c0,0,12.3,25.6,39.5,24.1c0,0,5.5-0.2,12.5-3.2
		c6.7-2.9,14.6-8.3,20.3-18.5v16.6l18.5-5.6V88.7L158.4,93.3z M159.3,190.4c-2.4,8.2-8.2,15.1-15.9,18.9c-1.6,0.8-3.5,1.5-5.4,2.1
		c-2.9,0.8-6.1,1.3-9.6,1c-4.7-0.3-9.3-1.9-13.3-4.4c-2.9-1.8-6.4-4.4-8.9-8l26.7-9.2l-5.6-7.2l-25.6,8.8c0,0-2.1-8.2-1-13.8
		l24.7-7.7l-5.4-7.5l-16.1,4.9c0,0,7.1-13.7,23.3-15.5c4-0.7,7.8-0.2,11.1,0.6c9.3,2.6,14.7,9.1,14.7,9.1S163.9,174.4,159.3,190.4z"
		/>
</g>
</svg>
