<?xml version="1.0" encoding="utf-8"?>
<!-- Generator: Adobe Illustrator 24.3.0, SVG Export Plug-In . SVG Version: 6.00 Build 0)  -->
<svg version="1.1" id="Layer_1" xmlns="http://www.w3.org/2000/svg" xmlns:xlink="http://www.w3.org/1999/xlink" x="0px" y="0px"
	 viewBox="0 0 326 325" style="enable-background:new 0 0 326 325;" xml:space="preserve">
<g>
	<path d="M170.5,56.3c0,9.5,0,18.6,0,28.2c-1.5,0-2.8,0-4.2,0c-33.3,0-66.7,0-100,0c-11.3,0-19.5,6.1-21.8,16.3
		c-0.5,2-0.5,4.1-0.5,6.2c0,50.6,0,101.2,0,151.8c0,14,8.6,22.7,22.6,22.7c50.6,0,101.2,0,151.8,0c14,0,22.7-8.6,22.7-22.6
		c0-33.2,0-66.4,0-99.7c0-1.3,0-2.6,0-4.2c9.4,0,18.6,0,28.2,0c0,1.1,0,2.3,0,3.4c0,33.7,0,67.3,0,101c0,28.7-21.6,50.3-50.3,50.3
		c-50.9,0-101.9,0-152.8,0c-28.7,0-50.3-21.6-50.4-50.2c0-51,0-102.1,0-153.1c0-28.5,21.7-50.1,50.2-50.1c33.7,0,67.3,0,101,0
		C167.9,56.3,169,56.3,170.5,56.3z"/>
	<path d="M122.1,218.2c-8.9,0.1-15.4-6.5-14.6-15c0.8-9,2.4-17.9,3.6-26.8c1-7.1,2.1-14.1,3-21.2c0.6-4.6,2.4-8.3,5.6-11.6
		c41.4-41.3,82.8-82.7,124.2-124.1c7.3-7.3,15.2-7.3,22.5,0c13.3,13.3,26.6,26.6,39.9,39.9c7,7,7,15,0,22
		c-41.5,41.6-83.1,83.1-124.6,124.6c-3,3-6.5,4.7-10.7,5.3c-15.2,2.1-30.5,4.3-45.7,6.5C124.1,218.1,122.9,218.1,122.1,218.2z
		 M254.5,48.2c-0.7,0.8-1.3,1.8-2.1,2.5c-35.3,35.3-70.6,70.7-106,105.9c-3.4,3.4-5.5,6.8-5.9,11.6c-0.6,6.4-1.7,12.7-2.6,19.4
		c7.7-1.1,15-2,22.3-3.3c2.2-0.4,4.6-1.5,6.2-3c36.2-36,72.3-72.1,108.4-108.2c0.8-0.8,1.6-1.7,2.3-2.4
		C269.6,63.3,262.3,56,254.5,48.2z"/>
</g>
</svg>
