<?xml version="1.0" encoding="utf-8"?>
<!-- Generator: Adobe Illustrator 24.3.0, SVG Export Plug-In . SVG Version: 6.00 Build 0)  -->
<svg version="1.1" id="Layer_1" xmlns="http://www.w3.org/2000/svg" xmlns:xlink="http://www.w3.org/1999/xlink" x="0px" y="0px"
	 viewBox="0 0 336.2 325" style="enable-background:new 0 0 336.2 325;" xml:space="preserve">
<path d="M273.1,60.3c-28-28-65.2-43.5-104.6-43.5c-39.5,0-76.6,15.5-104.7,43.5C6.1,118,6.1,211.9,63.8,269.6
	c28,28,65.2,43.5,104.7,43.5c39.5,0,76.6-15.4,104.6-43.5C330.8,212,330.8,118.1,273.1,60.3z M260.9,239h-33.2L209,276.2
	c-12.8,4.7-26.5,7.3-40.6,7.3c-14.1,0-27.8-2.6-40.6-7.3l-18.6-37.1H76.2c-12.5-15.6-20.5-33.6-24-52.3l27.5-36.7l-18-36
	c5.6-11.9,13.2-23.1,23.1-32.9c13.6-13.6,29.9-23.4,47.7-29.1l36.1,24.1l36.1-24c17.7,5.7,34.1,15.5,47.7,29.1
	c9.8,9.8,17.4,21,23.1,32.9l-18,36.1l27.5,36.7C281.3,205.5,273.3,223.4,260.9,239z"/>
<path d="M116.7,150.2l22.2,59.2h59.2l22.2-59.2l-51.8-37L116.7,150.2z"/>
</svg>
