<?xml version="1.0" encoding="utf-8"?>
<!-- Generator: Adobe Illustrator 24.3.0, SVG Export Plug-In . SVG Version: 6.00 Build 0)  -->
<svg version="1.1" id="Layer_1" xmlns="http://www.w3.org/2000/svg" xmlns:xlink="http://www.w3.org/1999/xlink" x="0px" y="0px"
	 viewBox="0 0 376 247.4" style="enable-background:new 0 0 376 247.4;" xml:space="preserve">
<circle cx="187.9" cy="67.9" r="57.28"/>
<circle cx="291.03" cy="47" r="35.43"/>
<circle cx="84.74" cy="49.9" r="35.43"/>
<path d="M51.72,85.32c0,0-42.41,13.33-44.82,39.92s13.98,26.11,51.57,33.82c0,0,31.51-43.38,72.15-51.57c0,0-12.86-15.42-11.9-22.17
	C118.72,85.32,82.57,107.98,51.72,85.32z"/>
<path d="M255.6,85.32c0,0-3.49,14.46-10.42,20.73c0,0,53.8,15.42,68.74,53.02c0,0,60.73,0.18,53.98-33.89s-44.34-39.85-44.34-39.85
	S298.98,109.42,255.6,85.32z"/>
<path d="M138.96,118.58c0,0,47.23,42.41,95.91,0c0,0,71.07,18.8,71.93,71.33c0.75,45.97-95.47,48.76-119.54,48.74
	c-3.36,0-6.72,0.03-10.08,0.12c-24.3,0.66-133.93-0.2-104.73-71.04C72.45,167.74,82.09,137.86,138.96,118.58z"/>
</svg>
