<?xml version="1.0" encoding="utf-8"?>
<!-- Generator: Adobe Illustrator 24.3.0, SVG Export Plug-In . SVG Version: 6.00 Build 0)  -->
<svg version="1.1" id="Layer_1" xmlns="http://www.w3.org/2000/svg" xmlns:xlink="http://www.w3.org/1999/xlink" x="0px" y="0px"
	 viewBox="0 0 589 589" style="enable-background:new 0 0 589 589;" xml:space="preserve">
<path d="M240.8,432.5c-1.5,0-3-0.6-4.2-1.7c-26.3-26.2-66.2-65.7-69.5-68.8c-1.4-1.1-2.2-2.8-2.2-4.6c0-1.6,0.7-3.1,1.8-4.2
	l50.5-50.9c6.9-7,15.4-12.1,24.4-14.9c4.6-1.4,9.1-2.1,13.2-2.1h123c0.5,0,1.1,0,1.6,0c8.1-0.2,16.4,4.4,16.8,15.1
	c0,1,0.1,2.1,0.2,3.1c0.3,6,0.7,12.8-4,17.8c-3.6,3.8-9,5.5-17.1,5.5H319c-1.6,0-3.1,0.3-4.4,0.9c-2.2,1.1-4.6,3.1-3.9,9
	c0,0,0,0,0,0c0,0,0,0.1,0,0.1c0,0,0,0,0,0s0,0,0,0c0.6,1.9,4.5,5.1,15.6,4.5c17.9-1,43.3-0.3,51.4-0.1l66.9-66.9c3-3,7-4.9,11.2-5.3
	c10.9-1.1,18.6,0.3,22.8,4.3c3.7,3.5,5.4,8.1,4.7,13.1c-0.4,2.9-1.6,5.7-3.5,8.1l-65.4,83.4c-1.8,2.3-3.4,4.6-5.2,7l-0.7,0.9
	c-3.7,5.2-9.2,8-15.3,8H282.1L245,430.8C243.8,432,242.3,432.5,240.8,432.5z M179.2,357.3c1.8,1.8,4.1,4,6.8,6.7
	c6.6,6.5,15.3,15.2,24.1,23.8c12.3,12.2,24.5,24.4,30.7,30.5l34.6-34.6c1.1-1.1,2.6-1.7,4.2-1.7h113.7c2.3,0,4.2-1.1,5.7-3.1
	l0.7-0.9c1.8-2.4,3.6-4.9,5.5-7.4l65.4-83.4c0.6-0.8,1-1.6,1.1-2.5c0.2-1.2-0.1-2-1.1-2.9c-0.7-0.6-4.4-2.1-13.6-1.1
	c-1.5,0.2-2.9,0.8-4,1.9l-68.7,68.7c-1.2,1.2-2.7,1.8-4.4,1.7c-0.3,0-32.4-1.1-52.9,0c-1.1,0.1-2.2,0.1-3.3,0.1
	c-21.9,0-24.5-12.8-24.7-15.1l0,0c-1.2-9.6,2.6-17.2,10.5-21c2.9-1.4,6.2-2.1,9.6-2.1h56.2c6.2,0,8-1.3,8.5-1.8
	c1.2-1.3,1-5.3,0.8-9.1c-0.1-1.1-0.1-2.2-0.2-3.3c0-1.4-0.1-3.9-4.7-3.8c-0.7,0-1.3,0-2,0h-123c-2.9,0-6.2,0.5-9.7,1.6
	c-7.2,2.2-13.9,6.3-19.5,12L179.2,357.3z M167.3,362.1c1.3,1,3.3,1.5,5.3,0.8c-1.3,0.4-2.8,0.4-4.1-0.1
	C168.1,362.6,167.7,362.4,167.3,362.1z M310.7,337L310.7,337L310.7,337z M310.7,336.8C310.7,336.8,310.7,336.8,310.7,336.8
	C310.7,336.8,310.7,336.8,310.7,336.8z"/>
<path d="M190.6,509.2C190.5,509.2,190.5,509.2,190.6,509.2c-3.6,0-7-1.4-9.5-4c-17.2-17.5-74.7-75.7-91.3-92.1
	c-2.5-2.5-3.9-5.8-3.9-9.4c0-3.6,1.4-6.9,3.9-9.4l0,0l35.6-35.3c5.2-5.1,13.6-5.1,18.8,0l92.2,91.4c2.5,2.5,3.9,5.8,3.9,9.4
	s-1.4,6.9-3.9,9.4L200,505.4C197.4,507.8,194.1,509.2,190.6,509.2z M100.2,403.8c17.2,17,72.8,73.3,90.4,91.1l35.4-35l-91.2-90.3
	L100.2,403.8z"/>
<path d="M264.3,115.7L264.3,115.7c14.4,0,26.2,9.5,27,10.1l9.6,8.6l10-8.6c7.6-6.6,16-9.9,24.9-9.9c15.4,0,30.5,10.4,36.9,25.2
	c3.8,8.9,4.2,17.4,1.1,25.3c-2.3,5.8-5.7,9.5-6.3,10.2l-0.1,0.1l-0.4,0.4c-15.3,15.7-55.5,56.7-66,66.5c-4.4-4.3-23-22.9-57.7-59.3
	c-12.8-13.4-17.2-26.4-13.7-40c2.7-10,8.9-16.9,9.9-18C247.5,119.1,255.5,115.7,264.3,115.7 M264.3,100.7c-10.8,0-23,3.7-35.1,14.9
	c0,0-37.3,36.5,3.4,79.1c40.7,42.5,59.1,60.6,59.1,60.6s3.9,4.4,9.5,4.4c2.6,0,5.5-0.9,8.6-3.7c9.8-8.7,68.1-68.5,68.1-68.5
	s22.2-20.7,8.7-52.3c-8.6-20.1-28.9-34.3-50.7-34.3c-11.7,0-23.8,4.1-34.8,13.6C301.1,114.4,285.3,100.7,264.3,100.7L264.3,100.7z"
	/>
</svg>
