<?xml version="1.0" encoding="utf-8"?>
<!-- Generator: Adobe Illustrator 24.3.0, SVG Export Plug-In . SVG Version: 6.00 Build 0)  -->
<svg version="1.1" id="Layer_1" xmlns="http://www.w3.org/2000/svg" xmlns:xlink="http://www.w3.org/1999/xlink" x="0px" y="0px"
	 viewBox="0 0 324 325" style="enable-background:new 0 0 324 325;" xml:space="preserve">
<g>
	<g>
		<polygon points="86.73,196.01 86.73,82.29 79.89,82.29 79.89,203.22 		"/>
		<polygon points="79.89,224.02 79.89,237.52 86.73,237.52 86.73,230.44 		"/>
	</g>
	<g>
		<polygon points="86.99,230.68 79.89,230.68 79.89,237.52 94.27,237.52 		"/>
		<polygon points="126.2,230.68 119.21,237.52 247.58,237.52 247.58,230.68 		"/>
	</g>
	<path d="M131.35,148.87V89.94c0-3.42-1.63-5.33-3.28-6.39c-1.32-0.85-2.88-1.25-4.45-1.25h-17.91c-5.94,0-6.13,6.48-6.13,6.48
		v93.65L131.35,148.87z"/>
	<path d="M215,217.41v-11.67c0-3.29,2.65-5.96,5.95-5.97c0.06,0,0.12,0,0.17,0h17.91c1.58,0,3.13,0.05,4.45,0.17
		c1.64,0.14,3.28,1.75,3.28,2.2v15.28L215,217.41L215,217.41z"/>
	<g>
		<polygon points="139.75,217.41 170.36,217.41 170.36,187.45 		"/>
		<path d="M157.89,120.84h-13.17c-5.94,0-6.13,4.63-6.13,4.63v15.75L157.89,120.84z"/>
	</g>
	<path d="M205.28,160.44c-1.32-0.36-2.88-0.53-4.45-0.53h-2.33l-21.71,21.24v36.26h31.76v-54.25
		C208.56,161.71,206.93,160.89,205.28,160.44z"/>
</g>
<polygon points="242.63,53.53 54.69,246.78 74.2,266.28 265.67,74.8 "/>
<path d="M161.96,13.3c-82.44,0-149.27,66.83-149.27,149.27s66.83,149.27,149.27,149.27S311.22,245,311.22,162.56
	S244.39,13.3,161.96,13.3z M161.96,289.2c-69.94,0-126.63-56.7-126.63-126.63c0-69.94,56.7-126.63,126.63-126.63
	s126.63,56.7,126.63,126.63S231.89,289.2,161.96,289.2z"/>
</svg>
