<?xml version="1.0" encoding="utf-8"?>
<!-- Generator: Adobe Illustrator 24.3.0, SVG Export Plug-In . SVG Version: 6.00 Build 0)  -->
<svg version="1.1" id="Layer_1" xmlns="http://www.w3.org/2000/svg" xmlns:xlink="http://www.w3.org/1999/xlink" x="0px" y="0px"
	 viewBox="0 0 295.5 300" style="enable-background:new 0 0 295.5 300;" xml:space="preserve">
<style type="text/css">
	.st0{display:none;}
	.st1{display:none;fill:none;}
</style>
<g>
	<g>
		<path class="st0" d="M219.09,81.18c-0.48-0.8-1.08-1.35-1.72-1.72L219.09,81.18z"/>
		<path d="M66.21,190.42l8.15-8.25v-18.02h17.79l8.86-8.97v-69h68.13l7.3-7.39H98.11c-4.4,0-4.75,3.35-4.72,4.65
			c0.02,0.73,0.04,1.46,0.04,2.19v70.2H73.67c-1.04,0-2.07-0.07-3.12-0.12c-4-0.2-4.32,4.56-4.26,6.58c0.02,0.96,0.04,1.9,0.03,2.86
			C66.27,169.35,66.17,179.74,66.21,190.42z"/>
		<path class="st0" d="M67.53,210.27c1.75,4.71,5.17,7.48,8.44,9.09L67.53,210.27z"/>
		<path d="M212.71,118.52v85.13c-0.97,10.59-9.82,10.59-9.82,10.59h-82.37l-7.1,7.37h88.37c17.98,0,18.29-18.33,18.29-18.33v-92.42
			L212.71,118.52z"/>
	</g>
	<g>
		<path d="M197.78,144.59H187.6l-7.42,7.7h17.6c1.84,0,3.36-1.52,3.36-3.36v-0.97C201.15,146.1,199.64,144.59,197.78,144.59z"/>
	</g>
	<path d="M197.92,165.76h-30.71l-7.12,7.39h37.82c1.78,0,3.23-1.44,3.23-3.23v-0.93C201.15,167.21,199.69,165.76,197.92,165.76z"/>
	<path d="M197.78,186.95H146.8l-7.42,7.7h58.4c1.84,0,3.36-1.51,3.36-3.36v-0.97C201.15,188.46,199.64,186.95,197.78,186.95z"/>
	<path class="st0" d="M197.78,109.92h-28.89c-1.85,0-3.36-1.51-3.36-3.36v-0.97c0-1.85,1.51-3.36,3.36-3.36h28.89
		c1.85,0,3.36,1.51,3.36,3.36v0.97C201.15,108.41,199.63,109.92,197.78,109.92z"/>
	<polygon class="st1" points="61.17,203.43 201.26,63.34 229,91.09 87.89,232.19 	"/>
	<path class="st0" d="M198.99,121.1l-7.76,7.76h6.41c1.93,0,3.51-1.58,3.51-3.51v-1.01C201.15,122.88,200.25,121.63,198.99,121.1z"
		/>
	<path d="M117.12,138.87l8.93-9.05h-0.71c-2.62,0-4.76-2.14-4.76-4.76v-16.15c0-2.62,2.14-4.76,4.76-4.76h24.82
		c0.38,0,0.74,0.06,1.09,0.14l6.92-7.01c-0.41-0.11-0.83-0.2-1.27-0.2h-38.3c-2.62,0-4.76,2.14-4.76,4.76v32.53
		C113.84,136.47,115.22,138.24,117.12,138.87z"/>
</g>
<polygon points="218.97,52.7 52.37,224.01 69.66,241.29 239.39,71.55 "/>
<path d="M147.46,17.04c-73.08,0-132.32,59.24-132.32,132.32s59.24,132.32,132.32,132.32s132.31-59.25,132.31-132.33
	C279.77,76.27,220.53,17.04,147.46,17.04z M147.46,261.61c-62,0-112.25-50.26-112.25-112.25c0-62,50.26-112.25,112.25-112.25
	s112.25,50.26,112.25,112.25C259.71,211.35,209.45,261.61,147.46,261.61z"/>
</svg>
