<?xml version="1.0" encoding="utf-8"?>
<!-- Generator: Adobe Illustrator 24.3.0, SVG Export Plug-In . SVG Version: 6.00 Build 0)  -->
<svg version="1.1" id="Layer_1" xmlns="http://www.w3.org/2000/svg" xmlns:xlink="http://www.w3.org/1999/xlink" x="0px" y="0px"
	 viewBox="0 0 376 297" style="enable-background:new 0 0 376 297;" xml:space="preserve">
<path d="M60.4,256c8.3-8.3,17-16.9,25.8-25.6c-6.4-5.2-12.6-10-18.5-15.2C47.1,197,30.8,175.4,18.3,151c-0.7-1.3-0.7-3.6-0.1-4.9
	C42.7,99.7,77.6,64.3,127.4,45.6c44.7-16.8,89.2-14.7,132.8,4.7c3.3,1.5,5.1,1.1,7.4-1.4c9.3-9.6,18.8-18.9,28-28.1
	c6.7,6.7,13.3,13.3,19.8,19.9c-8.3,8.1-17,16.8-26,25.6c6.6,5.4,12.7,10,18.4,15c20.8,18.2,37.1,39.8,49.8,64.3
	c0.7,1.4,1,3.9,0.2,5.2c-23.1,44.2-56,78.5-102.5,98c-46.7,19.5-93.5,18.3-139.7-2.3c-2.9-1.3-4.6-1-6.8,1.3
	c-9.4,9.7-19,19.1-28.2,28.4C73.8,269.5,67.3,262.9,60.4,256z M134.2,223.1c0.8,0.4,1.4,0.6,2,0.9c26.3,10.4,53.5,13.1,81.1,7
	c47.9-10.7,82.5-39.6,108-80.5c0.6-1,0.4-3.2-0.3-4.3c-3.2-5.2-6.6-10.3-10.3-15.2c-12-16.1-26.2-29.9-42.9-41.1
	c-1.4-1-2.7-2.4-4.6-0.4c-8.3,8.4-16.7,16.7-25,24.9c17.2,29,10.1,59.2-7.1,77.7c-9.2,9.9-20.3,16.3-33.5,19.2
	c-17,3.7-32.8,0.5-47.3-8.2C147.6,209.7,141.1,216.2,134.2,223.1z M133.4,182.1c-16.5-27.4-10.3-57.6,6.9-76.6
	c9-10,20.2-16.6,33.3-19.6c17.2-3.9,33.4-0.8,47.4,7.6c7-6.9,13.5-13.4,20.1-19.9c-0.2-0.1-0.8-0.4-1.4-0.6
	c-30.2-11.7-60.9-13.5-92-4.1C105.2,81.7,74,109,50.9,146.3c-0.7,1.2-0.5,3.7,0.3,5.1c7.9,13,17.1,25.1,28.2,35.5
	c8.6,8,17.9,15.3,26.6,22.7C115.7,199.9,124.5,191.1,133.4,182.1z M199.9,115.3c-12.1-5.7-29.1-1.3-38.9,10
	c-8.9,10.2-11,27.2-6,34.9C169.9,145.2,185,130.2,199.9,115.3z M176,181.8c12.5,5.3,28.2,1.6,38-8.9c9.4-10.1,12.4-25.9,7.2-36.2
	C206.2,151.6,191.2,166.6,176,181.8z"/>
</svg>
