<?xml version="1.0" encoding="utf-8"?>
<!-- Generator: Adobe Illustrator 24.3.0, SVG Export Plug-In . SVG Version: 6.00 Build 0)  -->
<svg version="1.1" id="Layer_1" xmlns="http://www.w3.org/2000/svg" xmlns:xlink="http://www.w3.org/1999/xlink" x="0px" y="0px"
	 viewBox="0 0 376 325" style="enable-background:new 0 0 376 325;" xml:space="preserve">
<path d="M52.1,149.1L52.1,149.1c-0.4,0-0.7,0-1,0l0,0c-2,0-3.2,0.7-4.7,2.2c-1.7,1.7-3.3,4.9-4.5,9.1c-2.3,8.4-2.5,20.8-0.7,33.1
	c1.8,12.3,5.6,24.5,10.5,32.8c2.4,4.2,5.1,7.3,7.6,9.1c2.5,1.8,4.5,2.3,7,2c5.3-1.1,10.5-2.2,15.8-3.3l10.8-84.4
	C79.4,149.6,65.8,149.4,52.1,149.1L52.1,149.1z"/>
<path d="M176.1,145.8l22,59.6c5.8-1.8,11.5-3.6,17.2-5.5l-25.4-55.6C185.3,144.9,180.7,145.3,176.1,145.8z"/>
<path d="M149.2,147.8l20.8,65.6c5.8-1.6,11.6-3.2,17.3-4.8l-22.8-61.8C159.4,147.2,154.3,147.5,149.2,147.8z"/>
<path d="M121.7,149.1l19,71.8c6.2-1.5,12.3-3,18.5-4.6l-21.5-67.8C132.3,148.7,127,148.9,121.7,149.1z"/>
<path d="M278.8,289.1c-17.2,0-32.7-2.8-44.5-7.7c-3.6-1.5-6.9-3.2-9.8-5.2v17.3c0,1.6,0.7,3.4,3,5.7c2.3,2.3,6.1,4.7,11,6.7
	c9.9,4.1,24.3,6.9,40.2,6.9c15.9,0,30.3-2.8,40.2-6.9c4.9-2.1,8.7-4.5,11-6.7c2.3-2.3,3-4.1,3-5.7v-17.3c-2.9,2-6.1,3.7-9.8,5.2
	C311.5,286.3,295.9,289.1,278.8,289.1z"/>
<path d="M278.8,239.2L278.8,239.2c-15.9,0-30.3,2.7-40.2,6.9c-4.9,2.1-8.7,4.5-11.1,6.7c-2.3,2.3-3,4.1-3,5.7c0,1.6,0.7,3.4,3,5.7
	c2.3,2.3,6.1,4.7,11,6.7c9.9,4.1,24.3,6.9,40.2,6.9c15.9,0,30.3-2.8,40.2-6.9c4.9-2.1,8.7-4.5,11-6.7c2.3-2.3,3-4.1,3-5.7
	c0-1.6-0.7-3.4-3-5.7c-2.3-2.3-6.1-4.7-11-6.7C309,242,294.7,239.2,278.8,239.2z"/>
<path d="M104.2,149.5l-10.5,82c12.1-2.6,24.1-5.3,36-8l-19.6-74.1C108.2,149.4,106.2,149.4,104.2,149.5z"/>
<polygon points="321.5,17.6 280,17.6 268.4,47.9 307.4,53.7 "/>
<path d="M256,184.7l47.1-120.2l-38.9-5.9l-30.4,79.3l-3.1,0.6c-9.6,1.7-19.3,3.2-29.1,4.5l24.4,53.3
	C236.2,192.7,246.2,188.8,256,184.7z"/>
</svg>
