<?xml version="1.0" encoding="utf-8"?>
<!-- Generator: Adobe Illustrator 24.3.0, SVG Export Plug-In . SVG Version: 6.00 Build 0)  -->
<svg version="1.1" id="Layer_1" xmlns="http://www.w3.org/2000/svg" xmlns:xlink="http://www.w3.org/1999/xlink" x="0px" y="0px"
	 viewBox="0 0 375 246.87" style="enable-background:new 0 0 375 246.87;" xml:space="preserve">
<path d="M30.84,237.06c0,0,6.91-17.32-14.29-23.49s17.74-2.12,20.71,11.92c2.97,14.04,5.42-33.76,5.42-33.76l2.97,32.31l7.9-22.35
	l-1.97,16.63l6.42-7.12l4.94,10.44l16.05,3.03l-4.72-16.32l5.9,9.96l6.2-32.28v32.76c0,0,3.51-35,13.2-30.07
	c0,0-8.93-2.39-6.17,22.83l3.55-4.15l2.64,18.5c0,0,16.1-17.56,9.68-31.3c0,0,8.44,11.84,1.52,31.3l7.87-10.41l12.32,9.51
	l9.36-52.69l-1.49,52.38l6.42-31.97v29.43c0,0,10.35-16.63,5.42-38.46c-4.94-21.83,8.88,5.84,4.94,30.85l5.9-5.69v15.77
	c0,0,2.97-38.96,19.71-35.94c0,0-18.75,9.72-4.94,35.33l2.97-19.38l5.27,13.66c0,0,11.59-18.5,10.08-27.52
	c-1.52-9.02,8.21,12.35,0.15,27.52c0.99,5.72,11.66-1.91,11.66-1.91l12.87,8.24l5.63-14.41l19.41,9.03c0,0,16.87-34.61,10.91-51.01
	c0,0,8.93,22.04,0,51.96l11.29-20.65v15.44c0,0,9.36-28.83,16.25-26.29c0,0-12.32,18.68-4.45,26.77l7.39-12.81v12.81
	c0,0,18.75-19.47,7.39-41.79c0,0,14.29,14.72,6.42,44.63l15.77-15.65l5.9,14.23l10.5-34.18c0,0-0.63,26.1-0.63,29.43
	c0,3.33,0.48-10.94,10.84-15.2c0,0-12.81,15.2,0,20.89l12.32-18.29l-2.97,17.32l6.91-6.63v10.44l6.42-18.04l2.75,34.43L30.84,237.06
	L30.84,237.06z"/>
<polygon points="10.24,156.65 60.53,146.57 60.53,236.43 84.7,236.43 84.7,146.57 124.36,146.57 124.36,236.43 142.31,237.06 
	142.31,110.63 230.1,37.35 308.2,117.36 308.2,237.06 328.1,237.06 328.1,137.21 342.45,151.56 367.34,137.21 231.91,10.2 
	121.82,69.15 "/>
<rect x="193.16" y="147.39" width="53.29" height="89.64"/>
<circle cx="227.86" cy="100.6" r="19.95"/>
</svg>
