<?xml version="1.0" encoding="utf-8"?>
<!-- Generator: Adobe Illustrator 24.3.0, SVG Export Plug-In . SVG Version: 6.00 Build 0)  -->
<svg version="1.1" id="Layer_1" xmlns="http://www.w3.org/2000/svg" xmlns:xlink="http://www.w3.org/1999/xlink" x="0px" y="0px"
	 viewBox="0 0 376 204.51" style="enable-background:new 0 0 376 204.51;" xml:space="preserve">
<path d="M336.02,32.44C286.39-7.85,230.33,20.18,230.33,20.18H83.19c0,0-68.23,0.58-74.7,72.99c-3.35,37.5,16.18,58.71,35.78,70.44
	c15.24,9.12,32.78,13.64,50.54,13.64h125.01c0,0,58.92,37.17,109.39,2.17c21.72-15.05,34.89-39.49,36.97-65.83
	C368.13,88.96,364.3,55.39,336.02,32.44z M276.75,181.45c-44.02,0-79.7-35.68-79.7-79.7s35.68-79.7,79.7-79.7s79.7,35.68,79.7,79.7
	S320.77,181.45,276.75,181.45z"/>
<circle cx="273.55" cy="102.56" r="23.22"/>
<g>
	<path d="M273.41,70.82h-0.36c-1.88,0-3.41-1.54-3.41-3.41V53.68c0-1.88,1.54-3.41,3.41-3.41h0.36c1.88,0,3.41,1.54,3.41,3.41V67.4
		C276.82,69.28,275.28,70.82,273.41,70.82z"/>
	<path d="M303.46,103v-0.36c0-1.88,1.54-3.41,3.41-3.41l13.72,0c1.88,0,3.41,1.54,3.41,3.41l0,0.36c0,1.88-1.54,3.41-3.41,3.41
		l-13.72,0C305,106.41,303.46,104.88,303.46,103z"/>
	<path d="M294.77,81.61l-0.26-0.26c-1.33-1.33-1.33-3.5,0-4.82l9.7-9.7c1.33-1.33,3.5-1.33,4.82,0l0.26,0.26
		c1.33,1.33,1.33,3.5,0,4.82l-9.7,9.7C298.27,82.94,296.1,82.94,294.77,81.61z"/>
</g>
<g>
	<path d="M274.91,134.24l0.36,0.02c1.87,0.08,3.34,1.68,3.26,3.56l-0.6,13.71c-0.08,1.87-1.68,3.34-3.56,3.26l-0.36-0.02
		c-1.87-0.08-3.34-1.68-3.26-3.56l0.6-13.71C271.43,135.62,273.03,134.16,274.91,134.24z"/>
	<path d="M246.29,100.77l-0.02,0.36c-0.08,1.87-1.68,3.34-3.56,3.26l-13.71-0.6c-1.87-0.08-3.34-1.68-3.26-3.56l0.02-0.36
		c0.08-1.87,1.68-3.34,3.56-3.26l13.71,0.6C244.91,97.29,246.38,98.89,246.29,100.77z"/>
	<path d="M254.04,122.52l0.24,0.27c1.27,1.38,1.17,3.55-0.21,4.82l-10.12,9.27c-1.38,1.27-3.55,1.17-4.82-0.21l-0.24-0.27
		c-1.27-1.38-1.17-3.55,0.21-4.82l10.12-9.27C250.6,121.04,252.77,121.13,254.04,122.52z"/>
	<path d="M309.96,141.92l-0.27,0.24c-1.38,1.27-3.55,1.17-4.82-0.21l-9.27-10.12c-1.27-1.38-1.17-3.55,0.21-4.82l0.27-0.24
		c1.38-1.27,3.55-1.17,4.82,0.21l9.27,10.12C311.43,138.49,311.34,140.65,309.96,141.92z"/>
	<path d="M251.24,77.8l-0.27,0.24c-1.38,1.27-3.55,1.17-4.82-0.21l-9.27-10.12c-1.27-1.38-1.17-3.55,0.21-4.82l0.27-0.24
		c1.38-1.27,3.55-1.17,4.82,0.21l9.27,10.12C252.71,74.36,252.62,76.53,251.24,77.8z"/>
</g>
</svg>
