<?xml version="1.0" encoding="utf-8"?>
<!-- Generator: Adobe Illustrator 24.3.0, SVG Export Plug-In . SVG Version: 6.00 Build 0)  -->
<svg version="1.1" id="Layer_1" xmlns="http://www.w3.org/2000/svg" xmlns:xlink="http://www.w3.org/1999/xlink" x="0px" y="0px"
	 viewBox="0 0 326 325" style="enable-background:new 0 0 326 325;" xml:space="preserve">
<style type="text/css">
	.st0{fill:#406AF0;}
	.st1{fill:#407FFF;}
	.st2{filter:url(#AI_BevelShadow_1);}
	.st3{fill:#FFFFFF;}
</style>
<filter  height="180%" id="AI_BevelShadow_1" width="180%" x="-20%" y="-20%">
	<feGaussianBlur  in="SourceAlpha" result="blur" stdDeviation="4"></feGaussianBlur>
	<feOffset  dx="7" dy="7" in="blur" result="offsetBlur"></feOffset>
	
		<feSpecularLighting  in="blur" result="specOut" specularConstant="1" specularExponent="10" style="lighting-color:white" surfaceScale="5">
		<fePointLight  x="-5000" y="-10000" z="-20000"></fePointLight>
	</feSpecularLighting>
	<feComposite  in="specOut" in2="SourceAlpha" operator="in" result="specOut"></feComposite>
	<feComposite  in="SourceGraphic" in2="specOut" k1="0" k2="1" k3="1" k4="0" operator="arithmetic" result="litPaint">
		</feComposite>
	<feMerge>
		<feMergeNode  in="offsetBlur"></feMergeNode>
		<feMergeNode  in="litPaint"></feMergeNode>
	</feMerge>
</filter>
<circle class="st0" cx="163.9" cy="162.9" r="152.2"/>
<g>
	<circle class="st1" cx="151.8" cy="145" r="130.7"/>
</g>
<g class="st2">
	<path class="st3" d="M124.4,228.4H88.1c-1.5,0-2.7-1.3-2.7-2.9v-79.8c0-1.6,1.2-2.9,2.7-2.9h36.3c1.5,0,2.7,1.3,2.7,2.9v79.8
		C127.1,227.1,125.9,228.4,124.4,228.4z"/>
</g>
<g class="st2">
	<path class="st3" d="M141.6,154.2c0.2-1.5,1.1-5.5,4.4-8.6c1.2-1.1,2.4-2.4,3.4-3.7c3.8-5.1,11.8-17.1,13.7-30.7
		c2.4-18.1,3.5-33.2,18.1-26.1c11.3,5.5,12,15.9,11.7,20.4c-0.2,3.3-0.2,6.6-0.3,9.8l0,19.6h24.7c0,0,10-0.3,14.7,8.5
		c2.1,4,2.4,8.7,0.3,12.6c-0.9,1.7-2.3,3.3-4.4,4.3c0,0,5.5,6.5,4,13.2c-1.6,6.7-7.7,9.7-7.7,9.7s3.4,5.5,2.7,11
		c-0.8,5.5-4.2,7-6.4,8.1c0,0,1.5,7.2-1,11.9c-0.6,1.1-1.5,2.2-2.4,3c-2.8,2.5-6.5,3.8-10.3,3.9l-58.3,0.7c0,0-6.6,0.2-6.6-8.5
		c0-8.3-0.2-53.4-0.2-58C141.5,154.9,141.5,154.5,141.6,154.2z"/>
</g>
</svg>
