<?xml version="1.0" encoding="utf-8"?>
<!-- Generator: Adobe Illustrator 24.3.0, SVG Export Plug-In . SVG Version: 6.00 Build 0)  -->
<svg version="1.1" id="Layer_1" xmlns="http://www.w3.org/2000/svg" xmlns:xlink="http://www.w3.org/1999/xlink" x="0px" y="0px"
	 viewBox="0 0 376 325" style="enable-background:new 0 0 376 325;" xml:space="preserve">
<style type="text/css">
	.st0{fill:#E24C4B;}
	.st1{fill:#D1403F;}
	.st2{fill:#E8706F;}
</style>
<path class="st0" d="M187.3,78.5c0,0,13.2-45.3,56.4-62.6c21.7-8.7,45.9-7.4,67,2.6c25.3,12.1,57.4,39.6,56.8,101.4
	c-1,99.4-129.6,172.8-161.5,189.7c-1,0.6-2.1,1.1-3.1,1.7c-3.4,1.9-15.3,7.3-29.2-0.1c0,0-166.5-77.9-165.1-199.6
	c0,0-0.2-46.5,32-77C73.1,4,124.1,2.8,157.8,32.1C169.5,42.3,180.4,57.1,187.3,78.5z"/>
<path class="st1" d="M275,9.9c0,0,58.9,216.2-181.6,249.3c0,0,41.4,32.1,80.3,52.1c0,0,14.2,7,29.2,0.1c15.1-6.9,167-83.3,165-198.7
	C368,112.6,367,14.7,275,9.9z"/>
<ellipse transform="matrix(0.9239 -0.3826 0.3826 0.9239 -26.893 40.9554)" class="st2" cx="89.5" cy="88.1" rx="53.8" ry="38"/>
</svg>
