<?xml version="1.0" encoding="utf-8"?>
<!-- Generator: Adobe Illustrator 24.3.0, SVG Export Plug-In . SVG Version: 6.00 Build 0)  -->
<svg version="1.1" id="Layer_1" xmlns="http://www.w3.org/2000/svg" xmlns:xlink="http://www.w3.org/1999/xlink" x="0px" y="0px"
	 viewBox="0 0 323.9 325" style="enable-background:new 0 0 323.9 325;" xml:space="preserve">
<style type="text/css">
	.st0{fill:url(#SVGID_1_);}
	.st1{fill:url(#SVGID_2_);}
	.st2{fill:url(#SVGID_3_);}
	.st3{filter:url(#strong-inner);}
	.st4{fill:#C5002F;}
	.st5{fill:#C5092F;}
</style>
<filter  id="strong-inner">
	<feFlood  flood-color="dark brown"></feFlood>
	<feComposite  in2="SourceGraphic" operator="out"></feComposite>
	<feMorphology  operator="dilate" radius="3"></feMorphology>
	<feGaussianBlur  stdDeviation="3"></feGaussianBlur>
	<feComposite  in2="SourceGraphic" operator="atop"></feComposite>
</filter>
<linearGradient id="SVGID_1_" gradientUnits="userSpaceOnUse" x1="12" y1="162.9" x2="310.2" y2="162.9" gradientTransform="matrix(1 0 0 -1 0 325)">
	<stop  offset="0" style="stop-color:#F15A24"/>
	<stop  offset="1" style="stop-color:#F15A24"/>
	<stop  offset="1" style="stop-color:#E5C852"/>
</linearGradient>
<circle class="st0" cx="161.1" cy="162.1" r="149.1"/>
<linearGradient id="SVGID_2_" gradientUnits="userSpaceOnUse" x1="159" y1="301.2836" x2="159" y2="20.6361" gradientTransform="matrix(1 0 0 -1 0 325)">
	<stop  offset="0" style="stop-color:#E5D400"/>
	<stop  offset="1" style="stop-color:#F7931E"/>
	<stop  offset="1" style="stop-color:#E5C852"/>
</linearGradient>
<ellipse class="st1" cx="159" cy="157.1" rx="147.1" ry="144"/>
<linearGradient id="SVGID_3_" gradientUnits="userSpaceOnUse" x1="160.8" y1="-0.36" x2="160.8" y2="348.4246" gradientTransform="matrix(1 0 0 -1 0 325)">
	<stop  offset="2.637823e-07" style="stop-color:#E26A37;stop-opacity:0"/>
	<stop  offset="1" style="stop-color:#F2F2F2"/>
</linearGradient>
<ellipse class="st2" cx="160.8" cy="162.3" rx="139.7" ry="139.9"/>
<g>
	<g class="st3">
		<path class="st4" d="M86.1,108.4c0,0-10.7-11.6-26.5-8.2c-8.9,1.9-16.4,8.1-20.3,16.3c-2.9,6.2-4.5,14.8-0.4,25.1
			c3,7.5,8.4,13.7,14.9,18.4c8.4,6,24.2,14.8,50.6,22c0,0,42.3-40.2,37.7-72.6C137.7,77.1,95,78.9,86.1,108.4z"/>
	</g>
</g>
<g>
	<g class="st3">
		<path class="st5" d="M237.7,108.1c0,0,10.7-11.6,26.5-8.2c8.9,1.9,16.4,8.1,20.3,16.3c2.9,6.2,4.5,14.8,0.4,25.1
			c-3,7.5-8.4,13.7-14.9,18.4c-8.4,6-24.2,14.8-50.6,22c0,0-42.3-40.2-37.7-72.6S228.8,78.6,237.7,108.1z"/>
	</g>
</g>
<g>
	<g class="st3">
		<path class="st5" d="M94.7,213.7c0,0,55.6,20.1,126.6,1.5c0,0,10.4-3.5,5,9.3c-5.4,12.7-23.9,40.9-65.2,40.1
			c-40.1-0.8-56.6-18.6-68.5-39.1c-1-1.7-1.8-3.6-2.3-5.5C89.5,216.5,89.4,212.3,94.7,213.7z"/>
	</g>
</g>
</svg>
