<?xml version="1.0" encoding="utf-8"?>
<!-- Generator: Adobe Illustrator 24.3.0, SVG Export Plug-In . SVG Version: 6.00 Build 0)  -->
<svg version="1.1" id="Layer_1" xmlns="http://www.w3.org/2000/svg" xmlns:xlink="http://www.w3.org/1999/xlink" x="0px" y="0px"
	 viewBox="0 0 324.7 325" style="enable-background:new 0 0 324.7 325;" xml:space="preserve">
<style type="text/css">
	.st0{fill:#C5092F;}
	.st1{fill:#FF4666;}
	.st2{filter:url(#AI_BevelShadow_1);}
	.st3{fill:#FFFFFF;}
</style>
<filter  height="140%" id="AI_BevelShadow_1" width="140%" x="-20%" y="-20%">
	<feGaussianBlur  in="SourceAlpha" result="blur" stdDeviation="8"></feGaussianBlur>
	<feOffset  dx="8" dy="8" in="blur" result="offsetBlur"></feOffset>
	
		<feSpecularLighting  in="blur" result="specOut" specularConstant="1" specularExponent="10" style="lighting-color:white" surfaceScale="5">
		<fePointLight  x="-5000" y="-10000" z="-20000"></fePointLight>
	</feSpecularLighting>
	<feComposite  in="specOut" in2="SourceAlpha" operator="in" result="specOut"></feComposite>
	<feComposite  in="SourceGraphic" in2="specOut" k1="0" k2="1" k3="1" k4="0" operator="arithmetic" result="litPaint">
		</feComposite>
	<feMerge>
		<feMergeNode  in="offsetBlur"></feMergeNode>
		<feMergeNode  in="litPaint"></feMergeNode>
	</feMerge>
</filter>
<circle class="st0" cx="161.6" cy="164.7" r="150.3"/>
<g>
	<circle class="st1" cx="149.7" cy="147" r="129"/>
</g>
<g class="st2">
	<path class="st3" d="M226.7,100.6c-32.2-29.5-68.9,13.1-71.2,15.9c0-0.1,0-0.1,0-0.1c0,0-38-46.7-71.2-16.1
		c-45,41.3,13.7,105.3,70.3,135.7c0,0,0,0,0,0c0,0,0,0,0,0c0.1,0,0.2,0.1,0.2,0.1c0,0,0-0.1,0-0.3
		C211.4,205.4,271.7,141.8,226.7,100.6z"/>
</g>
</svg>
