<?xml version="1.0" encoding="utf-8"?>
<!-- Generator: Adobe Illustrator 24.3.0, SVG Export Plug-In . SVG Version: 6.00 Build 0)  -->
<svg version="1.1" id="Layer_1" xmlns="http://www.w3.org/2000/svg" xmlns:xlink="http://www.w3.org/1999/xlink" x="0px" y="0px"
	 viewBox="0 0 376 265.8" style="enable-background:new 0 0 376 265.8;" xml:space="preserve">
<style type="text/css">
	.st0{fill:#51545A;}
</style>
<g>
	<path class="st0" d="M352.6,47.8H33.1C24.8,47.8,18,41,18,32.7v-5.2c0-8.3,6.8-15.1,15.1-15.1h319.6c8.3,0,15.1,6.8,15.1,15.1v5.2
		C367.7,41,360.9,47.8,352.6,47.8z"/>
	<path class="st0" d="M351,149.9H135.3c-8.2,0-15-6.7-15-15v-4c0-8.2,6.7-15,15-15H351c8.2,0,15,6.7,15,15v4
		C366,143.2,359.3,149.9,351,149.9z"/>
	<path class="st0" d="M351.8,256.5H29.5c-8.2,0-15-6.7-15-15v0c0-8.2,6.7-15,15-15h322.2c8.2,0,15,6.7,15,15v0
		C366.7,249.8,360,256.5,351.8,256.5z"/>
</g>
</svg>
