<?xml version="1.0" encoding="utf-8"?>
<!-- Generator: Adobe Illustrator 24.3.0, SVG Export Plug-In . SVG Version: 6.00 Build 0)  -->
<svg version="1.1" id="Layer_1" xmlns="http://www.w3.org/2000/svg" xmlns:xlink="http://www.w3.org/1999/xlink" x="0px" y="0px"
	 viewBox="0 0 376 275" style="enable-background:new 0 0 376 275;" xml:space="preserve">
<style type="text/css">
	.st0{fill:#51545A;}
</style>
<g>
	<path class="st0" d="M349.1,122.7l-322.9,0c-8.5,0-15.4,7.8-15.4,17.5c0,9.6,6.9,17.5,15.4,17.5l322.9,0c8.5,0,15.4-7.8,15.4-17.5
		C364.4,130.5,357.5,122.7,349.1,122.7z"/>
	<path class="st0" d="M26.2,44.5l322.9,0c8.5,0,15.4-7.8,15.4-17.5s-6.9-17.5-15.4-17.5l-322.9,0c-8.5,0-15.4,7.8-15.4,17.5
		C10.8,36.7,17.7,44.5,26.2,44.5z"/>
	<path class="st0" d="M349.1,229.7l-322.9,0c-8.5,0-15.4,7.8-15.4,17.5c0,9.6,6.9,17.5,15.4,17.5l322.9,0c8.5,0,15.4-7.8,15.4-17.5
		C364.4,237.5,357.6,229.7,349.1,229.7z"/>
</g>
</svg>
