<?xml version="1.0" encoding="utf-8"?>
<!-- Generator: Adobe Illustrator 24.3.0, SVG Export Plug-In . SVG Version: 6.00 Build 0)  -->
<svg version="1.1" id="Layer_1" xmlns="http://www.w3.org/2000/svg" xmlns:xlink="http://www.w3.org/1999/xlink" x="0px" y="0px"
	 viewBox="0 0 324.7 325" style="enable-background:new 0 0 324.7 325;" xml:space="preserve">
<path d="M131.2,217.6c-14,12.9-27.7,25.4-41.4,37.9c-18.1,16.6-36.1,33.1-54.1,49.7c-2.9,2.7-6.1,4.4-10.2,4.1
	c-5-0.4-8.6-3-10.3-7.7c-1.8-4.8-0.8-9.2,2.7-13c10.9-11.9,21.8-23.8,32.8-35.7c17.6-19.2,35.2-38.3,52.8-57.5
	c0.8-0.9,1.6-1.9,3.5-4.1c-1.3-0.7-2.7-1.1-3.7-2.1c-11.8-11.7-23.7-23.5-35.4-35.3c-14.4-14.6-12.1-37.7,4.8-47.9
	c8.2-4.9,17.4-5.7,26.7-5.8c10.3-0.1,20.3,2.1,29.8,6.2c1.2,0.5,3.4,0.6,4.3-0.1c15.8-11.8,31.4-23.7,47.1-35.6
	c0.3-0.2,0.5-0.5,0.3-0.3c-2-5.3-4.4-10-5.5-15.1c-2.9-14.4,3.9-28.4,16.6-35.5c12.4-7,28.1-5.4,38.7,4.4c9.6,8.9,18.7,18.4,28,27.7
	c13,12.9,26,25.8,38.8,38.8c14.8,15,13.9,37.6-1.7,50.5c-11.4,9.4-27.1,10.3-39.9,2.2c-0.6-0.4-1.2-0.8-2-1.4
	c-0.7,0.7-1.3,1.3-1.8,2c-11.4,15.1-22.8,30.2-34.4,45.2c-1.4,1.9-1.6,3.3-0.6,5.4c6.6,14.9,8,30.4,4.4,46.2
	c-2.6,11.5-9.4,19.5-20.7,22.9c-11.6,3.5-22,0.8-30.7-7.7c-12-11.8-23.8-23.7-35.7-35.6C133.5,219.7,132.5,218.8,131.2,217.6z
	 M199.6,223.2c-0.6-8.9-3.1-17.2-7.8-24.7c-3.4-5.5-3.2-10.7,0.7-15.8c16.6-21.9,33.2-43.9,49.9-65.7c4.8-6.4,12.7-6.9,18.5-1.5
	c2.3,2.1,4.4,4.5,6.7,6.6c2.6,2.4,5.6,3.4,9,2.5c7.5-2.1,9.5-10.6,3.6-16.5c-12.3-12.5-24.8-24.8-37.2-37.2
	c-9.3-9.3-18.5-18.6-27.9-27.8c-4.1-4-9.8-4-13.5-0.3c-3.8,3.8-3.8,9.3,0.2,13.6c1.7,1.9,3.6,3.6,5.3,5.4c6.9,7,6.4,14.6-1.5,20.6
	c-20.9,15.9-41.8,31.7-62.8,47.6c-7.7,5.8-10.9,6-19.2,1.3c-11.3-6.4-23.2-8-35.8-5.2c-4.6,1-6.7,5.1-4.7,8.8c0.8,1.4,2,2.6,3.2,3.7
	c27.5,27.5,55,55,82.5,82.5c6.1,6.1,12.1,12.2,18.2,18.2c4.1,3.9,9.5,2.4,10.7-3.1C198.7,231.7,199,227.4,199.6,223.2z"/>
</svg>
