<?xml version="1.0" encoding="utf-8"?>
<!-- Generator: Adobe Illustrator 24.3.0, SVG Export Plug-In . SVG Version: 6.00 Build 0)  -->
<svg version="1.1" id="Layer_1" xmlns="http://www.w3.org/2000/svg" xmlns:xlink="http://www.w3.org/1999/xlink" x="0px" y="0px"
	 viewBox="0 0 342 325" style="enable-background:new 0 0 342 325;" xml:space="preserve">
<style type="text/css">
	.st0{fill:none;stroke:#000000;stroke-width:0;stroke-linecap:round;stroke-linejoin:round;}
</style>
<g>
	<path class="st0" d="M84.8,109.4C84.8,109.4,84.8,109.4,84.8,109.4"/>
	<path d="M328.4,63.8c-3.5-5.9-8.8-8.3-15.5-8.3c-19.6,0-39.3,0-58.9,0c-0.7,0-1.4,0-2,0.1c-1.7,0.3-2.8,1.5-2.9,3.2
		c-0.1,2.4,1.4,3.7,4.2,3.7c19.9,0,39.7,0,59.6,0c6.8,0,10.5,3.7,10.5,10.5c0,72,0,143.9,0.1,215.9c0,6.2-4.4,10.4-10.4,10.4
		c-48.6-0.2-97.2-0.1-145.8-0.1c-0.6,0-1.1,0-1.6,0c-2.5,0.1-4.1,1.5-4,3.7c0.1,2,1.7,3.5,4.2,3.5c49.4,0,98.8,0,148.3,0
		c9.3,0,16.4-7.2,16.4-16.5c0-36.3,0-72.6,0-108.8c0-36.4,0-72.7,0-109.1C330.6,69.1,330,66.4,328.4,63.8z"/>
	<path d="M292.5,125.3c-0.6-0.3-1.4-0.3-2-0.3c-28.4,0-56.8,0-85.1,0c-28.5,0-56.9,0-85.5,0c-0.4,0-0.9,0-1.4,0
		c-1.9,0.2-3.1,1.6-3.2,3.5c-0.1,2,1.1,3.4,3.1,3.7c0.6,0.1,1.2,0.1,1.8,0.1c56.8,0,113.5,0,170.3,0c0.7,0,1.4-0.1,2-0.3
		c1.6-0.4,2.5-1.6,2.5-3.2C295,127.1,294.2,125.8,292.5,125.3z"/>
	<path d="M236.3,245c0.3,2.4,0.4,4.8,0.9,7c4,18.8,21.6,30.8,40.6,27.7c16.5-2.7,29.1-17.3,29.3-34c0-2.7-1.4-4.4-3.6-4.4
		c-2.2,0.1-3.6,1.6-3.6,4.3c-0.3,16.9-16,29.9-32.7,27.2c-11.7-1.9-21-11-23.3-22.8c-2.1-11.3,3.2-23.2,13.3-29.2
		c4.3-2.6,9-4,14.1-4.1c2.5,0,4.1-1.5,4-3.7c0-2-1.8-3.6-4.2-3.5c-0.8,0-1.4,0.1-2.1,0.2C250.6,211.1,236.5,226.4,236.3,245z"/>
	<path d="M238.5,86.2c7.9,7.8,18.8,8.8,27.3,2.2c0.7-0.6,1.4-1.5,1.6-2.4c0.4-1.5-0.1-2.9-1.4-3.8c-1.6-1-3.1-0.6-4.5,0.4
		c-5.5,4.1-11.3,4-16.5-0.4c-2.2-2-4.2-4.3-5.7-6.8c-4.3-7.1-5.8-15-6.2-23.4c0.6-4.2,1-8.4,2-12.5c1.5-6.5,4.2-12.5,9.4-17
		c3.4-2.9,7.3-4.4,11.8-3.3c3.3,0.8,5.9,2.7,8.2,5.3c2.7,3.1,4.6,6.5,6,10.4c0.9,2.5,2.8,3.4,4.8,2.6c2-0.8,2.7-2.8,1.8-5.3
		c-1.8-4.7-4.2-9-7.6-12.7c-8.2-9.2-20.1-10.4-29.6-2.7c-4,3.2-6.8,7.4-8.9,12c-5.4,12-6.2,24.4-3.3,37.1
		C229.5,73.5,232.8,80.6,238.5,86.2z"/>
	<path d="M144,85.4c7.7,8.3,18.9,9.7,27.9,3.2c2.2-1.6,2.8-3.7,1.4-5.5c-1.3-1.8-3.3-2-5.5-0.4c-5.6,3.9-11.4,3.7-16.7-0.6
		c-3.1-2.5-5.4-5.8-7-9.3c-5-11.2-5.5-22.7-2.5-34.4c1.5-6,4.2-11.5,8.9-15.7c5.7-5.1,12.6-5.1,18.4-0.1c3.9,3.3,6.3,7.6,8.1,12.3
		c0.8,2.4,2.7,3.4,4.8,2.6c2-0.8,2.8-2.8,2-5.1c-1.9-5-4.5-9.7-8.2-13.5c-5.5-5.6-12.2-8.4-20.1-6.6c-6,1.4-10.5,5.2-14,10.1
		c-6.4,8.8-8.5,19-8.8,31.2c0.2,1.9,0.3,5.2,0.8,8.5C134.8,70.8,137.9,78.8,144,85.4z"/>
	<path d="M205.1,199.8c4.8,0,9.6,0,14.3,0.1c3.2,0,4.5-1.3,4.5-4.4c0-9.6,0-19.3,0-28.9c0-2.9-1.3-4.3-4.1-4.3
		c-9.8-0.1-19.6-0.1-29.4,0c-2.8,0-4.1,1.4-4.1,4.2c0,9.7,0,19.4,0,29.1c0,3,1.3,4.2,4.2,4.2C195.4,199.8,200.2,199.8,205.1,199.8z
		 M193.6,169.5c7.7,0,15.3,0,23,0c0,7.7,0,15.4,0,23.1c-7.6,0-15.3,0-23,0C193.6,184.9,193.6,177.3,193.6,169.5z"/>
	<path d="M186.3,259.7c0,2.5,1.4,3.9,3.9,3.9c4.9,0,9.9,0,14.9,0c5,0,9.9,0.1,14.9,0c2.4-0.1,3.9-1.4,3.9-3.7
		c0.1-10,0.1-20.1,0-30.1c0-2.3-1.4-3.6-3.7-3.7c-0.3,0-0.4,0-0.7,0c-9.6,0-19.1,0-28.7,0c-3.1,0-4.4,1.2-4.4,3.9
		C186.3,239.9,186.3,249.8,186.3,259.7z M193.6,233.3c7.6,0,15.2,0,23,0c0,7.8,0,15.5,0,23.1c-7.6,0-15.3,0-23,0
		C193.6,248.8,193.6,241.1,193.6,233.3z"/>
	<path d="M290.6,195.7c0-9.8,0-19.5,0-29.2c0-2.8-1.3-4.2-4.1-4.2c-9.8-0.1-19.6-0.1-29.4,0c-2.7,0-4,1.4-4,4.2c0,4.8,0,9.7,0,14.5
		c0,4.9-0.1,9.9,0,14.8c0,2.8,1.3,4.1,4.1,4.1c9.8,0,19.6,0,29.4,0C289.4,199.8,290.6,198.5,290.6,195.7z M283.4,192.6
		c-7.7,0-15.4,0-23.1,0c0-7.6,0-15.3,0-23c7.6,0,15.3,0,23.1,0C283.4,177.2,283.4,184.9,283.4,192.6z"/>
	<path d="M156.9,55.6c-1.7,0.3-2.8,1.5-2.9,3.2c-0.2,2.2,1.4,3.7,3.8,3.7c8.5,0,17.1,0,25.6,0c1.5,0,3.1,0,4.8,0.1
		c7.1,0,14.1,0,21.2,0c2.1,0,3.5-1.4,3.6-3.3c0.1-2.1-1.2-3.6-3.3-3.7c-0.7-0.1-1.3-0.1-2-0.1c-16.1,0-32.4,0-48.5,0
		C158.4,55.5,157.7,55.5,156.9,55.6z"/>
	<path d="M264,254.4c4.5-0.1,9.1,0,13.6,0c1.1,0,2.3,0,3.5,0c0-6.4,0-12.6,0-18.7c-0.3-0.1-0.3-0.3-0.5-0.2c-5.7-0.1-11.3,0-17-0.1
		c-1.2,0-1.3,0.6-1.3,1.5c0,5.3,0.1,10.5,0,15.7C262.3,254.1,262.8,254.4,264,254.4z"/>
	<path d="M172.1,236.8c-1.4-39.8-34.6-73.2-77-72c-1.1,0-2.1,0.1-3.2,0.2c0.1-17.8,0.2-35.5,0.3-53.3c0-0.9-0.1-1.6-0.2-2.3
		c0-10.6,0-21.1,0.1-31.7c0-6.2,3.8-10,10-10c6.1,0,12.2,0,18.4,0c2.1,0,3.6-1.3,3.7-3.3c0.1-2.3-1.4-3.7-3.9-3.7
		c-6.4-0.1-12.7-0.3-19.1,0c-9.9,0.3-16.3,7.2-16.3,17.1c0,9.2,0,18.5,0,27.7c-4.6-0.4-8.7-1.7-11.8-5c-3.4-3.7-4.5-8.2-4.6-12.8
		c-0.2-5.4,0-10.6,0-15.9c0.1-15.4,0.3-30.8,0.3-46.1c0-8.4-7.1-14.9-16.1-14.8c-8.9,0.1-15.8,6.4-15.9,14.8
		c-0.2,19.3-0.2,38.6-0.3,57.9c0,2.2-0.1,4.5-0.3,6.7c-1.3,9.7-7,14.5-17.8,15.1c-4.2,0.3-5.9,1.8-5.9,5.4
		c-0.3,57.4-0.7,114.9-0.8,172.3c-0.1,14.9,13.3,26.9,30,27.3c6.5,0.2,13,0.2,19.5,0.1c3.2,0,6.3-0.5,9.2-1.3
		c8.5,3.3,17.8,5.2,27.5,5.1C139.8,314.1,173.5,279.1,172.1,236.8z M113.1,174.1c0.3-0.2,1-0.2,1.4-0.1c9.3,2.4,17.7,6.7,25.1,12.7
		c0.3,0.3,0.8,0.8,0.8,1.1c-0.1,3.5-0.2,7-0.3,10.6c-5.9-1.1-11.6-2.2-17.3-3.2c-1.9-0.3-3.3-1.1-4.7-2.4
		c-4.4-4.1-8.9-8.1-13.6-12.2C107.5,178.3,110.3,176.3,113.1,174.1z M84.8,109.4C84.8,109.4,84.8,109.4,84.8,109.4
		C84.8,109.4,84.8,109.4,84.8,109.4z M53.5,18.5c10.2,1,9.9,8.7,9.9,8.7v56.3H41.6V25.2C41.6,25.2,43.3,17.5,53.5,18.5z M34.5,300.6
		c-10.8-2-16.3-14.8-16.3-20.2c-0.1,0,2-169.5,2-168.8c0,0,19.4,0,21.4-21.5v-0.3h21.8v0.7c0,0-1,18,21.4,22.4v53
		c-35.6,6.1-63.3,37.6-61.9,76.4c0.8,24.8,13.8,46.5,33.1,59.4C48.9,301.9,41.5,301.9,34.5,300.6z M62.7,182.3
		c3.1,1.2,6.2,2.4,9.5,3.7c-2.9,5-5.7,9.8-8.2,14.6c-1.2,2.1-2.8,3.6-4.9,4.7c-4.6,2.4-9,4.9-13.5,7.4c-0.6,0.3-1.2,0.6-2,1
		c-1-3.4-2-6.6-2.9-9.9c-0.1-0.5,0.2-1.2,0.5-1.6c5.3-7.9,11.8-14.4,19.8-19.5C61.4,182.3,62.2,182.2,62.7,182.3z M32.3,255
		c2-2.5,4-4.8,6.2-7.5c2.7,3.1,5.1,6.3,8,9c4.3,4.1,6.5,9,7,14.9c0.3,3.5,1.2,6.9,1.8,10.4c0.1,0.6,0.1,1.2,0.2,1.5
		c-3.1,0-6.1,0.1-8.9-0.2c-0.4,0-0.9-0.6-1.3-1c-6.2-7.6-10.5-16.1-13-25.5C32.1,256.1,32.1,255.3,32.3,255z M123.9,301.3
		c-0.2,0.5-0.8,0.8-1.4,1c-8.8,3.6-18,5.2-27.5,4.8c-0.5-0.1-1.4-0.3-1.6-0.7c-1.9-2.7-3.7-5.6-5.7-8.6c6.1-2.8,12-5.5,17.8-8.2
		c0.4-0.2,0.9-0.3,1.4-0.3c6.7,0.8,13.4,1.5,20.4,2.3C126.1,295.1,125,298.2,123.9,301.3z M132.9,297c0.8-2.3,1.4-4.2,2-6
		c1.3-3.7,0.1-5.4-3.8-5.9c-7.1-0.8-14-1.7-21.1-2.4c-1.3-0.1-1.6-0.8-1.8-1.8c-0.3-1.7-0.5-3.4-0.9-5c-0.5-2.2-2.1-3.2-4.2-2.8
		c-2,0.3-3,2.1-2.6,4.2c0.3,1.8,0.8,3.5,0.9,5.2c0,0.5-0.3,1.4-0.8,1.5c-5.7,2.7-11.4,5.4-17.2,7.9c-0.5,0.2-1.3,0.2-1.8-0.1
		c-2.1-0.9-4.2-2-6.3-3.1c-2-1-4-0.4-4.9,1.4c-0.9,1.9-0.3,3.8,1.9,4.9c1.2,0.6,2.3,1.4,3.5,1.7c4.4,1.3,6.3,5,8.4,8.6
		c-5.5,0.8-25.3-8.8-30.4-14.7c1.3,0,2.5,0,3.7,0c0.8,0,1.5,0.1,2.3,0.1c2.5-0.1,3.9-1.9,3.5-4.3c-1.3-7.2-2.5-14.4-3.8-21.7
		c-0.3-1.3,0-2,1.2-2.5c1.5-0.7,3.1-1.4,4.5-2.3c1.9-1,2.5-3,1.6-4.8c-0.8-1.7-2.9-2.5-4.8-1.5c-1.6,0.8-3.1,1.6-4.7,2.5
		c-0.8,0.4-1.4,0.5-2-0.3c-4-4.7-8.2-9.3-12.2-14c-0.5-0.5-0.6-1.6-0.5-2.4c0.3-2.1,0.8-4.2,1.1-6.4c0.3-2.2-0.8-3.9-2.8-4.3
		c-2-0.3-3.7,0.8-4.2,3.1c-0.3,1.4-0.8,2.9-0.8,4.3c0,4.3-2.9,7-5.7,10.1c-1.1-11.9,0.7-22.9,5.2-34.3c0.8,2.7,1.5,4.9,2.2,7.2
		c0.9,3.1,3,4,5.8,2.5c6.5-3.6,12.9-7.1,19.4-10.6c0.3-0.2,0.7-0.3,1.1-0.6c1.6,1.5,3.1,3.1,4.8,4.5c1.7,1.5,3.8,1.6,5.2,0.2
		c1.5-1.5,1.4-3.6-0.3-5.3c-1.2-1.2-2.3-2.4-3.6-3.4c-0.8-0.7-0.8-1.3-0.3-2.2c3.1-5.3,6-10.5,9.2-15.7c0.3-0.6,1.4-1.2,2.1-1.4
		c2.1-0.5,4.3-0.7,6.5-1.1c2.2-0.3,3.4-2,3.1-4.1c-0.3-1.9-2-3.1-4.2-2.8c-2.1,0.3-4.2,0.6-6.4,1c-1.7,0.3-3.2,0.1-4.8-0.6
		c-1.5-0.7-3.2-1.3-5.2-2c10.8-4.7,21.8-6.5,33.4-5.4c-0.5,0.4-0.8,0.8-1.1,1c-1.9,1.4-3.7,2.6-5.4,3.9c-2.4,1.7-2.5,4.1-0.3,6
		c4.9,4.5,9.9,8.9,14.9,13.3c2.7,2.4,2.7,2.4,1.2,5.7c-0.4,0.9-0.8,2-1.3,2.9c-0.8,2-0.1,3.9,1.7,4.8c1.8,0.8,3.7,0.1,4.7-1.8
		c0.8-1.5,1.5-3.1,2.2-4.8c0.3-0.9,0.8-1.2,1.8-1c5.9,1.2,12,2.3,18,3.5c0.8,0.2,1.5,0.8,2,1.4c1.1,1.9,2,3.8,3.1,5.7
		c1.1,2,3.2,2.8,5,1.9c1.8-0.9,2.4-3.1,1.3-5.2c-0.8-1.7-1.5-3.4-2.6-4.9c-2.3-3.2-1-6.7-1-10.1c7.8,8.4,13,18.2,15.4,29.5
		c-1.3-1-2.5-2-3.8-3c-2.3-1.8-4.7-1.3-5.9,1.4c-3.1,6.5-6.4,13.2-9.5,19.7c-0.5,1.1-1.1,1.5-2.3,1.3c-1.7-0.3-3.5-0.6-5.2-0.8
		c-2.2-0.3-3.8,1-4,3c-0.3,2.1,1,3.7,3.2,4c1.7,0.3,3.3,0.5,5,0.7c0.9,0.1,1.3,0.5,1.4,1.4c0.6,6.3,1.2,12.6,1.7,18.9
		c0.1,0.6-0.4,1.4-0.8,1.8c-1.5,1.6-3.2,3.1-4.8,4.7c-1.6,1.6-1.7,3.8-0.3,5.3c1.4,1.4,3.6,1.4,5.2-0.2c1.2-1.2,2.5-2.2,3.5-3.5
		c2.3-2.9,5.5-3.5,9-4.1C149.5,283.7,142.3,291,132.9,297z M160.3,264.8c-0.3,0.5-0.6,1.2-1,1.3c-2.9,0.8-5.8,1.4-8.8,2.2
		c-0.5-5.6-0.8-11-1.6-16.4c-0.4-3,0.3-5.4,1.7-8c2.2-4.3,4.3-8.8,6.5-13.2c0.3-0.5,0.5-0.9,0.8-1.6c2.2,1.8,4.4,3.4,6.6,5.3
		c0.4,0.3,0.6,1.1,0.6,1.7C165.6,246.1,164,255.6,160.3,264.8z"/>
	<path d="M114.7,214.5c-1.3-2.5-3.1-3.6-5.9-3.1c-10.1,1.5-20.1,3.1-30.2,4.6c-3,0.5-4.4,2.1-4.9,5.1c-1.6,9.8-3.2,19.5-4.8,29.3
		c-0.5,3,0.5,5,3.2,6.5c8.8,4.6,17.7,9.2,26.5,13.8c2.6,1.4,4.9,1,7.1-1c7.3-7.1,14.5-14.2,21.7-21.4c1-0.9,1.4-2.5,2-3.6
		c-0.5-1.4-0.7-2.4-1.2-3.3C123.7,232.4,119.2,223.5,114.7,214.5z M120.4,245c-6.1,6-12.3,12.1-18.4,18.2c-0.7,0.7-1.2,0.7-2,0.3
		c-7.6-4-15.3-8-22.9-12c-0.4-0.3-0.8-0.7-1.1-0.9c0.7-4.2,1.3-7.9,1.9-11.9c0.8-4.8,1.5-9.4,2.3-14.2c0.3-1.3,0.7-2,2.1-2.1
		c8.4-1.1,16.8-2.5,25.2-3.7c1-0.2,1.4,0.2,1.8,0.9c3.8,7.7,7.6,15.5,11.6,23.2C121.3,243.7,121.2,244.2,120.4,245z"/>
</g>
</svg>
