<?xml version="1.0" encoding="utf-8"?>
<!-- Generator: Adobe Illustrator 24.3.0, SVG Export Plug-In . SVG Version: 6.00 Build 0)  -->
<svg version="1.1" id="Layer_1" xmlns="http://www.w3.org/2000/svg" xmlns:xlink="http://www.w3.org/1999/xlink" x="0px" y="0px"
	 viewBox="0 0 272 325" style="enable-background:new 0 0 272 325;" xml:space="preserve">
<g>
	<path d="M258.1,113.4c0,15.6,0.7,31.3-0.1,46.9c-1.8,33.1-13.2,63-32.6,89.9c-20.8,28.8-47.7,49.2-81.7,60.3
		c-8.4,2.7-15.2,0-22.4-2.6c-35-13-61.7-36.2-81.3-67.7c-17.9-28.6-26.7-59.9-26.6-93.8c0.1-25.3,0.1-50.6,0-76
		c0-2.3,0.6-3.5,2.8-4.5c39.1-17.3,78.1-34.6,117-52c2-0.9,3.7-0.9,5.7,0c38.9,17.4,77.8,34.7,116.8,51.9c2.4,1.1,3,2.3,2.9,4.8
		c-0.1,14.3-0.1,28.5-0.1,42.8C258.4,113.4,258.3,113.4,258.1,113.4z M40.7,123.1c0,8.4,0,16.8,0,25.2c-0.1,24.6,5.8,47.8,17.5,69.4
		c15.2,28.1,37,49.2,66.4,62.4c7.7,3.5,14.4,3.7,22.3,0.3c48.3-20.9,83.1-72.3,84.2-125.8c0.5-22.4,0.1-44.9,0.2-67.3
		c0-1.9-0.7-2.8-2.4-3.5c-30.3-13.4-60.6-26.9-90.9-40.3c-1.2-0.5-2.9-0.5-4.1,0C103.7,57,73.6,70.4,43.4,83.8
		c-2.1,0.9-2.7,2.1-2.7,4.3C40.8,99.7,40.7,111.4,40.7,123.1z"/>
	<path d="M122.6,149.2c9,0,17.7,0,26.7,0c0,27.2,0,54.2,0,81.4c-9,0-17.7,0-26.7,0C122.6,203.5,122.6,176.6,122.6,149.2z"/>
	<path d="M122.6,121.6c0-9,0-17.9,0-26.9c9,0,17.7,0,26.7,0c0,9,0,17.9,0,26.9C140.5,121.6,131.7,121.6,122.6,121.6z"/>
</g>
</svg>
