<?xml version="1.0" encoding="utf-8"?>
<!-- Generator: Adobe Illustrator 24.3.0, SVG Export Plug-In . SVG Version: 6.00 Build 0)  -->
<svg version="1.1" id="Layer_1" xmlns="http://www.w3.org/2000/svg" xmlns:xlink="http://www.w3.org/1999/xlink" x="0px" y="0px"
	 viewBox="0 0 327 325" style="enable-background:new 0 0 327 325;" xml:space="preserve">
<style type="text/css">
	.st0{fill:#AFAFAF;}
</style>
<ellipse class="st0" cx="163.2" cy="162.8" rx="128.8" ry="128.8"/>
<path d="M163.2,33.9c34.4,0,66.8,13.4,91.2,37.8c24.3,24.3,37.8,56.7,37.8,91.2s-13.4,66.8-37.8,91.2
	c-24.3,24.3-56.7,37.8-91.2,37.8S96.4,278.4,72,254s-37.8-56.7-37.8-91.2c0-34.4,13.4-66.8,37.8-91.2S128.8,33.9,163.2,33.9
	 M163.2,15.5c-81.4,0-147.4,66-147.4,147.4s66,147.4,147.4,147.4s147.4-66,147.4-147.4S244.6,15.5,163.2,15.5L163.2,15.5z"/>
<path d="M89.7,278.6c0,0,31.8,18.9,70.1,19.4s75.4-21.2,75.4-21.2s14.7-89.6-73.1-96.7C162.2,180.2,84.4,170.2,89.7,278.6z"/>
<circle cx="162.1" cy="122.8" r="44.4"/>
</svg>
