<?xml version="1.0" encoding="utf-8"?>
<!-- Generator: Adobe Illustrator 24.3.0, SVG Export Plug-In . SVG Version: 6.00 Build 0)  -->
<svg version="1.1" id="Layer_1" xmlns="http://www.w3.org/2000/svg" xmlns:xlink="http://www.w3.org/1999/xlink" x="0px" y="0px"
	 viewBox="0 0 376 325" style="enable-background:new 0 0 376 325;" xml:space="preserve">
<style type="text/css">
	.st0{fill:#FFFFFF;}
</style>
<path d="M130.5,158.6v65c0,4.2,4.6,6.7,8.1,4.5l50.8-31.7c3.3-2.1,3.3-6.8,0.1-9l-50.8-33.3C135.2,151.9,130.5,154.4,130.5,158.6z"
	/>
<path d="M208.1,55.2h-98.6c-34.1,0-62,27.9-62,62v100.1c0,34.1,27.9,62,62,62h98.6c34.1,0,62-27.9,62-62V117.2
	C270.1,83.1,242.2,55.2,208.1,55.2z M254.1,111l-39.1-0.3l-23.8-39.5C249.3,64.4,254.1,111,254.1,111z M173.1,70.5l24.2,40.5
	l-54.5,0.3l-24.5-40.9H173.1z M99.6,71.2l25.2,39.8H63.8C63.8,111,67.6,81.7,99.6,71.2z M255.5,210.9c0,8.3-1.6,16.5-5.1,24.1
	c-4.5,9.9-12.9,20.9-28.7,26.1c-5.3,1.7-10.8,2.5-16.3,2.5h-92.2c-10.9,0-21.5-3.3-30.2-9.9c-9.4-7.2-18.4-19.5-19.2-40.5
	c0,0-1-85.1-0.7-85.4h192.3V210.9z"/>
<path d="M268.8,128.2l43.7-19.7c0,0,16.6-6.9,20.4,12l-0.3,103.9c0,0,2,18.4-20.7,14.6l-43.1-19.1v-16.1l49.8,22.5l0.3-105.4
	l-49.8,22.5L268.8,128.2z"/>
<rect x="38.8" y="31.2" class="st0" width="241.5" height="80.2"/>
<g>
	<path d="M97.8,114.6c-16.7,0-30.4-13.6-30.4-30.4c0-16.7,13.6-30.4,30.4-30.4c16.7,0,30.4,13.6,30.4,30.4
		C128.1,100.9,114.5,114.6,97.8,114.6z M97.8,62.8c-11.8,0-21.4,9.6-21.4,21.4s9.6,21.4,21.4,21.4s21.4-9.6,21.4-21.4
		S109.6,62.8,97.8,62.8z"/>
</g>
<g>
	<path d="M195.8,119.4c-26.5,0-48.1-21.6-48.1-48.1s21.6-48.1,48.1-48.1c26.5,0,48.1,21.6,48.1,48.1S222.3,119.4,195.8,119.4z
		 M195.8,38.2c-18.2,0-33.1,14.8-33.1,33.1s14.8,33.1,33.1,33.1s33.1-14.8,33.1-33.1S214.1,38.2,195.8,38.2z"/>
</g>
</svg>
