<?xml version="1.0" encoding="utf-8"?>
<!-- Generator: Adobe Illustrator 24.3.0, SVG Export Plug-In . SVG Version: 6.00 Build 0)  -->
<svg version="1.1" id="Layer_1" xmlns="http://www.w3.org/2000/svg" xmlns:xlink="http://www.w3.org/1999/xlink" x="0px" y="0px"
	 viewBox="0 0 318 326" style="enable-background:new 0 0 318 326;" xml:space="preserve">
<path d="M158.8,308c-40.6,0-81.1,0-121.7,0c-16.6,0-23.1-6.6-23.1-23.2c0-81.1,0-162.2,0-243.3c0-17,6.5-23.4,23.7-23.4
	c54.6,0,109.2,0.1,163.7,0c15.8,0,29.2,5.2,40.3,16.6c15.4,15.8,31.1,31.2,46.7,46.8c10.3,10.2,15.4,22.6,15.4,37
	c0.1,55.8,0,111.7,0,167.5c0,15.2-6.9,22.1-22,22.1C240.9,308,199.9,308,158.8,308z M279.5,283.5c0.1-1.7,0.3-2.9,0.3-4.1
	c0-54.3,0.2-108.6-0.3-163c-0.1-5.8-3.4-12.9-7.4-17.2c-15.9-17-32.5-33.3-49.3-49.5c-3.8-3.7-9.3-5.6-15.7-9.3c0,5.2,0,7.9,0,10.6
	c0,22.3,0.1,44.6,0,66.8c-0.1,14.5-6.2,20.6-20.6,20.6c-34.5,0.1-69.1,0.1-103.6,0c-13.8,0-20.4-6.7-20.5-20.9
	c-0.1-22.3,0-44.6,0-66.8c0-2.7,0-5.3,0-8.1c-8.5,0-16.1,0-23.9,0c0,80.5,0,160.5,0,240.8c8,0,15.6,0,23.9,0c0-3.1,0-5.8,0-8.5
	c0-22.5-0.1-45.1,0.1-67.6c0.1-13,7.1-19.8,20-19.8c51.1-0.1,102.1-0.1,153.2,0c12.9,0,19.8,6.9,19.9,20c0.2,22.5,0,45.1,0,67.6
	c0,2.7,0,5.4,0,8.4C263.8,283.5,271.2,283.5,279.5,283.5z M231.3,211.7c-48.3,0-96.2,0-144.5,0c0,24.1,0,47.8,0,71.8
	c48.3,0,96.2,0,144.5,0C231.3,259.4,231.3,235.8,231.3,211.7z M134.5,78.9c0,9,0.1,18,0,27c-0.1,5.8,2.3,9,8.4,9
	c10.8,0,21.5,0,32.3,0c5.5,0,8.3-2.7,8.3-8.3c0-18.8,0-37.5,0-56.3c0-5.5-2.7-8.2-8.3-8.2c-10.5,0.1-21,0.2-31.5,0
	c-6.4-0.1-9.1,2.8-9.1,9C134.6,60.4,134.5,69.6,134.5,78.9z"/>
</svg>
