<?xml version="1.0" encoding="utf-8"?>
<!-- Generator: Adobe Illustrator 24.3.0, SVG Export Plug-In . SVG Version: 6.00 Build 0)  -->
<svg version="1.1" id="Layer_1" xmlns="http://www.w3.org/2000/svg" xmlns:xlink="http://www.w3.org/1999/xlink" x="0px" y="0px"
	 viewBox="0 0 328.9 325" style="enable-background:new 0 0 328.9 325;" xml:space="preserve">
<style type="text/css">
	.st0{fill:#51545A;}
</style>
<g>
	<path class="st0" d="M146,30.3c62.7,0,113.6,50.8,113.6,113.2s-51,113.2-113.6,113.2S32.4,205.9,32.4,143.5S83.4,30.3,146,30.3
		 M146,8.7C71.3,8.7,10.7,69.1,10.7,143.5S71.3,278.3,146,278.3S281.3,218,281.3,143.5S220.7,8.7,146,8.7L146,8.7z"/>
	<path class="st0" d="M148.9,50.7c-2.3-0.2-4.6,0.1-6.7,1.2c-3.3,1.7-7,5.7-7.3,14.8c-0.4,12.9,17.4,2.9,42.5,14.8
		c17.1,8.1,30.4,22.9,36.3,40.8c2.5,7.4,4,16,3.1,25.4c0,0,0,9.7,9.7,9.7s14.3-14.7,10.6-33.1C233.5,105.9,213,56,148.9,50.7z"/>
	<path class="st0" d="M304.3,317.3l-60.9-57.6c-0.2-0.2-0.2-0.4,0-0.6l14.6-15.4c0.2-0.2,0.4-0.2,0.6,0l60.9,57.6
		c0.2,0.2,0.2,0.4,0,0.6l-14.6,15.4C304.7,317.5,304.4,317.5,304.3,317.3z"/>
</g>
</svg>
