<?xml version="1.0" encoding="utf-8"?>
<!-- Generator: Adobe Illustrator 24.3.0, SVG Export Plug-In . SVG Version: 6.00 Build 0)  -->
<svg version="1.1" id="Layer_1" xmlns="http://www.w3.org/2000/svg" xmlns:xlink="http://www.w3.org/1999/xlink" x="0px" y="0px"
	 viewBox="0 0 408.7 325" style="enable-background:new 0 0 408.7 325;" xml:space="preserve">
<path d="M46.7,101.5L46.7,101.5c0.1-6.1,5.2-11,11.3-10.8l55.7,1.1c6.1,0.1,11,5.2,10.8,11.3v0c-0.1,6.1-5.2,11-11.3,10.8l-55.7-1.1
	C51.5,112.6,46.6,107.5,46.7,101.5z"/>
<path d="M44.7,206.2L44.7,206.2c0.1-6.1,5.2-11,11.3-10.8l55.7,1.1c6.1,0.1,11,5.2,10.8,11.3v0c-0.1,6.1-5.2,11-11.3,10.8l-55.7-1.1
	C49.5,217.4,44.6,212.3,44.7,206.2z"/>
<path d="M15.4,154.5L15.4,154.5c0.1-6.8,5.8-12.2,12.5-12l119.5,2.3c6.8,0.1,12.2,5.8,12,12.5v0c-0.1,6.8-5.8,12.2-12.5,12L27.4,167
	C20.7,166.9,15.3,161.2,15.4,154.5z"/>
<path d="M353,161.7l-190.2,99.4l62.2-91.9l8.9-13.2l-9.4-12.8l-57-77.1L353,161.7 M393.8,157.8c-0.4-0.4-0.9-0.7-1.4-1l-268.1-138
	c-7.9-4.1-15.9,5.3-10.6,12.5l92.7,125.4l-92.8,137.2c-2.6,3.9-1.6,8.3,1.1,11c2.5,2.5,6.3,3.5,10.1,1.5l267.7-139.9
	C395.8,164.7,396.3,160.3,393.8,157.8L393.8,157.8z"/>
<rect x="278.5" y="90.6" transform="matrix(3.329325e-02 -0.9994 0.9994 3.329325e-02 120.0732 444.4184)" width="22.4" height="139"/>
</svg>
