<?xml version="1.0" encoding="utf-8"?>
<!-- Generator: Adobe Illustrator 24.3.0, SVG Export Plug-In . SVG Version: 6.00 Build 0)  -->
<svg version="1.1" id="Layer_1" xmlns="http://www.w3.org/2000/svg" xmlns:xlink="http://www.w3.org/1999/xlink" x="0px" y="0px"
	 viewBox="0 0 320.9 325" style="enable-background:new 0 0 320.9 325;" xml:space="preserve">
<g>
	<path d="M311.1,133.6c0,3-0.7,6.1-2.2,8.7c-0.3,0.5-0.6,0.9-0.9,1.4c-3.4,4.4-9.1,6.1-14.4,4.5c-5.2-1.5-8.9-6-9.5-11.5
		c-0.2-1.5-0.2-3.1-0.2-4.7c0-22.9,0-45.9,0-68.8c0-1.1,0-2.1,0-4c-1.3,1.2-2.1,2-2.9,2.8c-45.3,45.3-90.6,90.6-135.9,135.9
		c-4,4-8.3,6.4-14.1,5.2c-9.8-2.1-14-13.8-7.7-21.7c0.9-1.1,1.9-2.2,3-3.2c45.1-45.1,90.1-90.2,135.2-135.2c0.7-0.7,1.7-1.2,2.6-1.8
		c-0.2-0.7-0.2-0.6-0.4-1.3c-1.1,0-2.2,0-3.3,0c-23.2,0-46.5,0-69.7-0.1c-2.7,0-5.5-0.4-8-1.4c-5.3-2.2-7.9-6.7-7.9-12.3
		c0-5.8,2.9-10,8.3-12.4c0.9-0.4,1.8-0.8,2.6-1.1c37,0,74,0,111.1,0c3.8,0,7.6,1.4,10.3,4.1c0.2,0.2,0.5,0.5,0.7,0.7
		c2.3,2.6,3.4,6,3.4,9.5V133.6z"/>
	<path d="M38.6,94.3c0,63.7,0,127,0,190.6c63.4,0,126.8,0,190.7,0c0-1.2,0-2.4,0-3.6c0-38.9,0-77.7,0-116.6c0-5.6,1.4-10.5,6.3-13.7
		c8.2-5.3,19-0.5,20.7,9.3c0.3,1.4,0.3,2.9,0.3,4.4c0,43.9,0,87.9,0,131.8c0,10.7-5.3,16-16,16c-71.2,0-142.4,0-213.5,0
		c-10.7,0-15.9-5.3-15.9-16c0-71.2,0-142.4,0-213.5c0-10.5,5.3-15.9,15.8-15.9c44.2,0,88.5,0,132.7,0c9.4,0,15.5,6.1,15,14.8
		c-0.4,5.9-5,11.2-10.9,12.1c-1.8,0.3-3.7,0.4-5.5,0.4c-38.6,0-77.1,0-115.7,0C41.2,94.3,40,94.3,38.6,94.3z"/>
</g>
</svg>
