<?xml version="1.0" encoding="utf-8"?>
<!-- Generator: Adobe Illustrator 24.3.0, SVG Export Plug-In . SVG Version: 6.00 Build 0)  -->
<svg version="1.1" id="Layer_1" xmlns="http://www.w3.org/2000/svg" xmlns:xlink="http://www.w3.org/1999/xlink" x="0px" y="0px"
	 viewBox="0 0 313.28 325" style="enable-background:new 0 0 313.28 325;" xml:space="preserve">
<style type="text/css">
	.st0{fill:#FF9300;}
	.st1{fill:#F10500;}
	.st2{fill:#FFA409;}
	.st3{fill:#FFFFFF;}
	.st4{fill:#FF9401;}
	.st5{fill:#FF8201;}
</style>
<g id="Layer_1">
	<g>
		<ellipse class="st0" cx="156.85" cy="171.39" rx="144.1" ry="141.88"/>
		<g>
			<path class="st0" d="M53.34,120.84c0,0-31.54-78.23-13.61-101.42s66.79,43.29,66.79,43.29s50.4-11.13,102.66,0.31
				c0,0,42.98-63.39,64.94-43.29c0,0,19.17,8.04-11.75,101.12c0,0,40.4,66.64,1.65,115.26c-12.7,15.93-28.21,27.08-43.32,34.88
				c-37.83,19.5-82.56,21.42-121.63,4.54c-27.85-12.03-56.49-34.95-65.04-78.61C34.03,196.9,28.6,162.89,53.34,120.84z"/>
			<path class="st0" d="M53.34,120.84c0,0-31.54-78.23-13.61-101.42s66.79,43.29,66.79,43.29s50.4-11.13,102.66,0.31
				c0,0,42.98-63.39,64.94-43.29c0,0,19.17,8.04-11.75,101.12c0,0,40.4,66.64,1.65,115.26c-12.7,15.93-28.21,27.08-43.32,34.88
				c-37.83,19.5-82.56,21.42-121.63,4.54c-27.85-12.03-56.49-34.95-65.04-78.61C34.03,196.9,28.6,162.89,53.34,120.84z"/>
		</g>
		<path class="st0" d="M33.53,197.21c0,0,7.46,56.37,70.69,81.56c34.74,13.84,73.55,12.62,107.82-2.39
			c28.84-12.63,61.85-35.64,68.14-79.38c0,0-40.16-9.51-70.52,24.67c0,0-7.73-45.15-51.89-46.41
			c-44.16-1.25-51.91,46.41-51.91,46.41S84.52,187.8,33.53,197.21z"/>
		<path class="st0" d="M154.38,227c-0.67-0.1-1.33-0.3-1.93-0.62c-3.07-1.6-12.04-7.38-12.04-20.15c0,0-1.04-9.14,15.02-9.14
			c8.24,0,12.87,1.72,15.43,3.39c2.01,1.32,3.11,3.64,2.92,6.04c-0.41,5.21-2.65,16.01-13.91,20.35v11.1c0,0,15.28,4.51,30.56,2.74
			c0,0,4.31,2.74,0,5.68c0,0-3.55,1.18-5.11,0.78l-9.78,19.39v-19.79c0,0-13.17-1.37-18.54-4.11c0,0-8.5,3.92-18.88,4.31v19.59
			l-9.58-19.79h-4.52c0,0-4.51-2.94,0-5.88c0,0,18.22,1.37,29.97-3.33L154.38,227L154.38,227z"/>
		<path class="st0" d="M146.45,259.21c-0.96,0.45-1.83,1.31-1.27,2.95c0.48,1.38,1.77,2.33,3.22,2.51
			c3.98,0.5,13.33,1.42,17.74-0.25c5.68-2.15,0.59-6.07,0-5.68c-0.57,0.38-8.57,1.66-16.86,0.18
			C148.32,258.75,147.32,258.81,146.45,259.21z"/>
		<path class="st0" d="M111.63,121.61c0,0-4.33-10.51-13.91-6.49c-9.59,4.02-9.28,11.29-9.28,11.29s-1.23,3.45,3.79,5.51
			c1.19,0.49,2.46,0.73,3.74,0.82C101.45,133.13,118.4,133.47,111.63,121.61z"/>
		<path class="st0" d="M203.98,121.61c0,0,4.33-10.51,13.91-6.49c9.59,4.02,9.28,11.29,9.28,11.29s1.23,3.45-3.79,5.51
			c-1.19,0.49-2.46,0.73-3.74,0.82C214.15,133.13,197.2,133.47,203.98,121.61z"/>
		<path class="st0" d="M127.53,164.92c-0.99-1.28-2.23-2.36-3.57-3.26c-5.84-3.9-26.28-17.15-35.65-17.94
			c-11-0.93-7.29,9.51-7.29,9.51s3.85,17.38,35.42,20.02c2.07,0.17,4.16,0.17,6.22-0.14C126.78,172.51,131.97,170.64,127.53,164.92z
			"/>
		<path class="st0" d="M188.02,164.92c0.99-1.28,2.23-2.36,3.57-3.26c5.84-3.9,26.28-17.15,35.65-17.94c11-0.93,7.29,9.51,7.29,9.51
			s-3.85,17.38-35.42,20.02c-2.07,0.17-4.16,0.17-6.22-0.14C188.77,172.51,183.58,170.64,188.02,164.92z"/>
		<g>
			<path class="st0" d="M217.56,67.03c0,0,22.96-27.96,41.08-31.62c3.39-0.69,6.75,1.42,7.55,4.79c2.16,9.06,4.04,30.39-11.53,64.24
				C254.67,104.45,253.74,93.01,217.56,67.03z"/>
			<path class="st0" d="M217.56,67.03c0,0,22.96-27.96,41.08-31.62c3.39-0.69,6.75,1.42,7.55,4.79c2.16,9.06,4.04,30.39-11.53,64.24
				C254.67,104.45,253.74,93.01,217.56,67.03z"/>
		</g>
		<g>
			<path class="st0" d="M96.01,67.34c0,0-22.96-27.96-41.08-31.62c-3.39-0.69-6.75,1.42-7.55,4.79
				c-2.16,9.06-4.04,30.39,11.53,64.24C58.91,104.76,59.83,93.31,96.01,67.34z"/>
			<path class="st0" d="M96.01,67.34c0,0-22.96-27.96-41.08-31.62c-3.39-0.69-6.75,1.42-7.55,4.79
				c-2.16,9.06-4.04,30.39,11.53,64.24C58.91,104.76,59.83,93.31,96.01,67.34z"/>
		</g>
		<g>
			<path class="st0" d="M63.58,96.2c0,0-15.25-39.03-7.88-55.17c1.18-2.58,4.41-3.47,6.84-2.01c7.7,4.63,25.17,15.99,33.47,28.32
				C96.01,67.34,80,76.81,63.58,96.2z"/>
			<path class="st0" d="M63.58,96.2c0,0-15.25-39.03-7.88-55.17c1.18-2.58,4.41-3.47,6.84-2.01c7.7,4.63,25.17,15.99,33.47,28.32
				C96.01,67.34,80,76.81,63.58,96.2z"/>
		</g>
		<g>
			<path class="st0" d="M250.01,95.89c0,0,15.25-39.03,7.88-55.17c-1.18-2.58-4.41-3.47-6.84-2.01
				c-7.7,4.63-25.17,15.99-33.47,28.32C217.57,67.03,233.58,76.5,250.01,95.89z"/>
			<path class="st0" d="M250.01,95.89c0,0,15.25-39.03,7.88-55.17c-1.18-2.58-4.41-3.47-6.84-2.01
				c-7.7,4.63-25.17,15.99-33.47,28.32C217.57,67.03,233.58,76.5,250.01,95.89z"/>
		</g>
	</g>
	<g>
		<ellipse class="st1" cx="156.85" cy="171.39" rx="144.1" ry="141.88"/>
		<g>
			<path class="st2" d="M53.34,120.84c0,0-31.54-78.23-13.61-101.42s66.79,43.29,66.79,43.29s50.4-11.13,102.66,0.31
				c0,0,42.98-63.39,64.94-43.29c0,0,19.17,8.04-11.75,101.12c0,0,40.4,66.64,1.65,115.26c-12.7,15.93-28.21,27.08-43.32,34.88
				c-37.83,19.5-82.56,21.42-121.63,4.54c-27.85-12.03-56.49-34.95-65.04-78.61C34.03,196.9,28.6,162.89,53.34,120.84z"/>
		</g>
		<path class="st3" d="M33.53,197.21c0,0,7.46,56.37,70.69,81.56c34.74,13.84,73.55,12.62,107.82-2.39
			c28.84-12.63,61.85-35.64,68.14-79.38c0,0-40.16-9.51-70.52,24.67c0,0-7.73-45.15-51.89-46.41
			c-44.16-1.25-51.91,46.41-51.91,46.41S84.52,187.8,33.53,197.21z"/>
		<path d="M154.38,227c-0.67-0.1-1.33-0.3-1.93-0.62c-3.07-1.6-12.04-7.38-12.04-20.15c0,0-1.04-9.14,15.02-9.14
			c8.24,0,12.87,1.72,15.43,3.39c2.01,1.32,3.11,3.64,2.92,6.04c-0.41,5.21-2.65,16.01-13.91,20.35v11.1c0,0,15.28,4.51,30.56,2.74
			c0,0,4.31,2.74,0,5.68c0,0-3.55,1.18-5.11,0.78l-9.78,19.39v-19.79c0,0-13.17-1.37-18.54-4.11c0,0-8.5,3.92-18.88,4.31v19.59
			l-9.58-19.79h-4.52c0,0-4.51-2.94,0-5.88c0,0,18.22,1.37,29.97-3.33L154.38,227L154.38,227z"/>
		<path d="M146.45,259.21c-0.96,0.45-1.83,1.31-1.27,2.95c0.48,1.38,1.77,2.33,3.22,2.51c3.98,0.5,13.33,1.42,17.74-0.25
			c5.68-2.15,0.59-6.07,0-5.68c-0.57,0.38-8.57,1.66-16.86,0.18C148.32,258.75,147.32,258.81,146.45,259.21z"/>
		<path class="st3" d="M111.63,121.61c0,0-4.33-10.51-13.91-6.49c-9.59,4.02-9.28,11.29-9.28,11.29s-1.23,3.45,3.79,5.51
			c1.19,0.49,2.46,0.73,3.74,0.82C101.45,133.13,118.4,133.47,111.63,121.61z"/>
		<path class="st3" d="M203.98,121.61c0,0,4.33-10.51,13.91-6.49c9.59,4.02,9.28,11.29,9.28,11.29s1.23,3.45-3.79,5.51
			c-1.19,0.49-2.46,0.73-3.74,0.82C214.15,133.13,197.2,133.47,203.98,121.61z"/>
		<path d="M127.53,164.92c-0.99-1.28-2.23-2.36-3.57-3.26c-5.84-3.9-26.28-17.15-35.65-17.94c-11-0.93-7.29,9.51-7.29,9.51
			s3.85,17.38,35.42,20.02c2.07,0.17,4.16,0.17,6.22-0.14C126.78,172.51,131.97,170.64,127.53,164.92z"/>
		<path d="M188.02,164.92c0.99-1.28,2.23-2.36,3.57-3.26c5.84-3.9,26.28-17.15,35.65-17.94c11-0.93,7.29,9.51,7.29,9.51
			s-3.85,17.38-35.42,20.02c-2.07,0.17-4.16,0.17-6.22-0.14C188.77,172.51,183.58,170.64,188.02,164.92z"/>
		<g>
			<path class="st0" d="M217.56,67.03c0,0,22.96-27.96,41.08-31.62c3.39-0.69,6.75,1.42,7.55,4.79c2.16,9.06,4.04,30.39-11.53,64.24
				C254.67,104.45,253.74,93.01,217.56,67.03z"/>
		</g>
		<g>
			<path class="st4" d="M96.01,67.34c0,0-22.96-27.96-41.08-31.62c-3.39-0.69-6.75,1.42-7.55,4.79
				c-2.16,9.06-4.04,30.39,11.53,64.24C58.91,104.76,59.83,93.31,96.01,67.34z"/>
		</g>
		<g>
			<path class="st5" d="M63.58,96.2c0,0-15.25-39.03-7.88-55.17c1.18-2.58,4.41-3.47,6.84-2.01c7.7,4.63,25.17,15.99,33.47,28.32
				C96.01,67.34,80,76.81,63.58,96.2z"/>
		</g>
		<g>
			<path class="st5" d="M250.01,95.89c0,0,15.25-39.03,7.88-55.17c-1.18-2.58-4.41-3.47-6.84-2.01
				c-7.7,4.63-25.17,15.99-33.47,28.32C217.57,67.03,233.58,76.5,250.01,95.89z"/>
		</g>
	</g>
</g>
</svg>
