<?xml version="1.0" encoding="utf-8"?>
<!-- Generator: Adobe Illustrator 24.3.0, SVG Export Plug-In . SVG Version: 6.00 Build 0)  -->
<svg version="1.1" id="Layer_1" xmlns="http://www.w3.org/2000/svg" xmlns:xlink="http://www.w3.org/1999/xlink" x="0px" y="0px"
	 viewBox="0 0 316.3 325" style="enable-background:new 0 0 316.3 325;" xml:space="preserve">
<style type="text/css">
	.st0{fill:url(#SVGID_1_);}
	.st1{fill:url(#SVGID_2_);}
	.st2{fill:url(#SVGID_3_);}
	.st3{fill:url(#SVGID_4_);}
	.st4{opacity:0.58;fill:#FFFFFF;}
	.st5{fill:url(#SVGID_5_);}
	.st6{fill:url(#SVGID_6_);}
	.st7{opacity:0.91;fill:url(#SVGID_7_);}
	.st8{fill:#FF9999;}
</style>
<g>
	
		<radialGradient id="SVGID_1_" cx="157" cy="161.6383" r="141.9574" gradientTransform="matrix(1.0414 0 0 1.0414 -6.4946 -6.6865)" gradientUnits="userSpaceOnUse">
		<stop  offset="3.855279e-07" style="stop-color:#F9E376"/>
		<stop  offset="0.3537" style="stop-color:#F9E16B"/>
		<stop  offset="0.6048" style="stop-color:#F9DB44"/>
		<stop  offset="0.8303" style="stop-color:#F8A723"/>
		<stop  offset="1" style="stop-color:#E5881C"/>
	</radialGradient>
	<circle class="st0" cx="157" cy="161.6" r="147.8"/>
	<linearGradient id="SVGID_2_" gradientUnits="userSpaceOnUse" x1="157.9763" y1="127.7179" x2="158.5238" y2="31.37">
		<stop  offset="0" style="stop-color:#F9D939;stop-opacity:0"/>
		<stop  offset="0.6729" style="stop-color:#FBE98E"/>
		<stop  offset="1" style="stop-color:#FDF0CA"/>
	</linearGradient>
	<path class="st1" d="M39.9,113.5c0,0-0.2,41.7,92.3,20.7c3.2-0.7,6.4-1.6,9.5-2.6c12-3.8,53-14,98.7,4.6
		c31.8,12.9,37.1-4.5,36.1-21.3c-1-15.3-7.2-29.7-17-41.5C242.5,53.3,206.8,24.1,145,30.5C52.4,40.2,36.5,98.7,39.9,113.5z"/>
	
		<linearGradient id="SVGID_3_" gradientUnits="userSpaceOnUse" x1="140.404" y1="182.5596" x2="141.0296" y2="72.4461" gradientTransform="matrix(-1 0 0 -1 296.9611 372.4528)">
		<stop  offset="0" style="stop-color:#F9D939;stop-opacity:0"/>
		<stop  offset="0.6729" style="stop-color:#FBE98E;stop-opacity:0.2"/>
		<stop  offset="1" style="stop-color:#FDF0CA"/>
	</linearGradient>
	<path class="st2" d="M274.6,206.1c0,0,0.2-47.7-92.3-23.7c-3.2,0.8-6.4,1.9-9.5,3c-12,4.3-53,16-98.7-5.3
		c-31.8-14.8-37.1,5.1-36.1,24.3c1,17.5,7.2,34,17,47.4c16.9,23.1,52.7,56.5,114.5,49.1C262.1,289.9,278,223,274.6,206.1z"/>
</g>
<g>
	
		<radialGradient id="SVGID_4_" cx="209.766" cy="131.6808" r="20.0851" gradientTransform="matrix(1.1587 0 0 1.1587 -39.6388 -22.141)" gradientUnits="userSpaceOnUse">
		<stop  offset="0" style="stop-color:#A96A00"/>
		<stop  offset="1" style="stop-color:#6C4103"/>
	</radialGradient>
	<circle class="st3" cx="203.4" cy="130.4" r="23.3"/>
	<circle class="st4" cx="203.4" cy="123.3" r="11.4"/>
</g>
<g>
	
		<radialGradient id="SVGID_5_" cx="105.2553" cy="131.1702" r="20.0851" gradientTransform="matrix(1.1105 0 0 1.1105 -5.0584 -15.6639)" gradientUnits="userSpaceOnUse">
		<stop  offset="0" style="stop-color:#A96A00"/>
		<stop  offset="1" style="stop-color:#6C4103"/>
	</radialGradient>
	<circle class="st5" cx="111.8" cy="130" r="22.3"/>
	<circle class="st4" cx="111.8" cy="123.2" r="11"/>
</g>
<linearGradient id="SVGID_6_" gradientUnits="userSpaceOnUse" x1="50.5842" y1="222.6681" x2="263.7077" y2="222.6681">
	<stop  offset="2.029094e-07" style="stop-color:#513504"/>
	<stop  offset="0.4766" style="stop-color:#7B4C05"/>
	<stop  offset="1" style="stop-color:#533604"/>
</linearGradient>
<path class="st6" d="M68.8,175c18.3,4.3,81.4,16.8,155.5,5.1c9-1.4,17.9-3.6,26.6-6.2c6.4-1.8,15.3-2.2,12,12.5
	c-5,22-21.6,77.3-93.6,86.1c-37.3,4.6-64.7-9.8-82.6-24.8c-17.1-14.4-29.2-34-34.6-55.7c-3-12.3-3-23.3,8.7-19.4
	C63.5,173.6,66.1,174.4,68.8,175z"/>
<linearGradient id="SVGID_7_" gradientUnits="userSpaceOnUse" x1="59.8428" y1="201.827" x2="256.815" y2="201.827">
	<stop  offset="0" style="stop-color:#FFFFFF"/>
	<stop  offset="0.3027" style="stop-color:#F2F2F2"/>
	<stop  offset="0.7367" style="stop-color:#F2F2F2"/>
	<stop  offset="1" style="stop-color:#FFFFFF"/>
</linearGradient>
<path class="st7" d="M62.2,182.7c15.9,4.2,92.1,21.8,192.3,0.5c1.4-0.3,2.7,1,2.2,2.4l-6.9,22.5c-0.2,0.6-0.7,1.1-1.3,1.3
	c-11.1,2.8-109,26.4-182.7-3.1c-0.6-0.2-1-0.7-1.2-1.3l-4.7-20C59.6,183.6,60.8,182.3,62.2,182.7z"/>
<path class="st8" d="M124.7,260.5c0,0-10.3-6.4-1.4-10.3s34.7-14.2,63.1-2.8s-10.6,15.2-10.6,15.2S144.9,266.6,124.7,260.5z"/>
</svg>
