<?xml version="1.0" encoding="utf-8"?>
<!-- Generator: Adobe Illustrator 24.3.0, SVG Export Plug-In . SVG Version: 6.00 Build 0)  -->
<svg version="1.1" id="Layer_1" xmlns="http://www.w3.org/2000/svg" xmlns:xlink="http://www.w3.org/1999/xlink" x="0px" y="0px"
	 viewBox="0 0 283.1 326" style="enable-background:new 0 0 283.1 326;" xml:space="preserve">
<style type="text/css">
	.st0{fill:#003EE1;}
	.st1{clip-path:url(#SVGID_2_);fill:#525252;}
	.st2{fill:#525252;}
	.st3{clip-path:url(#SVGID_4_);}
	.st4{clip-path:url(#SVGID_6_);}
</style>
<g>
	<g>
		<path class="st0" d="M8.2,273.8c0.3-1.9,0.6-3.9,1-5.8c2-9.5,7.3-16.9,14.5-23c9.4-8,20-14.1,31.7-18.2c0.2-0.1,0.4-0.1,0.8,0.1
			c-0.4,0.3-0.8,0.6-1.2,1c-2.5,2.4-5,4.8-7.3,7.4c-0.9,1-1.3,2.4-1.6,3.6c-0.4,1.4,0.3,2.3,1.8,2.2c1.4-0.1,2.9-0.4,4.2-0.9
			c3.3-1.4,6.5-3,9.8-4.5c0.4-0.2,0.9-0.4,1.3-0.6c0.2,0.2,0.3,0.4,0.5,0.5c-0.5,0.3-1.1,0.4-1.4,0.8c-2.3,2.6-4.6,5.2-6.9,7.9
			c-0.5,0.6-0.9,1.4-1.3,2.2c-1,2.1-0.7,2.8,1.5,3.3c-0.3,1.3-0.8,2.7-1,4c-0.5,2.7,0.8,4.6,3.5,4.9c2,0.3,4.1,0,5.5,0
			c-2.3,1.3-5.3,2.8-8,4.6c-5.2,3.4-9.6,7.6-12.4,13.3c-4.5,9.3-2.5,16.5,6.2,22c7,4.5,14.9,6.7,23,8.3c9.2,1.8,18.5,1.5,27.8,1.2
			c11.6-0.3,23-1.8,34.2-4.5c16.4-4,31.5-11,45.2-20.9c0.2-0.2,0.5-0.3,0.8-0.5c0.1,0.1,0.2,0.3,0.3,0.4c-2.7,2.2-5.3,4.5-8.2,6.5
			c-16.1,11-33.5,19.3-52.6,23.7c-16.2,3.7-32.6,5.8-49.2,5c-15.2-0.7-29.7-4.1-43.2-11.5c-6.8-3.7-12.1-9.2-15.5-16.1
			c-1.3-2.6-2.1-5.4-2.9-8.2c-0.5-1.7-0.6-3.5-0.9-5.3C8.2,275.8,8.2,274.8,8.2,273.8z"/>
		<g>
			<defs>
				<path id="SVGID_1_" d="M129.8,32.3c0,0,22.1-7.2,15.3,25v17.1c0,0,3.4,1.9,3.4,7.7c0,5.8,1.9,16.3-5.1,18.6l-3,57.9l-20,1.2
					l-54.3-55l2.3-75.6C68.3,29.3,103.3-14.9,129.8,32.3z"/>
			</defs>
			<clipPath id="SVGID_2_">
				<use xlink:href="#SVGID_1_"  style="overflow:visible;"/>
			</clipPath>
			<path class="st1" d="M152-9.2c-0.6,0-1.1,0-1.7,0c-0.1,0.4-0.1,0.8-0.1,1.2c0.9,22.1,3,44,8.6,65.5c1,3.8,2.7,7.4,4.1,11.1
				c0.1,0.4,0.3,0.7,0.6,1c4.3,4.2,4.5,9.8,4.9,15.2c2.1,27.8,0.2,55.6-1.2,83.3c0,0.2-0.1,0.3-0.1,0.3c-4.6-2.5-9-5.3-13.8-7.4
				c-4.8-2-10-3.3-15.4-5c0.1-1,0.1-2.6,0.2-4.2c0.8-16.9,1.7-33.8,2.5-50.7c0.1-1.4,0.3-2.6,1.7-3.5c2.3-1.5,3-4.1,3.2-6.6
				c0.2-3,0.2-6,0-8.9c-0.1-2.1-1.1-3.8-2.8-5.2c-0.6-0.5-0.9-1.5-0.9-2.3c0.2-4.7,0.5-9.4,0.8-14.1c0-0.5,0-1.1,0-1.7
				c-22.8,0-45.6,0-68.2,0c0,3.3,0,6.5,0,9.7c0,2.7,0.1,5.4,0.1,8.1c0,0.5-0.3,1-0.5,1.5c-0.6,1.3-1.6,2.5-1.7,3.8
				c-0.2,3.8-0.1,7.6,0.2,11.4c0.1,1.3,0.8,2.8,1.7,3.7c1.2,1.2,1.6,2.4,1.5,3.9c0,0.9,0,1.9,0,2.9c-1.1,0.1-2.1,0.2-3.4,0.4
				c0.6-2.9-1.2-4.9-2.3-7.3C69.4,95,69,93.1,69,91.4c-0.1-3.7,0.2-7.5,0.4-11.2c0-0.6,0.3-1.4,0.7-1.9c1.5-1.8,1.3-3.8,1.2-5.9
				c-0.2-8-0.5-16.1-0.6-24.1c-0.1-6.2,3.7-9.9,9.9-9.9c0.6,0,1.4-0.3,1.6-0.7c3.6-7.8,14.5-10.7,22-5.3c0.2,0.1,0.4,0.2,0.4-0.1
				c2.1-1,4.1-2.2,6.3-2.9c3-0.8,5.8,0.1,8.2,2c0.4,0.3,1.1,0.5,1.4,0.3c3-1.3,5.8-1.1,8.5,0.5c0.1,0.1,0.3,0.1,0.8,0.1
				c2.4-14.4,4-28.8,4.4-43.4c8.9,0,17.7,0,26.6,0c0.2,3.4,0.3,6.8,0.6,10.2c1.6,20.3,4.1,40.5,9.9,60.2c1.4,4.6,3.1,9.1,5.9,13.2
				c1.4,2,2.8,4.3,3.1,6.6c1.1,7.1,1.7,14.3,2.4,21.4c0.2,2.2,0.2,4.5,0.3,6.7c0,1.2,0.3,1.7,1.7,1.9c14.5,1.7,28.7,4.8,42.1,11.1
				c8.5,4,16.4,8.8,22,16.6c5.6,7.8,8.7,16.3,8.3,26c-0.5,10.1-4.3,18.8-10.9,26.3c-6.3,7.3-14.1,12.8-22.5,17.2
				c-5.6,3-11.4,5.6-17.2,8.1c-2.1,0.9-4.5,1.3-6.9,1.6c1.1-0.8,2.2-1.6,3.3-2.4c3.3-2.4,5.9-5.5,7.7-9.2c0.7-1.5,1.4-3.2,0.3-4.7
				c-1.1-1.5-3-1.2-4.6-0.8c-2,0.4-4,1.1-6.4,1.7c0.9-0.8,1.6-1.4,2.1-2c1.4-1.6,2.8-3.2,3.9-5c1.3-2.2,0.5-3.4-2-3.6
				c-0.3,0-0.7,0-1.1-0.1c0.3-1.3,0.6-2.4,0.7-3.6c0.5-4.1-1.4-6.8-5.5-7.1c-2.8-0.2-5.7,0.2-8.5,0.4c-0.2,0-0.5,0.1-0.6,0.1
				c3.7-2.3,7.6-4.4,11.3-6.9c6.4-4.4,11.6-9.9,14.9-17.1c1.9-4.2,3.4-8.6,2.2-13.1c-0.7-2.6-2.3-5.2-4.2-7.1
				c-2.3-2.4-5.2-4.5-8.2-6.2c-6.6-3.8-13.9-5.8-21.6-7.4c0,2.5-0.1,4.8,0.1,7.1c0,0.3,0.9,0.7,1.5,0.8c5.7,1.6,11.3,3.5,16,7.2
				c1.5,1.2,2.9,2.5,4,4.1c2.7,3.7,2.8,7.7,0.5,11.7c-2.3,4.1-5.9,6.6-10,8.5c1.1-2.4,2.4-4.6,3.3-7.1c1.7-4.6,0.5-8.6-3.1-11.9
				c-3.4-3.1-7.7-4.8-12.3-6.2c-0.5,16.2-0.9,32.3-1.4,48.3c-0.1,0-0.2,0-0.4,0.1c-1.4-1.9-2.8-3.9-4.3-5.8c-1-1.2-2-2.5-3.1-3.5
				c-1.4-1.3-1.8-2.7-1.7-4.6c0.9-24.7,1.7-49.4,0.4-74.1c-0.3-6.4-1.3-12.8-2.1-19.2c-0.3-2.1-1.3-4-2.8-5.8
				c-2.7-3.2-4.1-7.2-5.4-11.2c-3.5-10.9-5.4-22.2-7.1-33.5c-1.7-11.8-2.9-23.6-3.3-35.4C152.2-8.6,152.1-8.8,152-9.2z M119.6,35.1
				c-1.9-2.6-4.4-4-7.5-3.8c-3.2,0.2-5.4,2-6.9,4.9c-3.6-3.8-7.8-5.2-12.6-4.2c-4.8,1-7.9,4.2-9.4,8.9c-0.6-0.1-1-0.2-1.3-0.2
				c-5.8-0.7-9,2.1-9,8c0,1.8,0.1,3.6,0,5.4c-0.1,1.7,0.4,2.2,2.2,2.1c22.2-0.1,44.4,0,66.7,0c0.4,0,0.9,0.1,1.2,0
				c0.4-0.2,1-0.6,1-1c0-3.8,0.2-7.7-0.2-11.5c-0.5-5.7-5.1-9.9-10.9-9.6c-2.4,0.1-4.6,0.2-6.9-0.9
				C123.7,32.2,121.5,33.5,119.6,35.1z"/>
		</g>
		<path class="st2" d="M184.1,217.6c0.3,29.4-23.9,54.4-54.4,54.5c-30.3,0.1-54.5-23.8-55.1-53.1c-0.7-34.6,27-56.8,54.9-56.6
			C160.1,162.5,184.7,187.6,184.1,217.6z M175,220.4c0.2,0,0.3,0,0.5,0c-0.8-5.7-1.7-11.4-2.6-17.1c-0.1-0.6-0.6-1.2-1.1-1.6
			c-4.1-2.8-8.2-5.5-12.3-8.3c-0.8-0.6-1.4-0.5-2.2,0.2c-4.1,3.5-8.2,6.9-12.2,10.4c-0.4,0.4-0.7,1.2-0.7,1.8
			c0.6,6.4,1.3,12.7,1.9,19.1c0.1,1.1,0.4,1.7,1.4,2.3c4.4,2.5,8.7,5.1,13.1,7.7c1,0.6,1.7,0.6,2.7-0.2c3.1-2.9,6.2-5.9,9.4-8.7
			C174.5,224.5,175.8,222.9,175,220.4z M130.2,170.7c-1,0.4-1.6,0.5-2.1,0.9c-4,3.1-7.9,6.3-11.8,9.5c-0.4,0.3-0.6,1.2-0.5,1.7
			c1.9,5,3.8,10,5.8,14.9c0.2,0.5,0.9,0.9,1.4,1c6.3,1.4,12.5,2.7,18.8,4c0.7,0.1,1.7,0,2.2-0.4c4.1-3.3,8.1-6.8,12.2-10.2
			c0.8-0.6,1-1.3,0.6-2.2c-2.2-4.6-4.4-9.2-6.7-13.8c-0.2-0.5-0.9-1-1.4-1.1C142.5,173.7,136.2,172.2,130.2,170.7z M108.7,254.6
			c3.4-0.3,6.7-0.6,10-1.1c0.6-0.1,1.3-0.8,1.5-1.4c1.3-4.8,2.3-9.7,3.6-14.6c0.3-1.3,0.1-2-0.9-2.9c-4.8-4.2-9.2-8.8-12.7-14.1
			c-0.3-0.5-1.2-0.9-1.7-0.8c-5.1,0.3-10.2,0.7-15.3,1.1c-1,0.1-1.4,0.6-1.6,1.3c-1.7,5-2.9,10-3.1,15.3c0,0.7,0.2,1.6,0.6,2.2
			c2.9,3.6,5.9,7.1,8.8,10.7C100.7,253.7,104.1,255.4,108.7,254.6z M161.7,238c-0.6-0.6-0.8-1.1-1.2-1.3c-4.6-2.8-9.3-5.5-14-8.2
			c-0.5-0.3-1.3-0.3-1.8,0c-5.6,3.4-11.5,5.8-17.8,7.5c-0.5,0.1-1.1,0.6-1.2,1c-1.3,5.2-2.6,10.5-3.8,15.7c-0.1,0.4,0.2,1.2,0.5,1.4
			c4.4,2.7,8.8,5.4,13.2,8.1c0.6,0.3,1.5,0.5,2,0.3c6-2.5,11.9-5.1,17.8-7.7c0.5-0.2,1.1-0.7,1.3-1.2
			C158.5,248.4,160.1,243.2,161.7,238z M97,218.9c3.3-0.3,7.1-0.5,10.9-0.9c0.7-0.1,1.6-0.5,2-1.1c3.4-5.4,6.7-10.9,10-16.4
			c0.3-0.5,0.4-1.3,0.2-1.8c-1.9-5-3.8-10-5.7-14.9c-0.4-0.9-0.8-1.4-1.8-1.3c-5,0.6-9.9,1.2-14.9,1.9c-0.5,0.1-1.2,0.5-1.5,0.9
			c-3.5,5.2-6.9,10.5-10.2,15.9c-0.5,0.8-0.6,2.2-0.3,3.1c1.5,4.3,3.2,8.5,4.8,12.7c0.6,1.6,1.6,2.5,3.4,2.1
			C94.8,218.9,95.6,219,97,218.9z M135.5,270c10.7-1.4,19.7-5.3,27.9-12c-2-0.8-3.7-1.5-5.5-2.2c-0.4-0.1-0.9-0.1-1.2,0.1
			c-6,2.6-12,5.3-18,8c-0.4,0.2-1,0.5-1.1,0.9C136.9,266.4,136.3,268,135.5,270z M181.4,227.5c2.4-7,0.8-23.9-2.8-29.8
			c-0.9,1-1.7,2.1-2.7,3c-1.2,1.1-1.3,2.2-1,3.7c0.8,5.8,1.4,11.7,2.1,17.5c0.1,0.7,0.3,1.6,0.8,2.1
			C178.8,225.2,180.1,226.3,181.4,227.5z M100.4,261.5c0.1-1.9,0.3-3.8,0.4-5.7c0-0.4-0.3-1-0.7-1.2c-4.7-4.1-8.7-8.9-12.4-14
			c-0.3-0.4-0.8-0.9-1.3-0.9c-1.7-0.1-3.4,0-5.1,0C83,246,94.3,259.1,100.4,261.5z M155.2,170.8c-9.2-5-18.7-7.1-29.2-6.6
			c0.8,1.3,1.4,2.3,1.9,3.3c0.7,1.4,1.8,1.9,3.3,2.2c6.1,1.2,12.1,2.6,18.1,3.9c0.4,0.1,0.9,0.2,1.3,0.1
			C152,172.8,153.5,171.8,155.2,170.8z M93.3,178.1c-7.5,7-12.5,15.2-15.3,25.1c2-0.5,3.6-0.9,5.2-1.3c0.3-0.1,0.6-0.4,0.8-0.7
			c3.5-5.5,7-11,10.5-16.5c0.3-0.4,0.5-1.1,0.4-1.5C94.5,181.5,93.9,180,93.3,178.1z"/>
		<path class="st2" d="M105.7,124.9c-0.5,6.1-1,12.2-1.4,18.3c-0.4,5.6-0.8,11.2-1.1,16.8c-0.1,1.4-0.6,2-1.8,2.7
			c-3.6,2-7.1,4.2-10.9,6.5c0.3-9.1,0.6-18.1,1-27.3c-1.7,0-3.4,0-5.3,0c0,0.8,0,1.7,0,2.5c-0.2,9.4-0.4,18.8-0.7,28.2
			c0,0.9-0.5,1.9-1.1,2.6c-3,3.9-6.1,7.7-9.1,11.5c0-14.7,0-29.7,0-44.9c-2,0-4,0-6.1,0c0,0.8,0,1.5,0,2.2
			c0.2,17.6,0.3,35.1,0.6,52.7c0.1,4.4-1.4,8.4-1.9,12.6c-0.2,2.5-0.5,5-0.7,7.7c-3.2-0.4-6.4-0.6-9.5-1.2c-2-0.3-4-1.1-6-1.6
			c-3-0.8-3.9-3-4.2-5.8c-0.6-6.4-1.3-12.8-1.8-19.1c-1-12.3-2-24.7-2.9-37c-0.7-8.7-1.3-17.4-1.9-26.1c0-0.3-0.1-0.7-0.1-0.9
			c-0.2-0.1-0.3-0.2-0.4-0.2c-2.4-0.2-2.6-0.6-1.9-2.9c0.8-2.8,2.7-4.6,5.1-6c3.7-2.3,7.8-3.2,12.1-3.1c1.1,0,1.7-0.3,2.4-1.1
			c2.7-3.5,6.2-4.4,10.3-3.1c0.5,0.2,1.2,0.1,1.7-0.1c4.8-2.1,9.5-1.1,12.8,3c0.8,1,1.4,1,2.5,0.7c7.1-2.1,13.5-0.9,19,4.1
			c2.3,2.1,3.7,4.7,3.6,8.2C107.3,124.9,106.5,124.9,105.7,124.9c0.4-2-0.5-3.7-1.7-5.2c-1.9-2.3-4.4-3.6-7.3-4.3
			c-4.9-1.2-9.5-0.5-13.8,2.1c-4.9-7.6-7.4-8.3-13.6-4.2c-4.2-3.1-7.3-2.4-9.8,2.3c-0.5,1-1.1,0.8-1.9,0.7
			c-4.8-0.6-9.5-0.1-13.6,2.8c-1.9,1.3-3.1,3.2-3.1,5.9c2.9,0,5.7,0,8.7,0c0,1.8-0.1,3.3,0,4.9c0.1,2.1,1.4,3.8,3.4,4.4
			c1.9,0.6,4.2,0,5.2-1.8c0.6-1,0.9-2.4,1.1-3.6c0.2-1.2,0-2.5,0-3.9C75,124.9,90.4,124.9,105.7,124.9z M53.5,141.7
			c0,0.8,0,1.5,0,2.2c0.4,11.6,0.8,23.2,1.3,34.7c0.3,8.5,0.6,17,1,25.5c0,0.5,0.4,1.3,0.8,1.4c1.1,0.4,2.3,0.4,3.6,0.7
			c-0.5-21.6-0.9-43-1.4-64.5C56.8,141.7,55.3,141.7,53.5,141.7z"/>
		<path class="st2" d="M128.3,72.6c0,0.7,0,1.3,0,1.8c-0.1,1.6-0.2,3,1.2,4.2c0.8,0.7,1.1,2.1,1.2,3.2c0.1,3.1,0.1,6.3-0.1,9.4
			c-0.1,1.9-0.8,3.7-2.6,4.9c-0.4,0.3-0.6,1.3-0.6,1.9c-0.8,14.1-1.6,28.2-2.4,42.3c-0.3,4.8-0.7,9.6-1.1,14.4
			c-0.1,0.8-0.1,1.3-1.1,1.5c-4.7,0.9-9.3,2-13.9,3c-0.2,0-0.4,0.1-0.9,0.2c0.2-2.9,0.4-5.8,0.7-8.6c0.7-9.3,1.2-18.5,2.2-27.7
			c0.3-3.4-0.9-5.8-3-8c-6.3-6.7-13.9-8.1-22.3-5.3c-1.7-1.6-3.3-3.1-4.8-4.7c-0.3-0.3-0.4-0.8-0.4-1.2c-0.1-1.1-0.2-2.1-0.2-3.2
			c0-2.9-0.4-5.6-1.7-8.3c-1.6-3.4-1-7,0.3-10.5c0.3-0.8,0.4-1.7,0.4-2.6c0.1-2.2,0-4.5,0-6.8c0.4,0,0.8-0.1,1.1-0.1
			c4.3,0,3.5-0.5,3.8,4.1c0,0.3-0.2,0.8-0.4,1c-2.6,2.8-2.1,6.4-2,9.7c0,0.6,1.2,1.2,1.8,1.8c0.2-0.1,0.3-0.2,0.5-0.3
			c0-1.2,0-2.4,0-3.6c0.1-2.8,0.1-5.6,2.6-7.7c0.4-0.3,0.3-1.5,0.2-2.2c0-0.8-0.2-1.7-0.4-2.6C100.5,72.6,114.3,72.6,128.3,72.6z"/>
		<path class="st2" d="M137.8,72.6c0,0.4,0,0.6,0,0.9c-0.3,3.1,0,5.9,1.3,8.9c2.1,4.8,1.7,9.7-1.9,13.9c-0.4,0.5-0.5,1.2-0.5,1.9
			c-0.6,11.7-1.2,23.5-1.9,35.2c-0.3,5.4-0.8,10.9-1.2,16.3c-0.1,2.1-0.2,4.1-0.3,6.3c-2.4,0-4.5,0-6.9,0c0-1,0.1-1.9,0.1-2.8
			c0.9-13.6,1.8-27.2,2.6-40.7c0.3-4.9,0.5-9.9,0.8-14.8c0-0.5,0.2-1.2,0.6-1.5c1.9-1.2,2.5-3.1,2.7-5c0.2-3.1,0.3-6.2,0-9.3
			c-0.1-1.4-1.2-2.8-1.9-4.1c-0.4-0.6-0.7-4.5-0.1-5c0.2-0.2,0.5-0.3,0.8-0.3c1.5,0,3,0,4.6,0C136.7,72.5,137.2,72.5,137.8,72.6z"/>
		<path class="st0" d="M154,291.2c-3.5,1.3-6.9,2.7-10.4,3.8c-9.2,2.9-18.6,5.2-28.2,6.3c-15.1,1.8-30.2,1.8-45.2-1.2
			c-5-1-9.7-2.8-13.8-6c-5.4-4.3-6-10.3-1.4-15.4c1.7-1.9,3.9-3.3,5.8-5c0.1,0.1,0.3,0.2,0.4,0.4c-0.2,0.4-0.4,0.7-0.6,1.1
			c-0.6,1.4-1.4,2.8-1.9,4.3c-1.5,4.9-0.1,8.7,4.1,11.5c4.7,3.1,10,4.3,15.4,5.2c11.9,1.9,23.9,2.7,36,1.7c6-0.5,12.1-1.2,18.1-2.3
			c7.2-1.3,14.4-3,21.6-4.5C154,291.1,154,291.1,154,291.2z"/>
		<path class="st2" d="M42.4,193.5c-3.2-0.8-6-1.4-8.7-2.2c-1.7-0.4-2.9-1.5-3.3-3.3c-1.3-5.5-2.7-11-3.6-16.6
			c-0.8-5.5-1.1-11.2-1.4-16.8c-0.1-1.9,0.1-3.9,0.5-5.8c0.2-0.9,0.9-2,1.7-2.3c3.4-1.4,6.8-2.5,10.7-3.8c0.3,3.4,0.5,6.4,0.7,9.3
			c-0.2,0.2-0.3,0.3-0.3,0.3c-4.8,1.6-5.2,1.8-4.8,6.9c0.6,7,1.7,14,2.6,21.1c0.3,2.4,1.4,4,4.1,4c0.4,0,1.1,0.5,1.1,0.9
			C42,187.9,42.2,190.5,42.4,193.5z"/>
	</g>
	<g>
		<g>
			<defs>
				<path id="SVGID_3_" d="M140.6,156.3c0,0,44,5.1,50.8,56.6s-47.9,65.3-47.9,65.3s8,19,38.9,12.2c30.9-6.8,29.6-46.3,28.9-47.6
					c-0.6-1.3-6.4-144.4-6.4-144.4l-57.5,3.9L140.6,156.3z"/>
			</defs>
			<clipPath id="SVGID_4_">
				<use xlink:href="#SVGID_3_"  style="overflow:visible;"/>
			</clipPath>
			<g class="st3">
				<path class="st2" d="M191.1,104.5c3.5,0.1,6.9,0.2,10.4,0.3c0,0.5,0,1.2,0,1.8c-1.7,54.1-3.5,108.2-5.1,162.2
					c-0.2,5.6-2.3,9.9-6.8,12.7c-2.1,1.3-4.9,1.8-7.4,1.9c-6.5,0.1-12.9-0.3-19.4-0.5c-8.5-0.3-13.7-6-13.5-14.5
					c0.6-19.9,1.3-39.8,1.9-59.7c1.1-34.4,2.2-68.7,3.3-103.1c0-0.8-0.1-1.6-0.2-2.2c3.9,0.2,7.2,0.3,10.7,0.4
					c1.5,10.5,3,21.2,4.5,32c1.1,8,2.2,16,3.4,23.9c0.1,0.7,0.1,1.7,0.5,2.1c0.8,0.8,1.9,1.8,2.9,1.9c0.9,0,2.1-0.9,2.8-1.8
					c0.5-0.6,0.5-1.6,0.7-2.5c3.7-17.7,7.3-35.5,11-53.2C190.9,105.5,191,104.9,191.1,104.5z"/>
				<path class="st2" d="M176.7,140.4c-1.7-12.2-3.4-24.4-5.1-36.4c4.4,0.1,8.6,0.3,12.9,0.4c-2.4,11.9-4.9,24-7.4,36
					C177,140.4,176.8,140.4,176.7,140.4z"/>
			</g>
		</g>
		
			<rect x="173" y="34.3" transform="matrix(0.9989 4.757795e-02 -4.757795e-02 0.9989 3.3698 -8.4542)" class="st2" width="12.5" height="64.4"/>
	</g>
	<g>
		<defs>
			<path id="SVGID_5_" d="M208,106.6v28.5l6.8,83.9c0,0,83.9-6.3,80.5-84.4C291.9,56.5,208,106.6,208,106.6z"/>
		</defs>
		<clipPath id="SVGID_6_">
			<use xlink:href="#SVGID_5_"  style="overflow:visible;"/>
		</clipPath>
		<g class="st4">
			<path class="st0" d="M275,152.2c-0.3,1.9-0.6,3.9-1,5.8c-2,9.5-7.3,16.9-14.5,23c-9.4,8-20,14.1-31.7,18.2
				c-0.2,0.1-0.4,0.1-0.8-0.1c0.4-0.3,0.8-0.6,1.2-1c2.5-2.4,5-4.8,7.3-7.4c0.9-1,1.3-2.4,1.6-3.6c0.4-1.4-0.3-2.3-1.8-2.2
				c-1.4,0.1-2.9,0.4-4.2,0.9c-3.3,1.4-6.5,3-9.8,4.5c-0.4,0.2-0.9,0.4-1.3,0.6c-0.2-0.2-0.3-0.4-0.5-0.5c0.5-0.3,1.1-0.4,1.4-0.8
				c2.3-2.6,4.6-5.2,6.9-7.9c0.5-0.6,0.9-1.4,1.3-2.2c1-2.1,0.7-2.8-1.5-3.3c0.3-1.3,0.8-2.7,1-4c0.5-2.7-0.8-4.6-3.5-4.9
				c-2-0.3-4.1,0-5.5,0c2.3-1.3,5.3-2.8,8-4.6c5.2-3.4,9.6-7.6,12.4-13.3c4.5-9.3,2.5-16.5-6.2-22c-7-4.5-14.9-6.7-23-8.3
				c-9.2-1.8-18.5-1.5-27.8-1.2c-11.6,0.3-23,1.8-34.2,4.5c-16.4,4-31.5,11-45.2,20.9c-0.2,0.2-0.5,0.3-0.8,0.5
				c-0.1-0.1-0.2-0.3-0.3-0.4c2.7-2.2,5.3-4.5,8.2-6.5c16.1-11,33.5-19.3,52.6-23.7c16.2-3.7,32.6-5.8,49.2-5
				c15.2,0.7,29.7,4.1,43.2,11.5c6.8,3.7,12.1,9.2,15.5,16.1c1.3,2.6,2.1,5.4,2.9,8.2c0.5,1.7,0.6,3.5,0.9,5.3
				C275,150.2,275,151.2,275,152.2z"/>
			<path class="st0" d="M129.1,134.8c3.5-1.3,6.9-2.7,10.4-3.8c9.2-2.9,18.6-5.2,28.2-6.3c15.1-1.8,30.2-1.8,45.2,1.2
				c5,1,9.7,2.8,13.8,6c5.4,4.3,6,10.3,1.4,15.4c-1.7,1.9-3.9,3.3-5.8,5c-0.1-0.1-0.3-0.2-0.4-0.4c0.2-0.4,0.4-0.7,0.6-1.1
				c0.6-1.4,1.4-2.8,1.9-4.3c1.5-4.9,0.1-8.7-4.1-11.5c-4.7-3.1-10-4.3-15.4-5.2c-11.9-1.9-23.9-2.7-36-1.7
				c-6,0.5-12.1,1.2-18.1,2.3c-7.2,1.3-14.4,3-21.6,4.5C129.1,134.9,129.1,134.9,129.1,134.8z"/>
		</g>
	</g>
</g>
<path class="st0" d="M-332.9-80.1"/>
</svg>
