<?xml version="1.0" encoding="utf-8"?>
<!-- Generator: Adobe Illustrator 24.3.0, SVG Export Plug-In . SVG Version: 6.00 Build 0)  -->
<svg version="1.1" id="Layer_1" xmlns="http://www.w3.org/2000/svg" xmlns:xlink="http://www.w3.org/1999/xlink" x="0px" y="0px"
	 viewBox="0 0 294.2 325" style="enable-background:new 0 0 294.2 325;" xml:space="preserve">
<path d="M234.4,78.8C222.2,7.8,146.8,7.8,146.8,7.8S69.6,4,58.3,85.7c-3.1,22.6,1.8,45.8,14.9,64.5c5.1,7.3,11.8,14.5,20.5,20.8
	c0,0-81.3,27.4-82.7,125.8h25.6c0,0-1-59.2,52.2-92.6c15.7-9.8,33.7-15.2,52.2-16c9-0.4,20.7-1.3,31.3-3.3
	C193.5,180.8,246.5,149.9,234.4,78.8z M145.8,162.4c-35.5,0-64.3-28.8-64.3-64.3s28.8-64.3,64.3-64.3s64.3,28.8,64.3,64.3
	S181.3,162.4,145.8,162.4z"/>
<path d="M279.4,246.8h-89.5c-3.2,0-6.2-1.1-8.5-3c-2.3-1.9-5.8-6.3-4-14.5c0.7-3.3,2.2-6.5,4.4-9.5l22-28.8h43.8l-20,23.9l51.8,0.4
	V246.8z M207.8,199l-19.5,25.6c-1.5,2-2.5,4.1-3,6.3c-1,4.7,0.7,6.2,1.3,6.7c0.8,0.7,2,1.1,3.3,1.1h81.5v-15.5l-60.8-0.4l19.9-23.8
	H207.8z"/>
<path d="M252.5,312.2h-44.1l21.3-24.3l-52.8,0v-31.5h89.5c3.2,0,6.2,1.1,8.5,3c2.3,1.9,5.8,6.3,4,14.5c-0.7,3.4-2.2,6.6-4.5,9.5
	L252.5,312.2z M226.1,304.2h22.4l19.5-25.6c1.5-2,2.5-4.1,3-6.4c1-4.7-0.8-6.2-1.3-6.7c-0.8-0.7-2-1.1-3.3-1.1h-81.5v15.5l62.5,0
	L226.1,304.2z"/>
</svg>
