<?xml version="1.0" encoding="utf-8"?>
<!-- Generator: Adobe Illustrator 24.3.0, SVG Export Plug-In . SVG Version: 6.00 Build 0)  -->
<svg version="1.1" id="Layer_1" xmlns="http://www.w3.org/2000/svg" xmlns:xlink="http://www.w3.org/1999/xlink" x="0px" y="0px"
	 viewBox="0 0 290.2 316.8" style="enable-background:new 0 0 290.2 316.8;" xml:space="preserve">
<path d="M246.1,30.1C214.7-1.3,157.2,5,117.8,44.4c-21.5,21.5-33.9,52-34.1,73.4c-0.3,21.2,3.5,52.3-18.1,73.9l-57,57l19.1,19.1
	l57-57c21.6-21.6,52.7-17.9,73.9-18.1c21.2-0.3,51.9-12.6,73.4-34.1C271.1,119.1,277.6,61.6,246.1,30.1z M122.5,153.6
	C102,133,108.4,91.7,136.8,63.3s69.6-34.8,90.3-14.2c20.6,20.6,14.1,61.9-14.2,90.3S143.2,174.2,122.5,153.6z"/>
<path d="M225.7,225.1c7.1,0,14,2.8,18.9,7.9c10.5,10.5,10.5,27.5,0,38c-5,5-11.8,7.8-18.9,7.8c-7.1,0-14-2.8-18.9-7.9
	c-10.5-10.5-10.5-27.5,0-38C211.7,227.9,218.6,225.1,225.7,225.1 M225.7,198.2c-13.7,0-27.5,5.2-38,15.7c-21,21-21,55,0,76
	c10.5,10.5,24.3,15.7,38,15.7c13.7,0,27.5-5.2,38-15.7c21-21,21-55,0-76C253.3,203.5,239.4,198.2,225.7,198.2z"/>
</svg>
