<?xml version="1.0" encoding="utf-8"?>
<!-- Generator: Adobe Illustrator 24.3.0, SVG Export Plug-In . SVG Version: 6.00 Build 0)  -->
<svg version="1.1" id="Layer_1" xmlns="http://www.w3.org/2000/svg" xmlns:xlink="http://www.w3.org/1999/xlink" x="0px" y="0px"
	 viewBox="0 0 300 300" style="enable-background:new 0 0 300 300;" xml:space="preserve">
<style type="text/css">
	.st0{fill:#DDF0FD;}
</style>
<g>
	<g>
		<circle class="st0" cx="149.5" cy="149.4" r="149.4"/>
	</g>
	<g>
		<path d="M30.7,188.9c0.4-1.6,0.7-3.1,1.1-4.7c2.4-9.2,8.5-15.4,17-18.9c6.8-2.8,14-4.7,21.1-7c1-0.3,2.4,0,2.5-1.8
			c0.1-1.6-0.6-2.3-1.9-3.1c-12.1-7.8-18.7-18.9-19-33.4c-0.2-8.3-0.4-16.6,0.5-24.8c2.2-18.7,18.6-33.2,37.5-34
			c19-0.7,36.2,12.3,40.4,30.7c0.6,2.6,0.9,5.3,1,8c0.1,6.8,0.2,13.6,0,20.4c-0.4,14.4-7,25.3-19,33.1c-0.6,0.4-1.5,0.9-1.6,1.5
			c-0.3,1.4-0.4,2.7,1.6,3.1c3.5,0.8,7,1.9,10.5,2.9c9.5,2.8,18.6,6.3,24.8,15c1.2-1.5,2.4-2.8,3.7-4.4c-7.2-3.5-10.3-9.8-12.2-16.9
			c-1.1-4.1-0.2-5.9,3.7-7.3c5.4-1.9,10.3-4.6,14.4-8.6c5.3-5.2,8.2-11.6,8.5-19c0.3-7,0.2-13.9,0.5-20.9c0.3-6.6,1.7-13,4.4-19.1
			c4.1-9.1,11-15,20.7-17.5c8.2-2.1,16.6-2.2,24.8,0c13.4,3.6,20.7,13.1,23.3,26.1c1.4,6.9,1.5,14.1,2,21.2
			c0.3,4.7-0.1,9.5,0.7,14.1c1.7,10.3,8.2,17,17.3,21.5c1.9,0.9,3.8,1.6,5.8,2.4c3,1.2,4,3.2,3.2,6.2c-0.5,1.9-1.1,3.7-1.7,5.5
			c-2.1,5.6-4.4,8.3-10.5,12.3c0.1,0.2,0.1,0.5,0.2,0.6c5.5,5.7,7.7,12.7,7.7,20.5c0,13.3,0,26.6,0,39.9c0,3.8-1.7,5.4-5.6,5.4
			c-11.1,0-22.1,0-33.2,0c-3.5,0-5.5-1.7-5.5-4.6c0-3,2-4.7,5.6-4.7c1.5,0,2.9,0,4.7,0c0-2.1,0-4,0-5.9c0-4,0-8,0-12.1
			c0-3.4,1.8-5.4,4.7-5.4c2.9,0,4.6,2.1,4.6,5.5c0,5.1,0,10.2,0,15.3c0,0.8,0,1.5,0,2.4c5.2,0,10.2,0,15.3,0
			c0.1-0.3,0.2-0.6,0.2-0.9c0-12,0-24-0.1-36c-0.1-7.9-3.7-14-10.9-17.2c-7.1-3.1-14.6-5.4-22-8.1c-3.6,8.5-9.5,13.4-18.3,13.4
			c-8.8,0-14.7-4.7-18.2-12.9c-7.7,2.2-15.5,3.8-22.6,7.6c-6.2,3.3-10.2,8.3-10.4,15.4c-0.3,12.8-0.1,25.7-0.1,38.6
			c5,0,10.1,0,15.4,0c0-3.1,0-6,0-9c0-3.2-0.1-6.5,0-9.7c0.1-2.5,1.8-4.2,4.2-4.4c2.5-0.2,4.5,1.4,4.9,3.9c0.2,1,0.1,2,0.1,3
			c0,5.4,0,10.8,0,16.4c1.8,0,3.3,0,4.8,0c3.2,0,5.3,1.8,5.4,4.5c0.1,2.8-2.1,4.8-5.4,4.8c-17.6,0-35.1,0-52.7,0c-5.3,0-10.7,0-16,0
			c-3.3,0-5.5-1.9-5.4-4.7c0-2.8,2.1-4.6,5.5-4.6c1.5,0,2.9,0,4.7,0c0-0.9,0.1-1.7,0.1-2.5c0-5.2,0-10.4,0-15.6
			c0-3.3,1.8-5.3,4.6-5.3c2.8,0,4.7,1.9,4.7,5.2c0.1,6,0,11.9,0,18c5.1,0,10.1,0,15.5,0c0-0.7,0-1.6,0-2.4c0-10.8-0.1-21.5,0-32.3
			c0.2-10-4.1-17-13.4-20.6c-6.4-2.5-13.1-4.5-19.7-6.7c-3.7,8.6-9.7,13.4-18.7,13.2c-8.5-0.2-14.2-4.9-17.6-12.9
			c-8.3,2.4-16.8,4-24.3,8.7c-5.8,3.6-8.8,9-8.9,15.7c-0.2,12.4-0.1,24.8-0.1,37.3c5.1,0,10.1,0,15.5,0c0-2,0-4.1,0-6.2
			c0-3.8,0-7.6,0-11.4c0-3.6,1.7-5.7,4.7-5.6c2.9,0,4.6,2.1,4.6,5.7c0,5,0,9.9,0,14.9c0,0.8,0,1.7,0,2.8c1.9,0,3.6,0,5.3,0
			c2.9,0.1,5,2,5,4.7c0,2.6-2,4.6-4.9,4.6c-11.5,0-23.1,0-34.6,0c-2.4,0-3.8-1.4-4.9-3.3C30.7,219.6,30.7,204.2,30.7,188.9z
			 M61.1,114.7c-1.7,12.8,4.2,25,15,31.3c10.8,6.2,24,5.3,34-2.4c8.6-6.6,13.7-19.4,11.3-28.4c-1,0-2.1,0-3.2,0
			c-11.4,0-22.6-1.4-33-6.3c-2.9-1.4-4.8-1.6-7.5,0.6C73,113.2,67,113.9,61.1,114.7z M175,113.5c-1.8,11.3,4.1,22.9,14.3,28.8
			c10,5.8,22.8,4.7,32-2.6c7.6-6.1,12-16.6,10.2-26.2c-10.8,1.2-20.6-1.1-28.1-9.7C195.6,112.6,185.9,114.7,175,113.5z M121.7,105.8
			c1-13.9-3.7-24.8-15.8-31.5c-11.2-6.1-22.4-5.3-32.7,2.3c-9.6,7-13.2,16.9-12.2,28.7c5.6-0.7,10.9-1.8,14.8-6.2
			c3.1-3.5,4.5-3.7,8.5-1.2C95.8,104.9,108.5,106.2,121.7,105.8z M231.8,103.9c-0.3-7.2-1.1-14.1-4.1-20.7
			c-2.8-6.1-7.5-10.1-14-11.9c-5.4-1.5-10.8-1.6-16.3-0.9c-9.5,1.2-16.4,6-19.3,15.3c-1.6,5.2-2,10.7-3.1,16.1
			c-0.4,1.9,0.4,2.4,2.2,2.6c9.7,0.9,17.3-2.1,22.1-11.1c1.4-2.6,4.5-3.4,6.7-1.7c0.9,0.7,1.6,1.8,2.2,2.9
			C212.3,101.9,220.1,106.3,231.8,103.9z M148.5,155.6c0.9,1.6,1.7,3.5,3,4.9c2.8,3,6.4,5,10.5,3.9c6-1.5,11.7-3.8,17.6-5.6
			c4.7-1.4,4.7-1.4,4.8-6.3c0-1.7-0.4-2.6-1.9-3.5c-4.4-2.8-8-6.5-10.9-10.9c-0.4-0.6-0.8-1.1-0.9-1.2c-3.3,3.6-6.2,7.4-9.8,10.4
			C157.3,150.5,153,152.7,148.5,155.6z M236.6,136.9c-3.5,3.6-6.6,7.7-10.6,10.6c-3.1,2.3-4.1,4.6-3.8,8.2c0.1,1.5,0.6,2.1,2,2.5
			c6.2,1.8,12.5,3.5,18.6,5.7c6.4,2.3,14.1-2.1,15-9C248.8,150.9,241.2,145.2,236.6,136.9z M193.8,154.4c0,2.6-0.3,5.4,0.1,8.2
			c0.5,4.5,4.5,7.9,9.1,8.1c4.3,0.2,8.8-2.9,9.6-7.2c0.6-3,0.4-6.1,0.6-9.1c-3.5,0.4-6.7,0.9-9.8,0.9
			C200.2,155.3,197,154.8,193.8,154.4z M81.9,158.8c-0.8,4.4,0.8,8.3,4.5,10.5c3.5,2,7.7,1.8,10.9-0.7c3.1-2.5,4.4-6.6,3.4-9.8
			C94.3,158.8,88.2,158.8,81.9,158.8z"/>
		<path d="M203.2,228.9c2.5-0.1,4.8,2.1,4.8,4.6c0,2.5-2.1,4.6-4.5,4.6c-2.5,0.1-4.6-1.9-4.7-4.4
			C198.6,231.1,200.6,228.9,203.2,228.9z"/>
		<path d="M95.9,233.5c0,2.5-2,4.6-4.5,4.6c-2.6,0.1-4.7-2-4.7-4.7c0-2.5,2-4.5,4.5-4.6C93.8,228.8,95.9,230.9,95.9,233.5z"/>
		<path d="M91.2,140.4c-3.9,0-7.4-1.3-10.5-4c-2.1-1.9-2.4-4.6-0.8-6.6c1.6-2,4.3-2.3,6.6-0.6c3.7,2.6,5.9,2.6,9.4,0
			c2.4-1.7,5-1.5,6.6,0.5c1.7,2,1.3,4.8-0.9,6.8C98.8,139.1,95.3,140.3,91.2,140.4z"/>
	</g>
</g>
</svg>
